M48
;DRILL file {KiCad 4.0.3-stable} date 10/07/16 13:26:49
;FORMAT={-:-/ absolute / inch / decimal}
FMAT,2
INCH,TZ
T1C0.031
T2C0.040
%
G90
G05
M72
T1
X4.5354Y-3.1362
X4.5354Y-3.2701
X4.5354Y-3.7362
X4.5354Y-3.8701
X4.6354Y-3.1362
X4.6354Y-3.2701
X4.6354Y-3.7362
X4.6354Y-3.8701
X4.7354Y-3.1362
X4.7354Y-3.2701
X4.7354Y-3.7362
X4.7354Y-3.8701
X4.8354Y-3.1362
X4.8354Y-3.2701
X4.8354Y-3.7362
X4.8354Y-3.8701
X4.9354Y-3.1362
X4.9354Y-3.2701
X4.9354Y-3.7362
X4.9354Y-3.8701
X5.0354Y-3.1362
X5.0354Y-3.2701
X5.0354Y-3.7362
X5.0354Y-3.8701
X5.1354Y-3.1362
X5.1354Y-3.2701
X5.1354Y-3.7362
X5.1354Y-3.8701
X5.2354Y-3.1362
X5.2354Y-3.2701
X5.2354Y-3.7362
X5.2354Y-3.8701
X5.3354Y-3.1362
X5.3354Y-3.2701
X5.3354Y-3.7362
X5.3354Y-3.8701
X5.4354Y-3.1362
X5.4354Y-3.2701
X5.4354Y-3.7362
X5.4354Y-3.8701
X5.5354Y-3.1362
X5.5354Y-3.2701
X5.5354Y-3.7362
X5.5354Y-3.8701
X5.6354Y-3.1362
X5.6354Y-3.2701
X5.6354Y-3.7362
X5.6354Y-3.8701
X5.7354Y-3.1362
X5.7354Y-3.2701
X5.7354Y-3.7362
X5.7354Y-3.8701
X5.8354Y-3.1362
X5.8354Y-3.2701
X5.8354Y-3.7362
X5.8354Y-3.8701
X5.9354Y-3.1362
X5.9354Y-3.2701
X5.9354Y-3.7362
X5.9354Y-3.8701
X6.0354Y-3.1362
X6.0354Y-3.2701
X6.0354Y-3.7362
X6.0354Y-3.8701
X6.1354Y-3.1362
X6.1354Y-3.2701
X6.1354Y-3.7362
X6.1354Y-3.8701
X6.2354Y-3.1362
X6.2354Y-3.2701
X6.2354Y-3.7362
X6.2354Y-3.8701
X6.3354Y-3.1362
X6.3354Y-3.2701
X6.3354Y-3.7362
X6.3354Y-3.8701
X6.4354Y-3.1362
X6.4354Y-3.2701
X6.4354Y-3.7362
X6.4354Y-3.8701
T2
X4.5354Y-3.0118
X4.5354Y-4.0039
X4.6354Y-3.0118
X4.6354Y-4.0039
X4.7354Y-3.0118
X4.7354Y-4.0039
X4.8354Y-3.0118
X4.8354Y-4.0039
X4.9354Y-3.0118
X4.9354Y-4.0039
X5.0354Y-3.0118
X5.0354Y-4.0039
X5.1354Y-3.0118
X5.1354Y-4.0039
X5.2354Y-3.0118
X5.2354Y-4.0039
X5.3354Y-3.0118
X5.3354Y-4.0039
X5.4354Y-3.0118
X5.4354Y-4.0039
X5.5354Y-3.0118
X5.5354Y-4.0039
X5.6354Y-3.0118
X5.6354Y-4.0039
X5.7354Y-3.0118
X5.7354Y-4.0039
X5.8354Y-3.0118
X5.8354Y-4.0039
X5.9354Y-3.0118
X5.9354Y-4.0039
X6.0354Y-3.0118
X6.0354Y-4.0039
X6.1354Y-3.0118
X6.1354Y-4.0039
X6.2354Y-3.0118
X6.2354Y-4.0039
X6.3354Y-3.0118
X6.3354Y-4.0039
X6.4354Y-3.0118
X6.4354Y-4.0039
X6.589Y-3.1504
X6.589Y-3.2504
X6.589Y-3.3504
X6.589Y-3.4504
X6.589Y-3.5504
X6.589Y-3.6504
X6.589Y-3.7504
X6.589Y-3.8504
X6.689Y-3.1504
X6.689Y-3.2504
X6.689Y-3.3504
X6.689Y-3.4504
X6.689Y-3.5504
X6.689Y-3.6504
X6.689Y-3.7504
X6.689Y-3.8504
T0
M30
