M48
;DRILL file {KiCad 4.0.3-stable} date 10/19/16 10:15:57
;FORMAT={-:-/ absolute / inch / decimal}
FMAT,2
INCH,TZ
T1C0.016
T2C0.031
T3C0.040
%
G90
G05
M72
T1
X4.8996Y-3.4488
X5.4823Y-3.3957
X5.7087Y-3.6181
X6.0118Y-3.4803
X6.1339Y-3.5925
X6.2362Y-3.565
X6.2697Y-3.5354
X6.313Y-3.5079
X6.3169Y-3.4134
T2
X4.5354Y-3.1362
X4.5354Y-3.2701
X4.5354Y-3.7362
X4.5354Y-3.8701
X4.6354Y-3.1362
X4.6354Y-3.2701
X4.6354Y-3.7362
X4.6354Y-3.8701
X4.7354Y-3.1362
X4.7354Y-3.2701
X4.7354Y-3.7362
X4.7354Y-3.8701
X4.8354Y-3.1362
X4.8354Y-3.2701
X4.8354Y-3.7362
X4.8354Y-3.8701
X4.9354Y-3.1362
X4.9354Y-3.2701
X4.9354Y-3.7362
X4.9354Y-3.8701
X5.0354Y-3.1362
X5.0354Y-3.2701
X5.0354Y-3.7362
X5.0354Y-3.8701
X5.1354Y-3.1362
X5.1354Y-3.2701
X5.1354Y-3.7362
X5.1354Y-3.8701
X5.2354Y-3.1362
X5.2354Y-3.2701
X5.2354Y-3.7362
X5.2354Y-3.8701
X5.3354Y-3.1362
X5.3354Y-3.2701
X5.3354Y-3.7362
X5.3354Y-3.8701
X5.4354Y-3.1362
X5.4354Y-3.2701
X5.4354Y-3.7362
X5.4354Y-3.8701
X5.5354Y-3.1362
X5.5354Y-3.2701
X5.5354Y-3.7362
X5.5354Y-3.8701
X5.6354Y-3.1362
X5.6354Y-3.2701
X5.6354Y-3.7362
X5.6354Y-3.8701
X5.7354Y-3.1362
X5.7354Y-3.2701
X5.7354Y-3.7362
X5.7354Y-3.8701
X5.8354Y-3.1362
X5.8354Y-3.2701
X5.8354Y-3.7362
X5.8354Y-3.8701
X5.9354Y-3.1362
X5.9354Y-3.2701
X5.9354Y-3.7362
X5.9354Y-3.8701
X6.0354Y-3.1362
X6.0354Y-3.2701
X6.0354Y-3.7362
X6.0354Y-3.8701
X6.1354Y-3.1362
X6.1354Y-3.2701
X6.1354Y-3.7362
X6.1354Y-3.8701
X6.2354Y-3.1362
X6.2354Y-3.2701
X6.2354Y-3.7362
X6.2354Y-3.8701
X6.3354Y-3.1362
X6.3354Y-3.2701
X6.3354Y-3.7362
X6.3354Y-3.8701
X6.4354Y-3.1362
X6.4354Y-3.2701
X6.4354Y-3.7362
X6.4354Y-3.8701
T3
X4.2366Y-3.1543
X4.2366Y-3.2543
X4.2366Y-3.3543
X4.2366Y-3.4543
X4.2366Y-3.5543
X4.2366Y-3.6543
X4.2366Y-3.7543
X4.2366Y-3.8543
X4.3366Y-3.1543
X4.3366Y-3.2543
X4.3366Y-3.3543
X4.3366Y-3.4543
X4.3366Y-3.5543
X4.3366Y-3.6543
X4.3366Y-3.7543
X4.3366Y-3.8543
X4.5354Y-3.0118
X4.5354Y-4.0039
X4.6354Y-3.0118
X4.6354Y-4.0039
X4.7354Y-3.0118
X4.7354Y-4.0039
X4.8354Y-3.0118
X4.8354Y-4.0039
X4.9354Y-3.0118
X4.9354Y-4.0039
X5.0354Y-3.0118
X5.0354Y-4.0039
X5.1354Y-3.0118
X5.1354Y-4.0039
X5.2354Y-3.0118
X5.2354Y-4.0039
X5.3354Y-3.0118
X5.3354Y-4.0039
X5.4354Y-3.0118
X5.4354Y-4.0039
X5.5354Y-3.0118
X5.5354Y-4.0039
X5.6354Y-3.0118
X5.6354Y-4.0039
X5.7354Y-3.0118
X5.7354Y-4.0039
X5.8354Y-3.0118
X5.8354Y-4.0039
X5.9354Y-3.0118
X5.9354Y-4.0039
X6.0354Y-3.0118
X6.0354Y-4.0039
X6.1354Y-3.0118
X6.1354Y-4.0039
X6.2354Y-3.0118
X6.2354Y-4.0039
X6.3354Y-3.0118
X6.3354Y-4.0039
X6.4354Y-3.0118
X6.4354Y-4.0039
X6.6358Y-3.1496
X6.6358Y-3.2496
X6.6358Y-3.3496
X6.6358Y-3.4496
X6.6358Y-3.5496
X6.6358Y-3.6496
X6.6358Y-3.7496
X6.6358Y-3.8496
X6.7358Y-3.1496
X6.7358Y-3.2496
X6.7358Y-3.3496
X6.7358Y-3.4496
X6.7358Y-3.5496
X6.7358Y-3.6496
X6.7358Y-3.7496
X6.7358Y-3.8496
T0
M30
