G04 #@! TF.FileFunction,Legend,Top*
%FSLAX46Y46*%
G04 Gerber Fmt 4.6, Leading zero omitted, Abs format (unit mm)*
G04 Created by KiCad (PCBNEW 4.0.3-stable) date 10/19/16 10:16:13*
%MOMM*%
%LPD*%
G01*
G04 APERTURE LIST*
%ADD10C,0.100000*%
%ADD11C,0.200000*%
%ADD12C,0.400000*%
%ADD13C,0.150000*%
G04 APERTURE END LIST*
D10*
D11*
X113400000Y-97600000D02*
X114150000Y-97600000D01*
X113400000Y-83700000D02*
X113400000Y-97600000D01*
X114150000Y-83700000D02*
X113400000Y-83700000D01*
X113150000Y-83450000D02*
X114150000Y-83450000D01*
X113150000Y-97850000D02*
X113150000Y-83450000D01*
X114150000Y-97850000D02*
X113150000Y-97850000D01*
X165200000Y-94200000D02*
X164550000Y-94200000D01*
X165200000Y-80400000D02*
X165200000Y-94200000D01*
X164450000Y-80400000D02*
X165200000Y-80400000D01*
X165500000Y-94500000D02*
X164550000Y-94500000D01*
X165500000Y-80100000D02*
X165500000Y-94500000D01*
X164500000Y-80100000D02*
X165500000Y-80100000D01*
D12*
X117200000Y-87021429D02*
X115676190Y-87592857D01*
X117200000Y-88164286D01*
X117866666Y-86354762D02*
X118533333Y-88354762D01*
X119200000Y-86354762D01*
X119866666Y-88354762D02*
X119866666Y-86354762D01*
X120533333Y-87783333D01*
X121200000Y-86354762D01*
X121200000Y-88354762D01*
X122152380Y-88354762D02*
X122152380Y-86354762D01*
X122628571Y-86354762D01*
X122914285Y-86450000D01*
X123104761Y-86640476D01*
X123200000Y-86830952D01*
X123295238Y-87211905D01*
X123295238Y-87497619D01*
X123200000Y-87878571D01*
X123104761Y-88069048D01*
X122914285Y-88259524D01*
X122628571Y-88354762D01*
X122152380Y-88354762D01*
X117200000Y-90421429D02*
X115676190Y-90992857D01*
X117200000Y-91564286D01*
X119009523Y-89754762D02*
X118628571Y-89754762D01*
X118438095Y-89850000D01*
X118342857Y-89945238D01*
X118152380Y-90230952D01*
X118057142Y-90611905D01*
X118057142Y-91373810D01*
X118152380Y-91564286D01*
X118247619Y-91659524D01*
X118438095Y-91754762D01*
X118819047Y-91754762D01*
X119009523Y-91659524D01*
X119104761Y-91564286D01*
X119200000Y-91373810D01*
X119200000Y-90897619D01*
X119104761Y-90707143D01*
X119009523Y-90611905D01*
X118819047Y-90516667D01*
X118438095Y-90516667D01*
X118247619Y-90611905D01*
X118152380Y-90707143D01*
X118057142Y-90897619D01*
X121009523Y-89754762D02*
X120057142Y-89754762D01*
X119961904Y-90707143D01*
X120057142Y-90611905D01*
X120247619Y-90516667D01*
X120723809Y-90516667D01*
X120914285Y-90611905D01*
X121009523Y-90707143D01*
X121104762Y-90897619D01*
X121104762Y-91373810D01*
X121009523Y-91564286D01*
X120914285Y-91659524D01*
X120723809Y-91754762D01*
X120247619Y-91754762D01*
X120057142Y-91659524D01*
X119961904Y-91564286D01*
X122342857Y-89754762D02*
X122533333Y-89754762D01*
X122723809Y-89850000D01*
X122819047Y-89945238D01*
X122914285Y-90135714D01*
X123009524Y-90516667D01*
X123009524Y-90992857D01*
X122914285Y-91373810D01*
X122819047Y-91564286D01*
X122723809Y-91659524D01*
X122533333Y-91754762D01*
X122342857Y-91754762D01*
X122152381Y-91659524D01*
X122057143Y-91564286D01*
X121961904Y-91373810D01*
X121866666Y-90992857D01*
X121866666Y-90516667D01*
X121961904Y-90135714D01*
X122057143Y-89945238D01*
X122152381Y-89850000D01*
X122342857Y-89754762D01*
X123771428Y-89945238D02*
X123866666Y-89850000D01*
X124057143Y-89754762D01*
X124533333Y-89754762D01*
X124723809Y-89850000D01*
X124819047Y-89945238D01*
X124914286Y-90135714D01*
X124914286Y-90326190D01*
X124819047Y-90611905D01*
X123676190Y-91754762D01*
X124914286Y-91754762D01*
X156164286Y-86204762D02*
X156830953Y-88204762D01*
X157497620Y-86204762D01*
X158164286Y-88204762D02*
X158164286Y-86204762D01*
X158830953Y-87633333D01*
X159497620Y-86204762D01*
X159497620Y-88204762D01*
X160450000Y-88204762D02*
X160450000Y-86204762D01*
X160926191Y-86204762D01*
X161211905Y-86300000D01*
X161402381Y-86490476D01*
X161497620Y-86680952D01*
X161592858Y-87061905D01*
X161592858Y-87347619D01*
X161497620Y-87728571D01*
X161402381Y-87919048D01*
X161211905Y-88109524D01*
X160926191Y-88204762D01*
X160450000Y-88204762D01*
X162450000Y-86871429D02*
X163973810Y-87442857D01*
X162450000Y-88014286D01*
X155688095Y-89604762D02*
X155307143Y-89604762D01*
X155116667Y-89700000D01*
X155021429Y-89795238D01*
X154830952Y-90080952D01*
X154735714Y-90461905D01*
X154735714Y-91223810D01*
X154830952Y-91414286D01*
X154926191Y-91509524D01*
X155116667Y-91604762D01*
X155497619Y-91604762D01*
X155688095Y-91509524D01*
X155783333Y-91414286D01*
X155878572Y-91223810D01*
X155878572Y-90747619D01*
X155783333Y-90557143D01*
X155688095Y-90461905D01*
X155497619Y-90366667D01*
X155116667Y-90366667D01*
X154926191Y-90461905D01*
X154830952Y-90557143D01*
X154735714Y-90747619D01*
X157688095Y-89604762D02*
X156735714Y-89604762D01*
X156640476Y-90557143D01*
X156735714Y-90461905D01*
X156926191Y-90366667D01*
X157402381Y-90366667D01*
X157592857Y-90461905D01*
X157688095Y-90557143D01*
X157783334Y-90747619D01*
X157783334Y-91223810D01*
X157688095Y-91414286D01*
X157592857Y-91509524D01*
X157402381Y-91604762D01*
X156926191Y-91604762D01*
X156735714Y-91509524D01*
X156640476Y-91414286D01*
X159688096Y-91604762D02*
X158545238Y-91604762D01*
X159116667Y-91604762D02*
X159116667Y-89604762D01*
X158926191Y-89890476D01*
X158735715Y-90080952D01*
X158545238Y-90176190D01*
X160926191Y-89604762D02*
X161116667Y-89604762D01*
X161307143Y-89700000D01*
X161402381Y-89795238D01*
X161497619Y-89985714D01*
X161592858Y-90366667D01*
X161592858Y-90842857D01*
X161497619Y-91223810D01*
X161402381Y-91414286D01*
X161307143Y-91509524D01*
X161116667Y-91604762D01*
X160926191Y-91604762D01*
X160735715Y-91509524D01*
X160640477Y-91414286D01*
X160545238Y-91223810D01*
X160450000Y-90842857D01*
X160450000Y-90366667D01*
X160545238Y-89985714D01*
X160640477Y-89795238D01*
X160735715Y-89700000D01*
X160926191Y-89604762D01*
X162450000Y-90271429D02*
X163973810Y-90842857D01*
X162450000Y-91414286D01*
D11*
X113802381Y-98664285D02*
X113802381Y-99235714D01*
X113802381Y-98950000D02*
X112802381Y-98950000D01*
X112945238Y-99045238D01*
X113040476Y-99140476D01*
X113088095Y-99235714D01*
X127471429Y-87392857D02*
X127471429Y-86192857D01*
X127757144Y-86192857D01*
X127928572Y-86250000D01*
X128042858Y-86364286D01*
X128100001Y-86478571D01*
X128157144Y-86707143D01*
X128157144Y-86878571D01*
X128100001Y-87107143D01*
X128042858Y-87221429D01*
X127928572Y-87335714D01*
X127757144Y-87392857D01*
X127471429Y-87392857D01*
X128671429Y-87392857D02*
X128671429Y-86192857D01*
X129242858Y-87392857D02*
X129242858Y-86192857D01*
X129700001Y-86192857D01*
X129814287Y-86250000D01*
X129871430Y-86307143D01*
X129928573Y-86421429D01*
X129928573Y-86592857D01*
X129871430Y-86707143D01*
X129814287Y-86764286D01*
X129700001Y-86821429D01*
X129242858Y-86821429D01*
X130957144Y-86592857D02*
X130957144Y-87392857D01*
X130671430Y-86135714D02*
X130385715Y-86992857D01*
X131128573Y-86992857D01*
X131814287Y-86192857D02*
X131928572Y-86192857D01*
X132042858Y-86250000D01*
X132100001Y-86307143D01*
X132157144Y-86421429D01*
X132214287Y-86650000D01*
X132214287Y-86935714D01*
X132157144Y-87164286D01*
X132100001Y-87278571D01*
X132042858Y-87335714D01*
X131928572Y-87392857D01*
X131814287Y-87392857D01*
X131700001Y-87335714D01*
X131642858Y-87278571D01*
X131585715Y-87164286D01*
X131528572Y-86935714D01*
X131528572Y-86650000D01*
X131585715Y-86421429D01*
X131642858Y-86307143D01*
X131700001Y-86250000D01*
X131814287Y-86192857D01*
X133585715Y-86135714D02*
X132557144Y-87678571D01*
X133814287Y-86192857D02*
X134214287Y-87392857D01*
X134614287Y-86192857D01*
X135014286Y-87392857D02*
X135014286Y-86192857D01*
X135414286Y-87050000D01*
X135814286Y-86192857D01*
X135814286Y-87392857D01*
X136385715Y-87392857D02*
X136385715Y-86192857D01*
X136671430Y-86192857D01*
X136842858Y-86250000D01*
X136957144Y-86364286D01*
X137014287Y-86478571D01*
X137071430Y-86707143D01*
X137071430Y-86878571D01*
X137014287Y-87107143D01*
X136957144Y-87221429D01*
X136842858Y-87335714D01*
X136671430Y-87392857D01*
X136385715Y-87392857D01*
X137585715Y-86935714D02*
X138500001Y-86935714D01*
X139585715Y-86192857D02*
X139357144Y-86192857D01*
X139242858Y-86250000D01*
X139185715Y-86307143D01*
X139071429Y-86478571D01*
X139014286Y-86707143D01*
X139014286Y-87164286D01*
X139071429Y-87278571D01*
X139128572Y-87335714D01*
X139242858Y-87392857D01*
X139471429Y-87392857D01*
X139585715Y-87335714D01*
X139642858Y-87278571D01*
X139700001Y-87164286D01*
X139700001Y-86878571D01*
X139642858Y-86764286D01*
X139585715Y-86707143D01*
X139471429Y-86650000D01*
X139242858Y-86650000D01*
X139128572Y-86707143D01*
X139071429Y-86764286D01*
X139014286Y-86878571D01*
X140785715Y-86192857D02*
X140214286Y-86192857D01*
X140157143Y-86764286D01*
X140214286Y-86707143D01*
X140328572Y-86650000D01*
X140614286Y-86650000D01*
X140728572Y-86707143D01*
X140785715Y-86764286D01*
X140842858Y-86878571D01*
X140842858Y-87164286D01*
X140785715Y-87278571D01*
X140728572Y-87335714D01*
X140614286Y-87392857D01*
X140328572Y-87392857D01*
X140214286Y-87335714D01*
X140157143Y-87278571D01*
X141242858Y-87392857D02*
X141871429Y-86592857D01*
X141242858Y-86592857D02*
X141871429Y-87392857D01*
X142214287Y-87392857D02*
X142842858Y-86592857D01*
X142214287Y-86592857D02*
X142842858Y-87392857D01*
X144614287Y-86764286D02*
X144785716Y-86821429D01*
X144842859Y-86878571D01*
X144900002Y-86992857D01*
X144900002Y-87164286D01*
X144842859Y-87278571D01*
X144785716Y-87335714D01*
X144671430Y-87392857D01*
X144214287Y-87392857D01*
X144214287Y-86192857D01*
X144614287Y-86192857D01*
X144728573Y-86250000D01*
X144785716Y-86307143D01*
X144842859Y-86421429D01*
X144842859Y-86535714D01*
X144785716Y-86650000D01*
X144728573Y-86707143D01*
X144614287Y-86764286D01*
X144214287Y-86764286D01*
X145414287Y-87392857D02*
X145414287Y-86592857D01*
X145414287Y-86821429D02*
X145471430Y-86707143D01*
X145528573Y-86650000D01*
X145642859Y-86592857D01*
X145757144Y-86592857D01*
X146614287Y-87335714D02*
X146500001Y-87392857D01*
X146271430Y-87392857D01*
X146157144Y-87335714D01*
X146100001Y-87221429D01*
X146100001Y-86764286D01*
X146157144Y-86650000D01*
X146271430Y-86592857D01*
X146500001Y-86592857D01*
X146614287Y-86650000D01*
X146671430Y-86764286D01*
X146671430Y-86878571D01*
X146100001Y-86992857D01*
X147700001Y-87392857D02*
X147700001Y-86764286D01*
X147642858Y-86650000D01*
X147528572Y-86592857D01*
X147300001Y-86592857D01*
X147185715Y-86650000D01*
X147700001Y-87335714D02*
X147585715Y-87392857D01*
X147300001Y-87392857D01*
X147185715Y-87335714D01*
X147128572Y-87221429D01*
X147128572Y-87107143D01*
X147185715Y-86992857D01*
X147300001Y-86935714D01*
X147585715Y-86935714D01*
X147700001Y-86878571D01*
X148271429Y-87392857D02*
X148271429Y-86192857D01*
X148385715Y-86935714D02*
X148728572Y-87392857D01*
X148728572Y-86592857D02*
X148271429Y-87050000D01*
X149414287Y-87392857D02*
X149300001Y-87335714D01*
X149242858Y-87278571D01*
X149185715Y-87164286D01*
X149185715Y-86821429D01*
X149242858Y-86707143D01*
X149300001Y-86650000D01*
X149414287Y-86592857D01*
X149585715Y-86592857D01*
X149700001Y-86650000D01*
X149757144Y-86707143D01*
X149814287Y-86821429D01*
X149814287Y-87164286D01*
X149757144Y-87278571D01*
X149700001Y-87335714D01*
X149585715Y-87392857D01*
X149414287Y-87392857D01*
X150842858Y-86592857D02*
X150842858Y-87392857D01*
X150328572Y-86592857D02*
X150328572Y-87221429D01*
X150385715Y-87335714D01*
X150500001Y-87392857D01*
X150671429Y-87392857D01*
X150785715Y-87335714D01*
X150842858Y-87278571D01*
X151242858Y-86592857D02*
X151700001Y-86592857D01*
X151414286Y-86192857D02*
X151414286Y-87221429D01*
X151471429Y-87335714D01*
X151585715Y-87392857D01*
X151700001Y-87392857D01*
X128500000Y-89850000D02*
X128442858Y-89792857D01*
X128328572Y-89621429D01*
X128271429Y-89507143D01*
X128214286Y-89335714D01*
X128157143Y-89050000D01*
X128157143Y-88821429D01*
X128214286Y-88535714D01*
X128271429Y-88364286D01*
X128328572Y-88250000D01*
X128442858Y-88078571D01*
X128500000Y-88021429D01*
X129642858Y-89278571D02*
X129585715Y-89335714D01*
X129414286Y-89392857D01*
X129300000Y-89392857D01*
X129128572Y-89335714D01*
X129014286Y-89221429D01*
X128957143Y-89107143D01*
X128900000Y-88878571D01*
X128900000Y-88707143D01*
X128957143Y-88478571D01*
X129014286Y-88364286D01*
X129128572Y-88250000D01*
X129300000Y-88192857D01*
X129414286Y-88192857D01*
X129585715Y-88250000D01*
X129642858Y-88307143D01*
X130042858Y-89850000D02*
X130100000Y-89792857D01*
X130214286Y-89621429D01*
X130271429Y-89507143D01*
X130328572Y-89335714D01*
X130385715Y-89050000D01*
X130385715Y-88821429D01*
X130328572Y-88535714D01*
X130271429Y-88364286D01*
X130214286Y-88250000D01*
X130100000Y-88078571D01*
X130042858Y-88021429D01*
X130900000Y-88307143D02*
X130957143Y-88250000D01*
X131071429Y-88192857D01*
X131357143Y-88192857D01*
X131471429Y-88250000D01*
X131528572Y-88307143D01*
X131585715Y-88421429D01*
X131585715Y-88535714D01*
X131528572Y-88707143D01*
X130842858Y-89392857D01*
X131585715Y-89392857D01*
X132328572Y-88192857D02*
X132442857Y-88192857D01*
X132557143Y-88250000D01*
X132614286Y-88307143D01*
X132671429Y-88421429D01*
X132728572Y-88650000D01*
X132728572Y-88935714D01*
X132671429Y-89164286D01*
X132614286Y-89278571D01*
X132557143Y-89335714D01*
X132442857Y-89392857D01*
X132328572Y-89392857D01*
X132214286Y-89335714D01*
X132157143Y-89278571D01*
X132100000Y-89164286D01*
X132042857Y-88935714D01*
X132042857Y-88650000D01*
X132100000Y-88421429D01*
X132157143Y-88307143D01*
X132214286Y-88250000D01*
X132328572Y-88192857D01*
X133871429Y-89392857D02*
X133185714Y-89392857D01*
X133528572Y-89392857D02*
X133528572Y-88192857D01*
X133414286Y-88364286D01*
X133300000Y-88478571D01*
X133185714Y-88535714D01*
X134900000Y-88192857D02*
X134671429Y-88192857D01*
X134557143Y-88250000D01*
X134500000Y-88307143D01*
X134385714Y-88478571D01*
X134328571Y-88707143D01*
X134328571Y-89164286D01*
X134385714Y-89278571D01*
X134442857Y-89335714D01*
X134557143Y-89392857D01*
X134785714Y-89392857D01*
X134900000Y-89335714D01*
X134957143Y-89278571D01*
X135014286Y-89164286D01*
X135014286Y-88878571D01*
X134957143Y-88764286D01*
X134900000Y-88707143D01*
X134785714Y-88650000D01*
X134557143Y-88650000D01*
X134442857Y-88707143D01*
X134385714Y-88764286D01*
X134328571Y-88878571D01*
X136442857Y-89392857D02*
X136442857Y-88192857D01*
X136442857Y-88650000D02*
X136557143Y-88592857D01*
X136785714Y-88592857D01*
X136900000Y-88650000D01*
X136957143Y-88707143D01*
X137014286Y-88821429D01*
X137014286Y-89164286D01*
X136957143Y-89278571D01*
X136900000Y-89335714D01*
X136785714Y-89392857D01*
X136557143Y-89392857D01*
X136442857Y-89335714D01*
X137414286Y-88592857D02*
X137700000Y-89392857D01*
X137985714Y-88592857D02*
X137700000Y-89392857D01*
X137585714Y-89678571D01*
X137528571Y-89735714D01*
X137414286Y-89792857D01*
X139300000Y-89335714D02*
X139471429Y-89392857D01*
X139757143Y-89392857D01*
X139871429Y-89335714D01*
X139928572Y-89278571D01*
X139985715Y-89164286D01*
X139985715Y-89050000D01*
X139928572Y-88935714D01*
X139871429Y-88878571D01*
X139757143Y-88821429D01*
X139528572Y-88764286D01*
X139414286Y-88707143D01*
X139357143Y-88650000D01*
X139300000Y-88535714D01*
X139300000Y-88421429D01*
X139357143Y-88307143D01*
X139414286Y-88250000D01*
X139528572Y-88192857D01*
X139814286Y-88192857D01*
X139985715Y-88250000D01*
X140328572Y-88592857D02*
X140785715Y-88592857D01*
X140500000Y-88192857D02*
X140500000Y-89221429D01*
X140557143Y-89335714D01*
X140671429Y-89392857D01*
X140785715Y-89392857D01*
X141642857Y-89335714D02*
X141528571Y-89392857D01*
X141300000Y-89392857D01*
X141185714Y-89335714D01*
X141128571Y-89221429D01*
X141128571Y-88764286D01*
X141185714Y-88650000D01*
X141300000Y-88592857D01*
X141528571Y-88592857D01*
X141642857Y-88650000D01*
X141700000Y-88764286D01*
X141700000Y-88878571D01*
X141128571Y-88992857D01*
X142100000Y-88592857D02*
X142385714Y-89392857D01*
X142671428Y-88592857D01*
X143585714Y-89335714D02*
X143471428Y-89392857D01*
X143242857Y-89392857D01*
X143128571Y-89335714D01*
X143071428Y-89221429D01*
X143071428Y-88764286D01*
X143128571Y-88650000D01*
X143242857Y-88592857D01*
X143471428Y-88592857D01*
X143585714Y-88650000D01*
X143642857Y-88764286D01*
X143642857Y-88878571D01*
X143071428Y-88992857D01*
X145414285Y-88192857D02*
X145414285Y-89050000D01*
X145357143Y-89221429D01*
X145242857Y-89335714D01*
X145071428Y-89392857D01*
X144957143Y-89392857D01*
X145985714Y-89278571D02*
X146042857Y-89335714D01*
X145985714Y-89392857D01*
X145928571Y-89335714D01*
X145985714Y-89278571D01*
X145985714Y-89392857D01*
X148100001Y-88250000D02*
X147985715Y-88192857D01*
X147814286Y-88192857D01*
X147642858Y-88250000D01*
X147528572Y-88364286D01*
X147471429Y-88478571D01*
X147414286Y-88707143D01*
X147414286Y-88878571D01*
X147471429Y-89107143D01*
X147528572Y-89221429D01*
X147642858Y-89335714D01*
X147814286Y-89392857D01*
X147928572Y-89392857D01*
X148100001Y-89335714D01*
X148157144Y-89278571D01*
X148157144Y-88878571D01*
X147928572Y-88878571D01*
X148671429Y-89392857D02*
X148671429Y-88592857D01*
X148671429Y-88821429D02*
X148728572Y-88707143D01*
X148785715Y-88650000D01*
X148900001Y-88592857D01*
X149014286Y-88592857D01*
X149928572Y-89392857D02*
X149928572Y-88764286D01*
X149871429Y-88650000D01*
X149757143Y-88592857D01*
X149528572Y-88592857D01*
X149414286Y-88650000D01*
X149928572Y-89335714D02*
X149814286Y-89392857D01*
X149528572Y-89392857D01*
X149414286Y-89335714D01*
X149357143Y-89221429D01*
X149357143Y-89107143D01*
X149414286Y-88992857D01*
X149528572Y-88935714D01*
X149814286Y-88935714D01*
X149928572Y-88878571D01*
X150385715Y-88592857D02*
X150671429Y-89392857D01*
X150957143Y-88592857D02*
X150671429Y-89392857D01*
X150557143Y-89678571D01*
X150500000Y-89735714D01*
X150385715Y-89792857D01*
X131157144Y-90192857D02*
X131557144Y-91392857D01*
X131957144Y-90192857D01*
X132985715Y-91392857D02*
X132300000Y-91392857D01*
X132642858Y-91392857D02*
X132642858Y-90192857D01*
X132528572Y-90364286D01*
X132414286Y-90478571D01*
X132300000Y-90535714D01*
X133500000Y-91278571D02*
X133557143Y-91335714D01*
X133500000Y-91392857D01*
X133442857Y-91335714D01*
X133500000Y-91278571D01*
X133500000Y-91392857D01*
X134300001Y-90192857D02*
X134414286Y-90192857D01*
X134528572Y-90250000D01*
X134585715Y-90307143D01*
X134642858Y-90421429D01*
X134700001Y-90650000D01*
X134700001Y-90935714D01*
X134642858Y-91164286D01*
X134585715Y-91278571D01*
X134528572Y-91335714D01*
X134414286Y-91392857D01*
X134300001Y-91392857D01*
X134185715Y-91335714D01*
X134128572Y-91278571D01*
X134071429Y-91164286D01*
X134014286Y-90935714D01*
X134014286Y-90650000D01*
X134071429Y-90421429D01*
X134128572Y-90307143D01*
X134185715Y-90250000D01*
X134300001Y-90192857D01*
X136071429Y-90307143D02*
X136128572Y-90250000D01*
X136242858Y-90192857D01*
X136528572Y-90192857D01*
X136642858Y-90250000D01*
X136700001Y-90307143D01*
X136757144Y-90421429D01*
X136757144Y-90535714D01*
X136700001Y-90707143D01*
X136014287Y-91392857D01*
X136757144Y-91392857D01*
X137500001Y-90192857D02*
X137614286Y-90192857D01*
X137728572Y-90250000D01*
X137785715Y-90307143D01*
X137842858Y-90421429D01*
X137900001Y-90650000D01*
X137900001Y-90935714D01*
X137842858Y-91164286D01*
X137785715Y-91278571D01*
X137728572Y-91335714D01*
X137614286Y-91392857D01*
X137500001Y-91392857D01*
X137385715Y-91335714D01*
X137328572Y-91278571D01*
X137271429Y-91164286D01*
X137214286Y-90935714D01*
X137214286Y-90650000D01*
X137271429Y-90421429D01*
X137328572Y-90307143D01*
X137385715Y-90250000D01*
X137500001Y-90192857D01*
X139042858Y-91392857D02*
X138357143Y-91392857D01*
X138700001Y-91392857D02*
X138700001Y-90192857D01*
X138585715Y-90364286D01*
X138471429Y-90478571D01*
X138357143Y-90535714D01*
X140071429Y-90192857D02*
X139842858Y-90192857D01*
X139728572Y-90250000D01*
X139671429Y-90307143D01*
X139557143Y-90478571D01*
X139500000Y-90707143D01*
X139500000Y-91164286D01*
X139557143Y-91278571D01*
X139614286Y-91335714D01*
X139728572Y-91392857D01*
X139957143Y-91392857D01*
X140071429Y-91335714D01*
X140128572Y-91278571D01*
X140185715Y-91164286D01*
X140185715Y-90878571D01*
X140128572Y-90764286D01*
X140071429Y-90707143D01*
X139957143Y-90650000D01*
X139728572Y-90650000D01*
X139614286Y-90707143D01*
X139557143Y-90764286D01*
X139500000Y-90878571D01*
X140700000Y-90935714D02*
X141614286Y-90935714D01*
X142814286Y-91392857D02*
X142128571Y-91392857D01*
X142471429Y-91392857D02*
X142471429Y-90192857D01*
X142357143Y-90364286D01*
X142242857Y-90478571D01*
X142128571Y-90535714D01*
X143557143Y-90192857D02*
X143671428Y-90192857D01*
X143785714Y-90250000D01*
X143842857Y-90307143D01*
X143900000Y-90421429D01*
X143957143Y-90650000D01*
X143957143Y-90935714D01*
X143900000Y-91164286D01*
X143842857Y-91278571D01*
X143785714Y-91335714D01*
X143671428Y-91392857D01*
X143557143Y-91392857D01*
X143442857Y-91335714D01*
X143385714Y-91278571D01*
X143328571Y-91164286D01*
X143271428Y-90935714D01*
X143271428Y-90650000D01*
X143328571Y-90421429D01*
X143385714Y-90307143D01*
X143442857Y-90250000D01*
X143557143Y-90192857D01*
X144471428Y-90935714D02*
X145385714Y-90935714D01*
X146585714Y-91392857D02*
X145899999Y-91392857D01*
X146242857Y-91392857D02*
X146242857Y-90192857D01*
X146128571Y-90364286D01*
X146014285Y-90478571D01*
X145899999Y-90535714D01*
X147271428Y-90707143D02*
X147157142Y-90650000D01*
X147099999Y-90592857D01*
X147042856Y-90478571D01*
X147042856Y-90421429D01*
X147099999Y-90307143D01*
X147157142Y-90250000D01*
X147271428Y-90192857D01*
X147499999Y-90192857D01*
X147614285Y-90250000D01*
X147671428Y-90307143D01*
X147728571Y-90421429D01*
X147728571Y-90478571D01*
X147671428Y-90592857D01*
X147614285Y-90650000D01*
X147499999Y-90707143D01*
X147271428Y-90707143D01*
X147157142Y-90764286D01*
X147099999Y-90821429D01*
X147042856Y-90935714D01*
X147042856Y-91164286D01*
X147099999Y-91278571D01*
X147157142Y-91335714D01*
X147271428Y-91392857D01*
X147499999Y-91392857D01*
X147614285Y-91335714D01*
X147671428Y-91278571D01*
X147728571Y-91164286D01*
X147728571Y-90935714D01*
X147671428Y-90821429D01*
X147614285Y-90764286D01*
X147499999Y-90707143D01*
D13*
X112905000Y-94765000D02*
X114175000Y-94765000D01*
X112905000Y-79795000D02*
X114175000Y-79795000D01*
X165755000Y-79795000D02*
X164485000Y-79795000D01*
X165755000Y-94765000D02*
X164485000Y-94765000D01*
X112905000Y-94765000D02*
X112905000Y-79795000D01*
X165755000Y-94765000D02*
X165755000Y-79795000D01*
X114175000Y-94765000D02*
X114175000Y-96050000D01*
X172360000Y-99050000D02*
X172360000Y-78730000D01*
X167280000Y-81270000D02*
X167280000Y-99050000D01*
X172360000Y-99050000D02*
X167280000Y-99050000D01*
X172360000Y-78730000D02*
X169820000Y-78730000D01*
X168550000Y-78450000D02*
X167000000Y-78450000D01*
X169820000Y-78730000D02*
X169820000Y-81270000D01*
X169820000Y-81270000D02*
X167280000Y-81270000D01*
X167000000Y-78450000D02*
X167000000Y-80000000D01*
X116470000Y-100430000D02*
X164730000Y-100430000D01*
X164730000Y-100430000D02*
X164730000Y-102970000D01*
X164730000Y-102970000D02*
X116470000Y-102970000D01*
X113650000Y-100150000D02*
X115200000Y-100150000D01*
X116470000Y-100430000D02*
X116470000Y-102970000D01*
X115200000Y-103250000D02*
X113650000Y-103250000D01*
X113650000Y-103250000D02*
X113650000Y-100150000D01*
X116470000Y-75230000D02*
X164730000Y-75230000D01*
X164730000Y-75230000D02*
X164730000Y-77770000D01*
X164730000Y-77770000D02*
X116470000Y-77770000D01*
X113650000Y-74950000D02*
X115200000Y-74950000D01*
X116470000Y-75230000D02*
X116470000Y-77770000D01*
X115200000Y-78050000D02*
X113650000Y-78050000D01*
X113650000Y-78050000D02*
X113650000Y-74950000D01*
X112905000Y-98165000D02*
X114175000Y-98165000D01*
X112905000Y-83195000D02*
X114175000Y-83195000D01*
X165755000Y-83195000D02*
X164485000Y-83195000D01*
X165755000Y-98165000D02*
X164485000Y-98165000D01*
X112905000Y-98165000D02*
X112905000Y-83195000D01*
X165755000Y-98165000D02*
X165755000Y-83195000D01*
X114175000Y-98165000D02*
X114175000Y-99450000D01*
X106340000Y-78850000D02*
X106340000Y-99170000D01*
X111420000Y-96630000D02*
X111420000Y-78850000D01*
X106340000Y-78850000D02*
X111420000Y-78850000D01*
X106340000Y-99170000D02*
X108880000Y-99170000D01*
X110150000Y-99450000D02*
X111700000Y-99450000D01*
X108880000Y-99170000D02*
X108880000Y-96630000D01*
X108880000Y-96630000D02*
X111420000Y-96630000D01*
X111700000Y-99450000D02*
X111700000Y-97900000D01*
X94502381Y-90338095D02*
X93502381Y-90338095D01*
X93502381Y-89957142D01*
X93550000Y-89861904D01*
X93597619Y-89814285D01*
X93692857Y-89766666D01*
X93835714Y-89766666D01*
X93930952Y-89814285D01*
X93978571Y-89861904D01*
X94026190Y-89957142D01*
X94026190Y-90338095D01*
X93597619Y-89385714D02*
X93550000Y-89338095D01*
X93502381Y-89242857D01*
X93502381Y-89004761D01*
X93550000Y-88909523D01*
X93597619Y-88861904D01*
X93692857Y-88814285D01*
X93788095Y-88814285D01*
X93930952Y-88861904D01*
X94502381Y-89433333D01*
X94502381Y-88814285D01*
X156211905Y-73402381D02*
X156211905Y-72402381D01*
X156592858Y-72402381D01*
X156688096Y-72450000D01*
X156735715Y-72497619D01*
X156783334Y-72592857D01*
X156783334Y-72735714D01*
X156735715Y-72830952D01*
X156688096Y-72878571D01*
X156592858Y-72926190D01*
X156211905Y-72926190D01*
X157688096Y-72402381D02*
X157211905Y-72402381D01*
X157164286Y-72878571D01*
X157211905Y-72830952D01*
X157307143Y-72783333D01*
X157545239Y-72783333D01*
X157640477Y-72830952D01*
X157688096Y-72878571D01*
X157735715Y-72973810D01*
X157735715Y-73211905D01*
X157688096Y-73307143D01*
X157640477Y-73354762D01*
X157545239Y-73402381D01*
X157307143Y-73402381D01*
X157211905Y-73354762D01*
X157164286Y-73307143D01*
X98952381Y-101088095D02*
X97952381Y-101088095D01*
X97952381Y-100707142D01*
X98000000Y-100611904D01*
X98047619Y-100564285D01*
X98142857Y-100516666D01*
X98285714Y-100516666D01*
X98380952Y-100564285D01*
X98428571Y-100611904D01*
X98476190Y-100707142D01*
X98476190Y-101088095D01*
X98952381Y-99564285D02*
X98952381Y-100135714D01*
X98952381Y-99850000D02*
X97952381Y-99850000D01*
X98095238Y-99945238D01*
X98190476Y-100040476D01*
X98238095Y-100135714D01*
X92302381Y-76238095D02*
X91302381Y-76238095D01*
X91302381Y-75857142D01*
X91350000Y-75761904D01*
X91397619Y-75714285D01*
X91492857Y-75666666D01*
X91635714Y-75666666D01*
X91730952Y-75714285D01*
X91778571Y-75761904D01*
X91826190Y-75857142D01*
X91826190Y-76238095D01*
X91302381Y-75333333D02*
X91302381Y-74714285D01*
X91683333Y-75047619D01*
X91683333Y-74904761D01*
X91730952Y-74809523D01*
X91778571Y-74761904D01*
X91873810Y-74714285D01*
X92111905Y-74714285D01*
X92207143Y-74761904D01*
X92254762Y-74809523D01*
X92302381Y-74904761D01*
X92302381Y-75190476D01*
X92254762Y-75285714D01*
X92207143Y-75333333D01*
X98152381Y-98438095D02*
X97152381Y-98438095D01*
X97152381Y-98057142D01*
X97200000Y-97961904D01*
X97247619Y-97914285D01*
X97342857Y-97866666D01*
X97485714Y-97866666D01*
X97580952Y-97914285D01*
X97628571Y-97961904D01*
X97676190Y-98057142D01*
X97676190Y-98438095D01*
X97485714Y-97009523D02*
X98152381Y-97009523D01*
X97104762Y-97247619D02*
X97819048Y-97485714D01*
X97819048Y-96866666D01*
X125552381Y-99138095D02*
X124552381Y-99138095D01*
X124552381Y-98757142D01*
X124600000Y-98661904D01*
X124647619Y-98614285D01*
X124742857Y-98566666D01*
X124885714Y-98566666D01*
X124980952Y-98614285D01*
X125028571Y-98661904D01*
X125076190Y-98757142D01*
X125076190Y-99138095D01*
X124552381Y-97709523D02*
X124552381Y-97900000D01*
X124600000Y-97995238D01*
X124647619Y-98042857D01*
X124790476Y-98138095D01*
X124980952Y-98185714D01*
X125361905Y-98185714D01*
X125457143Y-98138095D01*
X125504762Y-98090476D01*
X125552381Y-97995238D01*
X125552381Y-97804761D01*
X125504762Y-97709523D01*
X125457143Y-97661904D01*
X125361905Y-97614285D01*
X125123810Y-97614285D01*
X125028571Y-97661904D01*
X124980952Y-97709523D01*
X124933333Y-97804761D01*
X124933333Y-97995238D01*
X124980952Y-98090476D01*
X125028571Y-98138095D01*
X125123810Y-98185714D01*
M02*
