G04 #@! TF.FileFunction,Copper,L1,Top,Signal*
%FSLAX46Y46*%
G04 Gerber Fmt 4.6, Leading zero omitted, Abs format (unit mm)*
G04 Created by KiCad (PCBNEW 4.0.3-stable) date 10/19/16 10:16:13*
%MOMM*%
%LPD*%
G01*
G04 APERTURE LIST*
%ADD10C,0.100000*%
%ADD11O,1.600000X2.300000*%
%ADD12R,1.727200X1.727200*%
%ADD13O,1.727200X1.727200*%
%ADD14R,1.727200X2.032000*%
%ADD15O,1.727200X2.032000*%
%ADD16C,0.600000*%
%ADD17C,0.500000*%
%ADD18C,0.250000*%
G04 APERTURE END LIST*
D10*
D11*
X115200000Y-94900000D03*
X117740000Y-94900000D03*
X120280000Y-94900000D03*
X122820000Y-94900000D03*
X125360000Y-94900000D03*
X127900000Y-94900000D03*
X130440000Y-94900000D03*
X132980000Y-94900000D03*
X135520000Y-94900000D03*
X138060000Y-94900000D03*
X140600000Y-94900000D03*
X143140000Y-94900000D03*
X145680000Y-94900000D03*
X148220000Y-94900000D03*
X150760000Y-94900000D03*
X153300000Y-94900000D03*
X155840000Y-94900000D03*
X158380000Y-94900000D03*
X160920000Y-94900000D03*
X163460000Y-94900000D03*
X163460000Y-79660000D03*
X160920000Y-79660000D03*
X158380000Y-79660000D03*
X155840000Y-79660000D03*
X153300000Y-79660000D03*
X150760000Y-79660000D03*
X148220000Y-79660000D03*
X145680000Y-79660000D03*
X143140000Y-79660000D03*
X140600000Y-79660000D03*
X138060000Y-79660000D03*
X135520000Y-79660000D03*
X132980000Y-79660000D03*
X130440000Y-79660000D03*
X127900000Y-79660000D03*
X125360000Y-79660000D03*
X122820000Y-79660000D03*
X120280000Y-79660000D03*
X117740000Y-79660000D03*
X115200000Y-79660000D03*
D12*
X168550000Y-80000000D03*
D13*
X171090000Y-80000000D03*
X168550000Y-82540000D03*
X171090000Y-82540000D03*
X168550000Y-85080000D03*
X171090000Y-85080000D03*
X168550000Y-87620000D03*
X171090000Y-87620000D03*
X168550000Y-90160000D03*
X171090000Y-90160000D03*
X168550000Y-92700000D03*
X171090000Y-92700000D03*
X168550000Y-95240000D03*
X171090000Y-95240000D03*
X168550000Y-97780000D03*
X171090000Y-97780000D03*
D14*
X115200000Y-101700000D03*
D15*
X117740000Y-101700000D03*
X120280000Y-101700000D03*
X122820000Y-101700000D03*
X125360000Y-101700000D03*
X127900000Y-101700000D03*
X130440000Y-101700000D03*
X132980000Y-101700000D03*
X135520000Y-101700000D03*
X138060000Y-101700000D03*
X140600000Y-101700000D03*
X143140000Y-101700000D03*
X145680000Y-101700000D03*
X148220000Y-101700000D03*
X150760000Y-101700000D03*
X153300000Y-101700000D03*
X155840000Y-101700000D03*
X158380000Y-101700000D03*
X160920000Y-101700000D03*
X163460000Y-101700000D03*
D14*
X115200000Y-76500000D03*
D15*
X117740000Y-76500000D03*
X120280000Y-76500000D03*
X122820000Y-76500000D03*
X125360000Y-76500000D03*
X127900000Y-76500000D03*
X130440000Y-76500000D03*
X132980000Y-76500000D03*
X135520000Y-76500000D03*
X138060000Y-76500000D03*
X140600000Y-76500000D03*
X143140000Y-76500000D03*
X145680000Y-76500000D03*
X148220000Y-76500000D03*
X150760000Y-76500000D03*
X153300000Y-76500000D03*
X155840000Y-76500000D03*
X158380000Y-76500000D03*
X160920000Y-76500000D03*
X163460000Y-76500000D03*
D11*
X115200000Y-98300000D03*
X117740000Y-98300000D03*
X120280000Y-98300000D03*
X122820000Y-98300000D03*
X125360000Y-98300000D03*
X127900000Y-98300000D03*
X130440000Y-98300000D03*
X132980000Y-98300000D03*
X135520000Y-98300000D03*
X138060000Y-98300000D03*
X140600000Y-98300000D03*
X143140000Y-98300000D03*
X145680000Y-98300000D03*
X148220000Y-98300000D03*
X150760000Y-98300000D03*
X153300000Y-98300000D03*
X155840000Y-98300000D03*
X158380000Y-98300000D03*
X160920000Y-98300000D03*
X163460000Y-98300000D03*
X163460000Y-83060000D03*
X160920000Y-83060000D03*
X158380000Y-83060000D03*
X155840000Y-83060000D03*
X153300000Y-83060000D03*
X150760000Y-83060000D03*
X148220000Y-83060000D03*
X145680000Y-83060000D03*
X143140000Y-83060000D03*
X140600000Y-83060000D03*
X138060000Y-83060000D03*
X135520000Y-83060000D03*
X132980000Y-83060000D03*
X130440000Y-83060000D03*
X127900000Y-83060000D03*
X125360000Y-83060000D03*
X122820000Y-83060000D03*
X120280000Y-83060000D03*
X117740000Y-83060000D03*
X115200000Y-83060000D03*
D12*
X110150000Y-97900000D03*
D13*
X107610000Y-97900000D03*
X110150000Y-95360000D03*
X107610000Y-95360000D03*
X110150000Y-92820000D03*
X107610000Y-92820000D03*
X110150000Y-90280000D03*
X107610000Y-90280000D03*
X110150000Y-87740000D03*
X107610000Y-87740000D03*
X110150000Y-85200000D03*
X107610000Y-85200000D03*
X110150000Y-82660000D03*
X107610000Y-82660000D03*
X110150000Y-80120000D03*
X107610000Y-80120000D03*
D16*
X152700000Y-88400000D03*
X155800000Y-91250000D03*
X158400000Y-90550000D03*
X159250000Y-89800000D03*
X160350000Y-89100000D03*
X124450000Y-87600000D03*
X160450000Y-86700000D03*
X145000000Y-91900000D03*
X139250000Y-86250000D03*
D17*
X110900000Y-78575000D02*
X107875000Y-78575000D01*
X107875000Y-78575000D02*
X107650000Y-78800000D01*
X125600000Y-85850000D02*
X125800000Y-86050000D01*
X132980000Y-94900000D02*
X132980000Y-93230000D01*
X132980000Y-93230000D02*
X125800000Y-86050000D01*
X110900000Y-78575000D02*
X112975000Y-78575000D01*
X113800000Y-79400000D02*
X113800000Y-84050000D01*
X112975000Y-78575000D02*
X113800000Y-79400000D01*
X115100000Y-85350000D02*
X115600000Y-85850000D01*
X115600000Y-85850000D02*
X125600000Y-85850000D01*
X113800000Y-84050000D02*
X115100000Y-85350000D01*
X107650000Y-78800000D02*
X107650000Y-80100000D01*
X107650000Y-80100000D02*
X107650000Y-82640000D01*
D18*
X150760000Y-90500000D02*
X150760000Y-90340000D01*
X150760000Y-90340000D02*
X152700000Y-88400000D01*
X150760000Y-90500000D02*
X150760000Y-94900000D01*
X158750000Y-85350000D02*
X159000000Y-85100000D01*
X158750000Y-85350000D02*
X153300000Y-90800000D01*
X163750000Y-85100000D02*
X166900000Y-85100000D01*
X167500000Y-84500000D02*
X167500000Y-83900000D01*
X166900000Y-85100000D02*
X167500000Y-84500000D01*
X168560000Y-82560000D02*
X168560000Y-82840000D01*
X168560000Y-82840000D02*
X167500000Y-83900000D01*
X159000000Y-85100000D02*
X163750000Y-85100000D01*
X153300000Y-94900000D02*
X153300000Y-90800000D01*
X159500000Y-85600000D02*
X159450000Y-85600000D01*
X159450000Y-85600000D02*
X155840000Y-89210000D01*
X159500000Y-85600000D02*
X168030000Y-85600000D01*
X168030000Y-85600000D02*
X168550000Y-85080000D01*
X155840000Y-91290000D02*
X155800000Y-91250000D01*
X155840000Y-91290000D02*
X155840000Y-91650000D01*
X155840000Y-91650000D02*
X155840000Y-89210000D01*
X155840000Y-94900000D02*
X155840000Y-91650000D01*
X167535000Y-86615000D02*
X167535000Y-86585002D01*
X160199998Y-86050002D02*
X159950000Y-86300000D01*
X167000000Y-86050002D02*
X160199998Y-86050002D01*
X167535000Y-86585002D02*
X167000000Y-86050002D01*
X158400000Y-87800000D02*
X158450000Y-87800000D01*
X158450000Y-87800000D02*
X159950000Y-86300000D01*
X158400000Y-87800000D02*
X158400000Y-90550000D01*
X158400000Y-89400000D02*
X158400000Y-90550000D01*
X158380000Y-92070000D02*
X158380000Y-90570000D01*
X158380000Y-90570000D02*
X158400000Y-90550000D01*
X158380000Y-92070000D02*
X158380000Y-94900000D01*
X167535000Y-86615000D02*
X168560000Y-87640000D01*
X160920000Y-94900000D02*
X160920000Y-91470000D01*
X160920000Y-94900000D02*
X160920000Y-94430000D01*
X160920000Y-91470000D02*
X159250000Y-89800000D01*
X167550000Y-92000000D02*
X164650000Y-92000000D01*
X163460000Y-94900000D02*
X163460000Y-92210000D01*
X163460000Y-92210000D02*
X160350000Y-89100000D01*
X163460000Y-93400000D02*
X163460000Y-93190000D01*
X163460000Y-93190000D02*
X164650000Y-92000000D01*
X163460000Y-94900000D02*
X163460000Y-93690000D01*
X163460000Y-94900000D02*
X163460000Y-93400000D01*
X163460000Y-93400000D02*
X163460000Y-92440000D01*
X163460000Y-92440000D02*
X163460000Y-91990000D01*
X163460000Y-92560000D02*
X163460000Y-94900000D01*
X168270000Y-92720000D02*
X167550000Y-92000000D01*
X168560000Y-92720000D02*
X168270000Y-92720000D01*
D17*
X107650000Y-97880000D02*
X107650000Y-95340000D01*
X110850000Y-99275000D02*
X113225000Y-99275000D01*
X113700000Y-94000000D02*
X115650000Y-92050000D01*
X113700000Y-98800000D02*
X113700000Y-94000000D01*
X113225000Y-99275000D02*
X113700000Y-98800000D01*
X115650000Y-92050000D02*
X120000000Y-92050000D01*
X120000000Y-92050000D02*
X124450000Y-87600000D01*
X110550000Y-99275000D02*
X110850000Y-99275000D01*
X107875000Y-99275000D02*
X110550000Y-99275000D01*
X107650000Y-97880000D02*
X107650000Y-99050000D01*
X107650000Y-99050000D02*
X107875000Y-99275000D01*
D18*
X160450000Y-86700000D02*
X160550000Y-86700000D01*
X160800000Y-86950000D02*
X161000000Y-87150000D01*
X165250000Y-91400000D02*
X165000000Y-91150000D01*
X161000000Y-87150000D02*
X165000000Y-91150000D01*
X169850000Y-93940000D02*
X168550000Y-95240000D01*
X167600000Y-91400000D02*
X169350000Y-91400000D01*
X169350000Y-91400000D02*
X169850000Y-91900000D01*
X169850000Y-91900000D02*
X169850000Y-93940000D01*
X167600000Y-91400000D02*
X165250000Y-91400000D01*
X160550000Y-86700000D02*
X160800000Y-86950000D01*
X145000000Y-91900000D02*
X139350000Y-86250000D01*
X139350000Y-86250000D02*
X139250000Y-86250000D01*
M02*
