G04 #@! TF.FileFunction,Legend,Top*
%FSLAX46Y46*%
G04 Gerber Fmt 4.6, Leading zero omitted, Abs format (unit mm)*
G04 Created by KiCad (PCBNEW 4.0.3-stable) date 10/17/16 14:31:28*
%MOMM*%
%LPD*%
G01*
G04 APERTURE LIST*
%ADD10C,0.100000*%
%ADD11C,0.300000*%
%ADD12C,0.200000*%
%ADD13C,0.150000*%
G04 APERTURE END LIST*
D10*
D11*
X115371429Y-111732143D02*
X116514286Y-111732143D01*
X115942857Y-112303571D02*
X115942857Y-111160714D01*
X117942858Y-110803571D02*
X117228572Y-110803571D01*
X117157143Y-111517857D01*
X117228572Y-111446429D01*
X117371429Y-111375000D01*
X117728572Y-111375000D01*
X117871429Y-111446429D01*
X117942858Y-111517857D01*
X118014286Y-111660714D01*
X118014286Y-112017857D01*
X117942858Y-112160714D01*
X117871429Y-112232143D01*
X117728572Y-112303571D01*
X117371429Y-112303571D01*
X117228572Y-112232143D01*
X117157143Y-112160714D01*
X118442857Y-110803571D02*
X118942857Y-112303571D01*
X119442857Y-110803571D01*
X116157143Y-113425000D02*
X116014286Y-113353571D01*
X115800000Y-113353571D01*
X115585715Y-113425000D01*
X115442857Y-113567857D01*
X115371429Y-113710714D01*
X115300000Y-113996429D01*
X115300000Y-114210714D01*
X115371429Y-114496429D01*
X115442857Y-114639286D01*
X115585715Y-114782143D01*
X115800000Y-114853571D01*
X115942857Y-114853571D01*
X116157143Y-114782143D01*
X116228572Y-114710714D01*
X116228572Y-114210714D01*
X115942857Y-114210714D01*
X116871429Y-114853571D02*
X116871429Y-113353571D01*
X117728572Y-114853571D01*
X117728572Y-113353571D01*
X118442858Y-114853571D02*
X118442858Y-113353571D01*
X118800001Y-113353571D01*
X119014286Y-113425000D01*
X119157144Y-113567857D01*
X119228572Y-113710714D01*
X119300001Y-113996429D01*
X119300001Y-114210714D01*
X119228572Y-114496429D01*
X119157144Y-114639286D01*
X119014286Y-114782143D01*
X118800001Y-114853571D01*
X118442858Y-114853571D01*
D12*
X191942857Y-121828571D02*
X191085714Y-121828571D01*
X191514286Y-121828571D02*
X191514286Y-120328571D01*
X191371429Y-120542857D01*
X191228571Y-120685714D01*
X191085714Y-120757143D01*
X193657142Y-120471429D02*
X193728571Y-120400000D01*
X193871428Y-120328571D01*
X194228571Y-120328571D01*
X194371428Y-120400000D01*
X194442857Y-120471429D01*
X194514285Y-120614286D01*
X194514285Y-120757143D01*
X194442857Y-120971429D01*
X193585714Y-121828571D01*
X194514285Y-121828571D01*
X196157142Y-120328571D02*
X197085713Y-120328571D01*
X196585713Y-120900000D01*
X196799999Y-120900000D01*
X196942856Y-120971429D01*
X197014285Y-121042857D01*
X197085713Y-121185714D01*
X197085713Y-121542857D01*
X197014285Y-121685714D01*
X196942856Y-121757143D01*
X196799999Y-121828571D01*
X196371427Y-121828571D01*
X196228570Y-121757143D01*
X196157142Y-121685714D01*
X199514284Y-120828571D02*
X199514284Y-121828571D01*
X199157141Y-120257143D02*
X198799998Y-121328571D01*
X199728570Y-121328571D01*
X116526190Y-116997619D02*
X116526190Y-117783333D01*
X116473810Y-117940476D01*
X116369048Y-118045238D01*
X116211905Y-118097619D01*
X116107143Y-118097619D01*
X117521428Y-117364286D02*
X117521428Y-118097619D01*
X117050000Y-117364286D02*
X117050000Y-117940476D01*
X117102381Y-118045238D01*
X117207143Y-118097619D01*
X117364285Y-118097619D01*
X117469047Y-118045238D01*
X117521428Y-117992857D01*
X118045238Y-118097619D02*
X118045238Y-117364286D01*
X118045238Y-117469048D02*
X118097619Y-117416667D01*
X118202381Y-117364286D01*
X118359523Y-117364286D01*
X118464285Y-117416667D01*
X118516666Y-117521429D01*
X118516666Y-118097619D01*
X118516666Y-117521429D02*
X118569047Y-117416667D01*
X118673809Y-117364286D01*
X118830952Y-117364286D01*
X118935714Y-117416667D01*
X118988095Y-117521429D01*
X118988095Y-118097619D01*
X119511905Y-117364286D02*
X119511905Y-118464286D01*
X119511905Y-117416667D02*
X119616667Y-117364286D01*
X119826190Y-117364286D01*
X119930952Y-117416667D01*
X119983333Y-117469048D01*
X120035714Y-117573810D01*
X120035714Y-117888095D01*
X119983333Y-117992857D01*
X119930952Y-118045238D01*
X119826190Y-118097619D01*
X119616667Y-118097619D01*
X119511905Y-118045238D01*
X120926190Y-118045238D02*
X120821428Y-118097619D01*
X120611905Y-118097619D01*
X120507143Y-118045238D01*
X120454762Y-117940476D01*
X120454762Y-117521429D01*
X120507143Y-117416667D01*
X120611905Y-117364286D01*
X120821428Y-117364286D01*
X120926190Y-117416667D01*
X120978571Y-117521429D01*
X120978571Y-117626190D01*
X120454762Y-117730952D01*
X121450000Y-118097619D02*
X121450000Y-117364286D01*
X121450000Y-117573810D02*
X121502381Y-117469048D01*
X121554762Y-117416667D01*
X121659524Y-117364286D01*
X121764285Y-117364286D01*
X122969047Y-117678571D02*
X123807142Y-117678571D01*
X124330952Y-117364286D02*
X125169047Y-117678571D01*
X124330952Y-117992857D01*
X116683333Y-119214286D02*
X116683333Y-119947619D01*
X116211905Y-119214286D02*
X116211905Y-119790476D01*
X116264286Y-119895238D01*
X116369048Y-119947619D01*
X116526190Y-119947619D01*
X116630952Y-119895238D01*
X116683333Y-119842857D01*
X117207143Y-119214286D02*
X117207143Y-119947619D01*
X117207143Y-119319048D02*
X117259524Y-119266667D01*
X117364286Y-119214286D01*
X117521428Y-119214286D01*
X117626190Y-119266667D01*
X117678571Y-119371429D01*
X117678571Y-119947619D01*
X118673809Y-119214286D02*
X118673809Y-119947619D01*
X118202381Y-119214286D02*
X118202381Y-119790476D01*
X118254762Y-119895238D01*
X118359524Y-119947619D01*
X118516666Y-119947619D01*
X118621428Y-119895238D01*
X118673809Y-119842857D01*
X119145238Y-119895238D02*
X119250000Y-119947619D01*
X119459524Y-119947619D01*
X119564285Y-119895238D01*
X119616666Y-119790476D01*
X119616666Y-119738095D01*
X119564285Y-119633333D01*
X119459524Y-119580952D01*
X119302381Y-119580952D01*
X119197619Y-119528571D01*
X119145238Y-119423810D01*
X119145238Y-119371429D01*
X119197619Y-119266667D01*
X119302381Y-119214286D01*
X119459524Y-119214286D01*
X119564285Y-119266667D01*
X120507142Y-119895238D02*
X120402380Y-119947619D01*
X120192857Y-119947619D01*
X120088095Y-119895238D01*
X120035714Y-119790476D01*
X120035714Y-119371429D01*
X120088095Y-119266667D01*
X120192857Y-119214286D01*
X120402380Y-119214286D01*
X120507142Y-119266667D01*
X120559523Y-119371429D01*
X120559523Y-119476190D01*
X120035714Y-119580952D01*
X121502380Y-119947619D02*
X121502380Y-118847619D01*
X121502380Y-119895238D02*
X121397618Y-119947619D01*
X121188095Y-119947619D01*
X121083333Y-119895238D01*
X121030952Y-119842857D01*
X120978571Y-119738095D01*
X120978571Y-119423810D01*
X121030952Y-119319048D01*
X121083333Y-119266667D01*
X121188095Y-119214286D01*
X121397618Y-119214286D01*
X121502380Y-119266667D01*
X116840476Y-121692857D02*
X116788095Y-121745238D01*
X116630952Y-121797619D01*
X116526190Y-121797619D01*
X116369048Y-121745238D01*
X116264286Y-121640476D01*
X116211905Y-121535714D01*
X116159524Y-121326190D01*
X116159524Y-121169048D01*
X116211905Y-120959524D01*
X116264286Y-120854762D01*
X116369048Y-120750000D01*
X116526190Y-120697619D01*
X116630952Y-120697619D01*
X116788095Y-120750000D01*
X116840476Y-120802381D01*
X117154762Y-120697619D02*
X117783333Y-120697619D01*
X117469048Y-121797619D02*
X117469048Y-120697619D01*
X118778571Y-121797619D02*
X118411905Y-121273810D01*
X118150000Y-121797619D02*
X118150000Y-120697619D01*
X118569047Y-120697619D01*
X118673809Y-120750000D01*
X118726190Y-120802381D01*
X118778571Y-120907143D01*
X118778571Y-121064286D01*
X118726190Y-121169048D01*
X118673809Y-121221429D01*
X118569047Y-121273810D01*
X118150000Y-121273810D01*
X119773809Y-121797619D02*
X119250000Y-121797619D01*
X119250000Y-120697619D01*
X121135714Y-121797619D02*
X121030952Y-121745238D01*
X120978571Y-121640476D01*
X120978571Y-120697619D01*
X121554761Y-121797619D02*
X121554761Y-121064286D01*
X121554761Y-120697619D02*
X121502380Y-120750000D01*
X121554761Y-120802381D01*
X121607142Y-120750000D01*
X121554761Y-120697619D01*
X121554761Y-120802381D01*
X122078571Y-121064286D02*
X122078571Y-121797619D01*
X122078571Y-121169048D02*
X122130952Y-121116667D01*
X122235714Y-121064286D01*
X122392856Y-121064286D01*
X122497618Y-121116667D01*
X122549999Y-121221429D01*
X122549999Y-121797619D01*
X123492856Y-121745238D02*
X123388094Y-121797619D01*
X123178571Y-121797619D01*
X123073809Y-121745238D01*
X123021428Y-121640476D01*
X123021428Y-121221429D01*
X123073809Y-121116667D01*
X123178571Y-121064286D01*
X123388094Y-121064286D01*
X123492856Y-121116667D01*
X123545237Y-121221429D01*
X123545237Y-121326190D01*
X123021428Y-121430952D01*
X123964285Y-121745238D02*
X124069047Y-121797619D01*
X124278571Y-121797619D01*
X124383332Y-121745238D01*
X124435713Y-121640476D01*
X124435713Y-121588095D01*
X124383332Y-121483333D01*
X124278571Y-121430952D01*
X124121428Y-121430952D01*
X124016666Y-121378571D01*
X123964285Y-121273810D01*
X123964285Y-121221429D01*
X124016666Y-121116667D01*
X124121428Y-121064286D01*
X124278571Y-121064286D01*
X124383332Y-121116667D01*
X125588094Y-121064286D02*
X126007142Y-121064286D01*
X125745237Y-120697619D02*
X125745237Y-121640476D01*
X125797618Y-121745238D01*
X125902380Y-121797619D01*
X126007142Y-121797619D01*
X126530951Y-121797619D02*
X126426189Y-121745238D01*
X126373808Y-121692857D01*
X126321427Y-121588095D01*
X126321427Y-121273810D01*
X126373808Y-121169048D01*
X126426189Y-121116667D01*
X126530951Y-121064286D01*
X126688093Y-121064286D01*
X126792855Y-121116667D01*
X126845236Y-121169048D01*
X126897617Y-121273810D01*
X126897617Y-121588095D01*
X126845236Y-121692857D01*
X126792855Y-121745238D01*
X126688093Y-121797619D01*
X126530951Y-121797619D01*
X128783331Y-120750000D02*
X128678569Y-120697619D01*
X128521426Y-120697619D01*
X128364284Y-120750000D01*
X128259522Y-120854762D01*
X128207141Y-120959524D01*
X128154760Y-121169048D01*
X128154760Y-121326190D01*
X128207141Y-121535714D01*
X128259522Y-121640476D01*
X128364284Y-121745238D01*
X128521426Y-121797619D01*
X128626188Y-121797619D01*
X128783331Y-121745238D01*
X128835712Y-121692857D01*
X128835712Y-121326190D01*
X128626188Y-121326190D01*
X129307141Y-121797619D02*
X129307141Y-120697619D01*
X129935712Y-121797619D01*
X129935712Y-120697619D01*
X130459522Y-121797619D02*
X130459522Y-120697619D01*
X130721427Y-120697619D01*
X130878569Y-120750000D01*
X130983331Y-120854762D01*
X131035712Y-120959524D01*
X131088093Y-121169048D01*
X131088093Y-121326190D01*
X131035712Y-121535714D01*
X130983331Y-121640476D01*
X130878569Y-121745238D01*
X130721427Y-121797619D01*
X130459522Y-121797619D01*
X132509524Y-111071429D02*
X132461905Y-111147619D01*
X132319048Y-111223810D01*
X132223810Y-111223810D01*
X132080952Y-111147619D01*
X131985714Y-110995238D01*
X131938095Y-110842857D01*
X131890476Y-110538095D01*
X131890476Y-110309524D01*
X131938095Y-110004762D01*
X131985714Y-109852381D01*
X132080952Y-109700000D01*
X132223810Y-109623810D01*
X132319048Y-109623810D01*
X132461905Y-109700000D01*
X132509524Y-109776190D01*
X132795238Y-109623810D02*
X133366667Y-109623810D01*
X133080952Y-111223810D02*
X133080952Y-109623810D01*
X134271429Y-111223810D02*
X133938095Y-110461905D01*
X133700000Y-111223810D02*
X133700000Y-109623810D01*
X134080953Y-109623810D01*
X134176191Y-109700000D01*
X134223810Y-109776190D01*
X134271429Y-109928571D01*
X134271429Y-110157143D01*
X134223810Y-110309524D01*
X134176191Y-110385714D01*
X134080953Y-110461905D01*
X133700000Y-110461905D01*
X135176191Y-111223810D02*
X134700000Y-111223810D01*
X134700000Y-109623810D01*
X136033334Y-111223810D02*
X135461905Y-111223810D01*
X135747619Y-111223810D02*
X135747619Y-109623810D01*
X135652381Y-109852381D01*
X135557143Y-110004762D01*
X135461905Y-110080952D01*
X132509524Y-113671429D02*
X132461905Y-113747619D01*
X132319048Y-113823810D01*
X132223810Y-113823810D01*
X132080952Y-113747619D01*
X131985714Y-113595238D01*
X131938095Y-113442857D01*
X131890476Y-113138095D01*
X131890476Y-112909524D01*
X131938095Y-112604762D01*
X131985714Y-112452381D01*
X132080952Y-112300000D01*
X132223810Y-112223810D01*
X132319048Y-112223810D01*
X132461905Y-112300000D01*
X132509524Y-112376190D01*
X132795238Y-112223810D02*
X133366667Y-112223810D01*
X133080952Y-113823810D02*
X133080952Y-112223810D01*
X134271429Y-113823810D02*
X133938095Y-113061905D01*
X133700000Y-113823810D02*
X133700000Y-112223810D01*
X134080953Y-112223810D01*
X134176191Y-112300000D01*
X134223810Y-112376190D01*
X134271429Y-112528571D01*
X134271429Y-112757143D01*
X134223810Y-112909524D01*
X134176191Y-112985714D01*
X134080953Y-113061905D01*
X133700000Y-113061905D01*
X135176191Y-113823810D02*
X134700000Y-113823810D01*
X134700000Y-112223810D01*
X135461905Y-112376190D02*
X135509524Y-112300000D01*
X135604762Y-112223810D01*
X135842858Y-112223810D01*
X135938096Y-112300000D01*
X135985715Y-112376190D01*
X136033334Y-112528571D01*
X136033334Y-112680952D01*
X135985715Y-112909524D01*
X135414286Y-113823810D01*
X136033334Y-113823810D01*
X132509524Y-116271429D02*
X132461905Y-116347619D01*
X132319048Y-116423810D01*
X132223810Y-116423810D01*
X132080952Y-116347619D01*
X131985714Y-116195238D01*
X131938095Y-116042857D01*
X131890476Y-115738095D01*
X131890476Y-115509524D01*
X131938095Y-115204762D01*
X131985714Y-115052381D01*
X132080952Y-114900000D01*
X132223810Y-114823810D01*
X132319048Y-114823810D01*
X132461905Y-114900000D01*
X132509524Y-114976190D01*
X132795238Y-114823810D02*
X133366667Y-114823810D01*
X133080952Y-116423810D02*
X133080952Y-114823810D01*
X134271429Y-116423810D02*
X133938095Y-115661905D01*
X133700000Y-116423810D02*
X133700000Y-114823810D01*
X134080953Y-114823810D01*
X134176191Y-114900000D01*
X134223810Y-114976190D01*
X134271429Y-115128571D01*
X134271429Y-115357143D01*
X134223810Y-115509524D01*
X134176191Y-115585714D01*
X134080953Y-115661905D01*
X133700000Y-115661905D01*
X135176191Y-116423810D02*
X134700000Y-116423810D01*
X134700000Y-114823810D01*
X135414286Y-114823810D02*
X136033334Y-114823810D01*
X135700000Y-115433333D01*
X135842858Y-115433333D01*
X135938096Y-115509524D01*
X135985715Y-115585714D01*
X136033334Y-115738095D01*
X136033334Y-116119048D01*
X135985715Y-116271429D01*
X135938096Y-116347619D01*
X135842858Y-116423810D01*
X135557143Y-116423810D01*
X135461905Y-116347619D01*
X135414286Y-116271429D01*
X132509524Y-118871429D02*
X132461905Y-118947619D01*
X132319048Y-119023810D01*
X132223810Y-119023810D01*
X132080952Y-118947619D01*
X131985714Y-118795238D01*
X131938095Y-118642857D01*
X131890476Y-118338095D01*
X131890476Y-118109524D01*
X131938095Y-117804762D01*
X131985714Y-117652381D01*
X132080952Y-117500000D01*
X132223810Y-117423810D01*
X132319048Y-117423810D01*
X132461905Y-117500000D01*
X132509524Y-117576190D01*
X132795238Y-117423810D02*
X133366667Y-117423810D01*
X133080952Y-119023810D02*
X133080952Y-117423810D01*
X134271429Y-119023810D02*
X133938095Y-118261905D01*
X133700000Y-119023810D02*
X133700000Y-117423810D01*
X134080953Y-117423810D01*
X134176191Y-117500000D01*
X134223810Y-117576190D01*
X134271429Y-117728571D01*
X134271429Y-117957143D01*
X134223810Y-118109524D01*
X134176191Y-118185714D01*
X134080953Y-118261905D01*
X133700000Y-118261905D01*
X135176191Y-119023810D02*
X134700000Y-119023810D01*
X134700000Y-117423810D01*
X135938096Y-117957143D02*
X135938096Y-119023810D01*
X135700000Y-117347619D02*
X135461905Y-118490476D01*
X136080953Y-118490476D01*
D11*
X170071429Y-67535714D02*
X170000000Y-67607143D01*
X169785714Y-67678571D01*
X169642857Y-67678571D01*
X169428572Y-67607143D01*
X169285714Y-67464286D01*
X169214286Y-67321429D01*
X169142857Y-67035714D01*
X169142857Y-66821429D01*
X169214286Y-66535714D01*
X169285714Y-66392857D01*
X169428572Y-66250000D01*
X169642857Y-66178571D01*
X169785714Y-66178571D01*
X170000000Y-66250000D01*
X170071429Y-66321429D01*
X171000000Y-66178571D02*
X171142857Y-66178571D01*
X171285714Y-66250000D01*
X171357143Y-66321429D01*
X171428572Y-66464286D01*
X171500000Y-66750000D01*
X171500000Y-67107143D01*
X171428572Y-67392857D01*
X171357143Y-67535714D01*
X171285714Y-67607143D01*
X171142857Y-67678571D01*
X171000000Y-67678571D01*
X170857143Y-67607143D01*
X170785714Y-67535714D01*
X170714286Y-67392857D01*
X170642857Y-67107143D01*
X170642857Y-66750000D01*
X170714286Y-66464286D01*
X170785714Y-66321429D01*
X170857143Y-66250000D01*
X171000000Y-66178571D01*
X172142857Y-66678571D02*
X173285714Y-67107143D01*
X172142857Y-67535714D01*
X112171429Y-67478571D02*
X111671429Y-66764286D01*
X111314286Y-67478571D02*
X111314286Y-65978571D01*
X111885714Y-65978571D01*
X112028572Y-66050000D01*
X112100000Y-66121429D01*
X112171429Y-66264286D01*
X112171429Y-66478571D01*
X112100000Y-66621429D01*
X112028572Y-66692857D01*
X111885714Y-66764286D01*
X111314286Y-66764286D01*
X113100000Y-65978571D02*
X113242857Y-65978571D01*
X113385714Y-66050000D01*
X113457143Y-66121429D01*
X113528572Y-66264286D01*
X113600000Y-66550000D01*
X113600000Y-66907143D01*
X113528572Y-67192857D01*
X113457143Y-67335714D01*
X113385714Y-67407143D01*
X113242857Y-67478571D01*
X113100000Y-67478571D01*
X112957143Y-67407143D01*
X112885714Y-67335714D01*
X112814286Y-67192857D01*
X112742857Y-66907143D01*
X112742857Y-66550000D01*
X112814286Y-66264286D01*
X112885714Y-66121429D01*
X112957143Y-66050000D01*
X113100000Y-65978571D01*
X114242857Y-66478571D02*
X115385714Y-66907143D01*
X114242857Y-67335714D01*
X203421430Y-99878571D02*
X204421430Y-99878571D01*
X203778573Y-101378571D01*
X205635715Y-100378571D02*
X205635715Y-101378571D01*
X205278572Y-99807143D02*
X204921429Y-100878571D01*
X205850001Y-100878571D01*
X207135715Y-101378571D02*
X206421429Y-101378571D01*
X206421429Y-99878571D01*
X207564286Y-101307143D02*
X207778572Y-101378571D01*
X208135715Y-101378571D01*
X208278572Y-101307143D01*
X208350001Y-101235714D01*
X208421429Y-101092857D01*
X208421429Y-100950000D01*
X208350001Y-100807143D01*
X208278572Y-100735714D01*
X208135715Y-100664286D01*
X207850001Y-100592857D01*
X207707143Y-100521429D01*
X207635715Y-100450000D01*
X207564286Y-100307143D01*
X207564286Y-100164286D01*
X207635715Y-100021429D01*
X207707143Y-99950000D01*
X207850001Y-99878571D01*
X208207143Y-99878571D01*
X208421429Y-99950000D01*
X209850000Y-101378571D02*
X208992857Y-101378571D01*
X209421429Y-101378571D02*
X209421429Y-99878571D01*
X209278572Y-100092857D01*
X209135714Y-100235714D01*
X208992857Y-100307143D01*
X210350000Y-99878571D02*
X211278571Y-99878571D01*
X210778571Y-100450000D01*
X210992857Y-100450000D01*
X211135714Y-100521429D01*
X211207143Y-100592857D01*
X211278571Y-100735714D01*
X211278571Y-101092857D01*
X211207143Y-101235714D01*
X211135714Y-101307143D01*
X210992857Y-101378571D01*
X210564285Y-101378571D01*
X210421428Y-101307143D01*
X210350000Y-101235714D01*
X212135714Y-100521429D02*
X211992856Y-100450000D01*
X211921428Y-100378571D01*
X211849999Y-100235714D01*
X211849999Y-100164286D01*
X211921428Y-100021429D01*
X211992856Y-99950000D01*
X212135714Y-99878571D01*
X212421428Y-99878571D01*
X212564285Y-99950000D01*
X212635714Y-100021429D01*
X212707142Y-100164286D01*
X212707142Y-100235714D01*
X212635714Y-100378571D01*
X212564285Y-100450000D01*
X212421428Y-100521429D01*
X212135714Y-100521429D01*
X211992856Y-100592857D01*
X211921428Y-100664286D01*
X211849999Y-100807143D01*
X211849999Y-101092857D01*
X211921428Y-101235714D01*
X211992856Y-101307143D01*
X212135714Y-101378571D01*
X212421428Y-101378571D01*
X212564285Y-101307143D01*
X212635714Y-101235714D01*
X212707142Y-101092857D01*
X212707142Y-100807143D01*
X212635714Y-100664286D01*
X212564285Y-100592857D01*
X212421428Y-100521429D01*
X174621430Y-99878571D02*
X175621430Y-99878571D01*
X174978573Y-101378571D01*
X176835715Y-100378571D02*
X176835715Y-101378571D01*
X176478572Y-99807143D02*
X176121429Y-100878571D01*
X177050001Y-100878571D01*
X178335715Y-101378571D02*
X177621429Y-101378571D01*
X177621429Y-99878571D01*
X178764286Y-101307143D02*
X178978572Y-101378571D01*
X179335715Y-101378571D01*
X179478572Y-101307143D01*
X179550001Y-101235714D01*
X179621429Y-101092857D01*
X179621429Y-100950000D01*
X179550001Y-100807143D01*
X179478572Y-100735714D01*
X179335715Y-100664286D01*
X179050001Y-100592857D01*
X178907143Y-100521429D01*
X178835715Y-100450000D01*
X178764286Y-100307143D01*
X178764286Y-100164286D01*
X178835715Y-100021429D01*
X178907143Y-99950000D01*
X179050001Y-99878571D01*
X179407143Y-99878571D01*
X179621429Y-99950000D01*
X181050000Y-101378571D02*
X180192857Y-101378571D01*
X180621429Y-101378571D02*
X180621429Y-99878571D01*
X180478572Y-100092857D01*
X180335714Y-100235714D01*
X180192857Y-100307143D01*
X181550000Y-99878571D02*
X182478571Y-99878571D01*
X181978571Y-100450000D01*
X182192857Y-100450000D01*
X182335714Y-100521429D01*
X182407143Y-100592857D01*
X182478571Y-100735714D01*
X182478571Y-101092857D01*
X182407143Y-101235714D01*
X182335714Y-101307143D01*
X182192857Y-101378571D01*
X181764285Y-101378571D01*
X181621428Y-101307143D01*
X181550000Y-101235714D01*
X183335714Y-100521429D02*
X183192856Y-100450000D01*
X183121428Y-100378571D01*
X183049999Y-100235714D01*
X183049999Y-100164286D01*
X183121428Y-100021429D01*
X183192856Y-99950000D01*
X183335714Y-99878571D01*
X183621428Y-99878571D01*
X183764285Y-99950000D01*
X183835714Y-100021429D01*
X183907142Y-100164286D01*
X183907142Y-100235714D01*
X183835714Y-100378571D01*
X183764285Y-100450000D01*
X183621428Y-100521429D01*
X183335714Y-100521429D01*
X183192856Y-100592857D01*
X183121428Y-100664286D01*
X183049999Y-100807143D01*
X183049999Y-101092857D01*
X183121428Y-101235714D01*
X183192856Y-101307143D01*
X183335714Y-101378571D01*
X183621428Y-101378571D01*
X183764285Y-101307143D01*
X183835714Y-101235714D01*
X183907142Y-101092857D01*
X183907142Y-100807143D01*
X183835714Y-100664286D01*
X183764285Y-100592857D01*
X183621428Y-100521429D01*
X146021430Y-99578571D02*
X147021430Y-99578571D01*
X146378573Y-101078571D01*
X148235715Y-100078571D02*
X148235715Y-101078571D01*
X147878572Y-99507143D02*
X147521429Y-100578571D01*
X148450001Y-100578571D01*
X149735715Y-101078571D02*
X149021429Y-101078571D01*
X149021429Y-99578571D01*
X150164286Y-101007143D02*
X150378572Y-101078571D01*
X150735715Y-101078571D01*
X150878572Y-101007143D01*
X150950001Y-100935714D01*
X151021429Y-100792857D01*
X151021429Y-100650000D01*
X150950001Y-100507143D01*
X150878572Y-100435714D01*
X150735715Y-100364286D01*
X150450001Y-100292857D01*
X150307143Y-100221429D01*
X150235715Y-100150000D01*
X150164286Y-100007143D01*
X150164286Y-99864286D01*
X150235715Y-99721429D01*
X150307143Y-99650000D01*
X150450001Y-99578571D01*
X150807143Y-99578571D01*
X151021429Y-99650000D01*
X152450000Y-101078571D02*
X151592857Y-101078571D01*
X152021429Y-101078571D02*
X152021429Y-99578571D01*
X151878572Y-99792857D01*
X151735714Y-99935714D01*
X151592857Y-100007143D01*
X152950000Y-99578571D02*
X153878571Y-99578571D01*
X153378571Y-100150000D01*
X153592857Y-100150000D01*
X153735714Y-100221429D01*
X153807143Y-100292857D01*
X153878571Y-100435714D01*
X153878571Y-100792857D01*
X153807143Y-100935714D01*
X153735714Y-101007143D01*
X153592857Y-101078571D01*
X153164285Y-101078571D01*
X153021428Y-101007143D01*
X152950000Y-100935714D01*
X154735714Y-100221429D02*
X154592856Y-100150000D01*
X154521428Y-100078571D01*
X154449999Y-99935714D01*
X154449999Y-99864286D01*
X154521428Y-99721429D01*
X154592856Y-99650000D01*
X154735714Y-99578571D01*
X155021428Y-99578571D01*
X155164285Y-99650000D01*
X155235714Y-99721429D01*
X155307142Y-99864286D01*
X155307142Y-99935714D01*
X155235714Y-100078571D01*
X155164285Y-100150000D01*
X155021428Y-100221429D01*
X154735714Y-100221429D01*
X154592856Y-100292857D01*
X154521428Y-100364286D01*
X154449999Y-100507143D01*
X154449999Y-100792857D01*
X154521428Y-100935714D01*
X154592856Y-101007143D01*
X154735714Y-101078571D01*
X155021428Y-101078571D01*
X155164285Y-101007143D01*
X155235714Y-100935714D01*
X155307142Y-100792857D01*
X155307142Y-100507143D01*
X155235714Y-100364286D01*
X155164285Y-100292857D01*
X155021428Y-100221429D01*
X117221430Y-99978571D02*
X118221430Y-99978571D01*
X117578573Y-101478571D01*
X119435715Y-100478571D02*
X119435715Y-101478571D01*
X119078572Y-99907143D02*
X118721429Y-100978571D01*
X119650001Y-100978571D01*
X120935715Y-101478571D02*
X120221429Y-101478571D01*
X120221429Y-99978571D01*
X121364286Y-101407143D02*
X121578572Y-101478571D01*
X121935715Y-101478571D01*
X122078572Y-101407143D01*
X122150001Y-101335714D01*
X122221429Y-101192857D01*
X122221429Y-101050000D01*
X122150001Y-100907143D01*
X122078572Y-100835714D01*
X121935715Y-100764286D01*
X121650001Y-100692857D01*
X121507143Y-100621429D01*
X121435715Y-100550000D01*
X121364286Y-100407143D01*
X121364286Y-100264286D01*
X121435715Y-100121429D01*
X121507143Y-100050000D01*
X121650001Y-99978571D01*
X122007143Y-99978571D01*
X122221429Y-100050000D01*
X123650000Y-101478571D02*
X122792857Y-101478571D01*
X123221429Y-101478571D02*
X123221429Y-99978571D01*
X123078572Y-100192857D01*
X122935714Y-100335714D01*
X122792857Y-100407143D01*
X124150000Y-99978571D02*
X125078571Y-99978571D01*
X124578571Y-100550000D01*
X124792857Y-100550000D01*
X124935714Y-100621429D01*
X125007143Y-100692857D01*
X125078571Y-100835714D01*
X125078571Y-101192857D01*
X125007143Y-101335714D01*
X124935714Y-101407143D01*
X124792857Y-101478571D01*
X124364285Y-101478571D01*
X124221428Y-101407143D01*
X124150000Y-101335714D01*
X125935714Y-100621429D02*
X125792856Y-100550000D01*
X125721428Y-100478571D01*
X125649999Y-100335714D01*
X125649999Y-100264286D01*
X125721428Y-100121429D01*
X125792856Y-100050000D01*
X125935714Y-99978571D01*
X126221428Y-99978571D01*
X126364285Y-100050000D01*
X126435714Y-100121429D01*
X126507142Y-100264286D01*
X126507142Y-100335714D01*
X126435714Y-100478571D01*
X126364285Y-100550000D01*
X126221428Y-100621429D01*
X125935714Y-100621429D01*
X125792856Y-100692857D01*
X125721428Y-100764286D01*
X125649999Y-100907143D01*
X125649999Y-101192857D01*
X125721428Y-101335714D01*
X125792856Y-101407143D01*
X125935714Y-101478571D01*
X126221428Y-101478571D01*
X126364285Y-101407143D01*
X126435714Y-101335714D01*
X126507142Y-101192857D01*
X126507142Y-100907143D01*
X126435714Y-100764286D01*
X126364285Y-100692857D01*
X126221428Y-100621429D01*
X205921430Y-88378571D02*
X206921430Y-88378571D01*
X206278573Y-89878571D01*
X208135715Y-88878571D02*
X208135715Y-89878571D01*
X207778572Y-88307143D02*
X207421429Y-89378571D01*
X208350001Y-89378571D01*
X209635715Y-89878571D02*
X208921429Y-89878571D01*
X208921429Y-88378571D01*
X210064286Y-89807143D02*
X210278572Y-89878571D01*
X210635715Y-89878571D01*
X210778572Y-89807143D01*
X210850001Y-89735714D01*
X210921429Y-89592857D01*
X210921429Y-89450000D01*
X210850001Y-89307143D01*
X210778572Y-89235714D01*
X210635715Y-89164286D01*
X210350001Y-89092857D01*
X210207143Y-89021429D01*
X210135715Y-88950000D01*
X210064286Y-88807143D01*
X210064286Y-88664286D01*
X210135715Y-88521429D01*
X210207143Y-88450000D01*
X210350001Y-88378571D01*
X210707143Y-88378571D01*
X210921429Y-88450000D01*
X212278572Y-88378571D02*
X211564286Y-88378571D01*
X211492857Y-89092857D01*
X211564286Y-89021429D01*
X211707143Y-88950000D01*
X212064286Y-88950000D01*
X212207143Y-89021429D01*
X212278572Y-89092857D01*
X212350000Y-89235714D01*
X212350000Y-89592857D01*
X212278572Y-89735714D01*
X212207143Y-89807143D01*
X212064286Y-89878571D01*
X211707143Y-89878571D01*
X211564286Y-89807143D01*
X211492857Y-89735714D01*
X213635714Y-88878571D02*
X213635714Y-89878571D01*
X213278571Y-88307143D02*
X212921428Y-89378571D01*
X213850000Y-89378571D01*
X215207142Y-89878571D02*
X214349999Y-89878571D01*
X214778571Y-89878571D02*
X214778571Y-88378571D01*
X214635714Y-88592857D01*
X214492856Y-88735714D01*
X214349999Y-88807143D01*
X177021430Y-88278571D02*
X178021430Y-88278571D01*
X177378573Y-89778571D01*
X179235715Y-88778571D02*
X179235715Y-89778571D01*
X178878572Y-88207143D02*
X178521429Y-89278571D01*
X179450001Y-89278571D01*
X180735715Y-89778571D02*
X180021429Y-89778571D01*
X180021429Y-88278571D01*
X181164286Y-89707143D02*
X181378572Y-89778571D01*
X181735715Y-89778571D01*
X181878572Y-89707143D01*
X181950001Y-89635714D01*
X182021429Y-89492857D01*
X182021429Y-89350000D01*
X181950001Y-89207143D01*
X181878572Y-89135714D01*
X181735715Y-89064286D01*
X181450001Y-88992857D01*
X181307143Y-88921429D01*
X181235715Y-88850000D01*
X181164286Y-88707143D01*
X181164286Y-88564286D01*
X181235715Y-88421429D01*
X181307143Y-88350000D01*
X181450001Y-88278571D01*
X181807143Y-88278571D01*
X182021429Y-88350000D01*
X183378572Y-88278571D02*
X182664286Y-88278571D01*
X182592857Y-88992857D01*
X182664286Y-88921429D01*
X182807143Y-88850000D01*
X183164286Y-88850000D01*
X183307143Y-88921429D01*
X183378572Y-88992857D01*
X183450000Y-89135714D01*
X183450000Y-89492857D01*
X183378572Y-89635714D01*
X183307143Y-89707143D01*
X183164286Y-89778571D01*
X182807143Y-89778571D01*
X182664286Y-89707143D01*
X182592857Y-89635714D01*
X184735714Y-88778571D02*
X184735714Y-89778571D01*
X184378571Y-88207143D02*
X184021428Y-89278571D01*
X184950000Y-89278571D01*
X186307142Y-89778571D02*
X185449999Y-89778571D01*
X185878571Y-89778571D02*
X185878571Y-88278571D01*
X185735714Y-88492857D01*
X185592856Y-88635714D01*
X185449999Y-88707143D01*
X148521430Y-88078571D02*
X149521430Y-88078571D01*
X148878573Y-89578571D01*
X150735715Y-88578571D02*
X150735715Y-89578571D01*
X150378572Y-88007143D02*
X150021429Y-89078571D01*
X150950001Y-89078571D01*
X152235715Y-89578571D02*
X151521429Y-89578571D01*
X151521429Y-88078571D01*
X152664286Y-89507143D02*
X152878572Y-89578571D01*
X153235715Y-89578571D01*
X153378572Y-89507143D01*
X153450001Y-89435714D01*
X153521429Y-89292857D01*
X153521429Y-89150000D01*
X153450001Y-89007143D01*
X153378572Y-88935714D01*
X153235715Y-88864286D01*
X152950001Y-88792857D01*
X152807143Y-88721429D01*
X152735715Y-88650000D01*
X152664286Y-88507143D01*
X152664286Y-88364286D01*
X152735715Y-88221429D01*
X152807143Y-88150000D01*
X152950001Y-88078571D01*
X153307143Y-88078571D01*
X153521429Y-88150000D01*
X154878572Y-88078571D02*
X154164286Y-88078571D01*
X154092857Y-88792857D01*
X154164286Y-88721429D01*
X154307143Y-88650000D01*
X154664286Y-88650000D01*
X154807143Y-88721429D01*
X154878572Y-88792857D01*
X154950000Y-88935714D01*
X154950000Y-89292857D01*
X154878572Y-89435714D01*
X154807143Y-89507143D01*
X154664286Y-89578571D01*
X154307143Y-89578571D01*
X154164286Y-89507143D01*
X154092857Y-89435714D01*
X156235714Y-88578571D02*
X156235714Y-89578571D01*
X155878571Y-88007143D02*
X155521428Y-89078571D01*
X156450000Y-89078571D01*
X157307142Y-88078571D02*
X157449999Y-88078571D01*
X157592856Y-88150000D01*
X157664285Y-88221429D01*
X157735714Y-88364286D01*
X157807142Y-88650000D01*
X157807142Y-89007143D01*
X157735714Y-89292857D01*
X157664285Y-89435714D01*
X157592856Y-89507143D01*
X157449999Y-89578571D01*
X157307142Y-89578571D01*
X157164285Y-89507143D01*
X157092856Y-89435714D01*
X157021428Y-89292857D01*
X156949999Y-89007143D01*
X156949999Y-88650000D01*
X157021428Y-88364286D01*
X157092856Y-88221429D01*
X157164285Y-88150000D01*
X157307142Y-88078571D01*
X119221430Y-88378571D02*
X120221430Y-88378571D01*
X119578573Y-89878571D01*
X121435715Y-88878571D02*
X121435715Y-89878571D01*
X121078572Y-88307143D02*
X120721429Y-89378571D01*
X121650001Y-89378571D01*
X122935715Y-89878571D02*
X122221429Y-89878571D01*
X122221429Y-88378571D01*
X123364286Y-89807143D02*
X123578572Y-89878571D01*
X123935715Y-89878571D01*
X124078572Y-89807143D01*
X124150001Y-89735714D01*
X124221429Y-89592857D01*
X124221429Y-89450000D01*
X124150001Y-89307143D01*
X124078572Y-89235714D01*
X123935715Y-89164286D01*
X123650001Y-89092857D01*
X123507143Y-89021429D01*
X123435715Y-88950000D01*
X123364286Y-88807143D01*
X123364286Y-88664286D01*
X123435715Y-88521429D01*
X123507143Y-88450000D01*
X123650001Y-88378571D01*
X124007143Y-88378571D01*
X124221429Y-88450000D01*
X125578572Y-88378571D02*
X124864286Y-88378571D01*
X124792857Y-89092857D01*
X124864286Y-89021429D01*
X125007143Y-88950000D01*
X125364286Y-88950000D01*
X125507143Y-89021429D01*
X125578572Y-89092857D01*
X125650000Y-89235714D01*
X125650000Y-89592857D01*
X125578572Y-89735714D01*
X125507143Y-89807143D01*
X125364286Y-89878571D01*
X125007143Y-89878571D01*
X124864286Y-89807143D01*
X124792857Y-89735714D01*
X126935714Y-88878571D02*
X126935714Y-89878571D01*
X126578571Y-88307143D02*
X126221428Y-89378571D01*
X127150000Y-89378571D01*
X128007142Y-88378571D02*
X128149999Y-88378571D01*
X128292856Y-88450000D01*
X128364285Y-88521429D01*
X128435714Y-88664286D01*
X128507142Y-88950000D01*
X128507142Y-89307143D01*
X128435714Y-89592857D01*
X128364285Y-89735714D01*
X128292856Y-89807143D01*
X128149999Y-89878571D01*
X128007142Y-89878571D01*
X127864285Y-89807143D01*
X127792856Y-89735714D01*
X127721428Y-89592857D01*
X127649999Y-89307143D01*
X127649999Y-88950000D01*
X127721428Y-88664286D01*
X127792856Y-88521429D01*
X127864285Y-88450000D01*
X128007142Y-88378571D01*
D12*
X121454760Y-80252381D02*
X121692855Y-81252381D01*
X121883332Y-80538095D01*
X122073808Y-81252381D01*
X122311903Y-80252381D01*
X122692855Y-81252381D02*
X122692855Y-80585714D01*
X122692855Y-80252381D02*
X122645236Y-80300000D01*
X122692855Y-80347619D01*
X122740474Y-80300000D01*
X122692855Y-80252381D01*
X122692855Y-80347619D01*
X123026188Y-80585714D02*
X123407140Y-80585714D01*
X123169045Y-80252381D02*
X123169045Y-81109524D01*
X123216664Y-81204762D01*
X123311902Y-81252381D01*
X123407140Y-81252381D01*
X123740474Y-81252381D02*
X123740474Y-80252381D01*
X124169046Y-81252381D02*
X124169046Y-80728571D01*
X124121427Y-80633333D01*
X124026189Y-80585714D01*
X123883331Y-80585714D01*
X123788093Y-80633333D01*
X123740474Y-80680952D01*
X125264284Y-80585714D02*
X125645236Y-80585714D01*
X125407141Y-80252381D02*
X125407141Y-81109524D01*
X125454760Y-81204762D01*
X125549998Y-81252381D01*
X125645236Y-81252381D01*
X125978570Y-81252381D02*
X125978570Y-80252381D01*
X126407142Y-81252381D02*
X126407142Y-80728571D01*
X126359523Y-80633333D01*
X126264285Y-80585714D01*
X126121427Y-80585714D01*
X126026189Y-80633333D01*
X125978570Y-80680952D01*
X127311904Y-81252381D02*
X127311904Y-80728571D01*
X127264285Y-80633333D01*
X127169047Y-80585714D01*
X126978570Y-80585714D01*
X126883332Y-80633333D01*
X127311904Y-81204762D02*
X127216666Y-81252381D01*
X126978570Y-81252381D01*
X126883332Y-81204762D01*
X126835713Y-81109524D01*
X126835713Y-81014286D01*
X126883332Y-80919048D01*
X126978570Y-80871429D01*
X127216666Y-80871429D01*
X127311904Y-80823810D01*
X127788094Y-80585714D02*
X127788094Y-81252381D01*
X127788094Y-80680952D02*
X127835713Y-80633333D01*
X127930951Y-80585714D01*
X128073809Y-80585714D01*
X128169047Y-80633333D01*
X128216666Y-80728571D01*
X128216666Y-81252381D01*
X128692856Y-81252381D02*
X128692856Y-80252381D01*
X128788094Y-80871429D02*
X129073809Y-81252381D01*
X129073809Y-80585714D02*
X128692856Y-80966667D01*
X129454761Y-81204762D02*
X129549999Y-81252381D01*
X129740475Y-81252381D01*
X129835714Y-81204762D01*
X129883333Y-81109524D01*
X129883333Y-81061905D01*
X129835714Y-80966667D01*
X129740475Y-80919048D01*
X129597618Y-80919048D01*
X129502380Y-80871429D01*
X129454761Y-80776190D01*
X129454761Y-80728571D01*
X129502380Y-80633333D01*
X129597618Y-80585714D01*
X129740475Y-80585714D01*
X129835714Y-80633333D01*
X130930952Y-80585714D02*
X131311904Y-80585714D01*
X131073809Y-81252381D02*
X131073809Y-80395238D01*
X131121428Y-80300000D01*
X131216666Y-80252381D01*
X131311904Y-80252381D01*
X131788095Y-81252381D02*
X131692857Y-81204762D01*
X131645238Y-81157143D01*
X131597619Y-81061905D01*
X131597619Y-80776190D01*
X131645238Y-80680952D01*
X131692857Y-80633333D01*
X131788095Y-80585714D01*
X131930953Y-80585714D01*
X132026191Y-80633333D01*
X132073810Y-80680952D01*
X132121429Y-80776190D01*
X132121429Y-81061905D01*
X132073810Y-81157143D01*
X132026191Y-81204762D01*
X131930953Y-81252381D01*
X131788095Y-81252381D01*
X132550000Y-81252381D02*
X132550000Y-80585714D01*
X132550000Y-80776190D02*
X132597619Y-80680952D01*
X132645238Y-80633333D01*
X132740476Y-80585714D01*
X132835715Y-80585714D01*
X133930953Y-81252381D02*
X133930953Y-80252381D01*
X134407143Y-80585714D02*
X134407143Y-81252381D01*
X134407143Y-80680952D02*
X134454762Y-80633333D01*
X134550000Y-80585714D01*
X134692858Y-80585714D01*
X134788096Y-80633333D01*
X134835715Y-80728571D01*
X134835715Y-81252381D01*
X135264286Y-81204762D02*
X135359524Y-81252381D01*
X135550000Y-81252381D01*
X135645239Y-81204762D01*
X135692858Y-81109524D01*
X135692858Y-81061905D01*
X135645239Y-80966667D01*
X135550000Y-80919048D01*
X135407143Y-80919048D01*
X135311905Y-80871429D01*
X135264286Y-80776190D01*
X135264286Y-80728571D01*
X135311905Y-80633333D01*
X135407143Y-80585714D01*
X135550000Y-80585714D01*
X135645239Y-80633333D01*
X136121429Y-80585714D02*
X136121429Y-81585714D01*
X136121429Y-80633333D02*
X136216667Y-80585714D01*
X136407144Y-80585714D01*
X136502382Y-80633333D01*
X136550001Y-80680952D01*
X136597620Y-80776190D01*
X136597620Y-81061905D01*
X136550001Y-81157143D01*
X136502382Y-81204762D01*
X136407144Y-81252381D01*
X136216667Y-81252381D01*
X136121429Y-81204762D01*
X137026191Y-81252381D02*
X137026191Y-80585714D01*
X137026191Y-80252381D02*
X136978572Y-80300000D01*
X137026191Y-80347619D01*
X137073810Y-80300000D01*
X137026191Y-80252381D01*
X137026191Y-80347619D01*
X137502381Y-81252381D02*
X137502381Y-80585714D01*
X137502381Y-80776190D02*
X137550000Y-80680952D01*
X137597619Y-80633333D01*
X137692857Y-80585714D01*
X137788096Y-80585714D01*
X138550001Y-81252381D02*
X138550001Y-80728571D01*
X138502382Y-80633333D01*
X138407144Y-80585714D01*
X138216667Y-80585714D01*
X138121429Y-80633333D01*
X138550001Y-81204762D02*
X138454763Y-81252381D01*
X138216667Y-81252381D01*
X138121429Y-81204762D01*
X138073810Y-81109524D01*
X138073810Y-81014286D01*
X138121429Y-80919048D01*
X138216667Y-80871429D01*
X138454763Y-80871429D01*
X138550001Y-80823810D01*
X138883334Y-80585714D02*
X139264286Y-80585714D01*
X139026191Y-80252381D02*
X139026191Y-81109524D01*
X139073810Y-81204762D01*
X139169048Y-81252381D01*
X139264286Y-81252381D01*
X139597620Y-81252381D02*
X139597620Y-80585714D01*
X139597620Y-80252381D02*
X139550001Y-80300000D01*
X139597620Y-80347619D01*
X139645239Y-80300000D01*
X139597620Y-80252381D01*
X139597620Y-80347619D01*
X140216667Y-81252381D02*
X140121429Y-81204762D01*
X140073810Y-81157143D01*
X140026191Y-81061905D01*
X140026191Y-80776190D01*
X140073810Y-80680952D01*
X140121429Y-80633333D01*
X140216667Y-80585714D01*
X140359525Y-80585714D01*
X140454763Y-80633333D01*
X140502382Y-80680952D01*
X140550001Y-80776190D01*
X140550001Y-81061905D01*
X140502382Y-81157143D01*
X140454763Y-81204762D01*
X140359525Y-81252381D01*
X140216667Y-81252381D01*
X140978572Y-80585714D02*
X140978572Y-81252381D01*
X140978572Y-80680952D02*
X141026191Y-80633333D01*
X141121429Y-80585714D01*
X141264287Y-80585714D01*
X141359525Y-80633333D01*
X141407144Y-80728571D01*
X141407144Y-81252381D01*
X142645239Y-81252381D02*
X142645239Y-80252381D01*
X142645239Y-80633333D02*
X142740477Y-80585714D01*
X142930954Y-80585714D01*
X143026192Y-80633333D01*
X143073811Y-80680952D01*
X143121430Y-80776190D01*
X143121430Y-81061905D01*
X143073811Y-81157143D01*
X143026192Y-81204762D01*
X142930954Y-81252381D01*
X142740477Y-81252381D01*
X142645239Y-81204762D01*
X143454763Y-80585714D02*
X143692858Y-81252381D01*
X143930954Y-80585714D02*
X143692858Y-81252381D01*
X143597620Y-81490476D01*
X143550001Y-81538095D01*
X143454763Y-81585714D01*
X145550002Y-81252381D02*
X145073811Y-81252381D01*
X145073811Y-80252381D01*
X146264288Y-81204762D02*
X146169050Y-81252381D01*
X145978573Y-81252381D01*
X145883335Y-81204762D01*
X145835716Y-81109524D01*
X145835716Y-80728571D01*
X145883335Y-80633333D01*
X145978573Y-80585714D01*
X146169050Y-80585714D01*
X146264288Y-80633333D01*
X146311907Y-80728571D01*
X146311907Y-80823810D01*
X145835716Y-80919048D01*
X146740478Y-81252381D02*
X146740478Y-80585714D01*
X146740478Y-80252381D02*
X146692859Y-80300000D01*
X146740478Y-80347619D01*
X146788097Y-80300000D01*
X146740478Y-80252381D01*
X146740478Y-80347619D01*
X147073811Y-80585714D02*
X147454763Y-80585714D01*
X147216668Y-81252381D02*
X147216668Y-80395238D01*
X147264287Y-80300000D01*
X147359525Y-80252381D01*
X147454763Y-80252381D01*
X147835716Y-81204762D02*
X147835716Y-81252381D01*
X147788097Y-81347619D01*
X147740478Y-81395238D01*
X149454764Y-81252381D02*
X149454764Y-80728571D01*
X149407145Y-80633333D01*
X149311907Y-80585714D01*
X149121430Y-80585714D01*
X149026192Y-80633333D01*
X149454764Y-81204762D02*
X149359526Y-81252381D01*
X149121430Y-81252381D01*
X149026192Y-81204762D01*
X148978573Y-81109524D01*
X148978573Y-81014286D01*
X149026192Y-80919048D01*
X149121430Y-80871429D01*
X149359526Y-80871429D01*
X149454764Y-80823810D01*
X149930954Y-80585714D02*
X149930954Y-81252381D01*
X149930954Y-80680952D02*
X149978573Y-80633333D01*
X150073811Y-80585714D01*
X150216669Y-80585714D01*
X150311907Y-80633333D01*
X150359526Y-80728571D01*
X150359526Y-81252381D01*
X151264288Y-81252381D02*
X151264288Y-80252381D01*
X151264288Y-81204762D02*
X151169050Y-81252381D01*
X150978573Y-81252381D01*
X150883335Y-81204762D01*
X150835716Y-81157143D01*
X150788097Y-81061905D01*
X150788097Y-80776190D01*
X150835716Y-80680952D01*
X150883335Y-80633333D01*
X150978573Y-80585714D01*
X151169050Y-80585714D01*
X151264288Y-80633333D01*
X152930955Y-81204762D02*
X152835717Y-81252381D01*
X152645240Y-81252381D01*
X152550002Y-81204762D01*
X152502383Y-81157143D01*
X152454764Y-81061905D01*
X152454764Y-80776190D01*
X152502383Y-80680952D01*
X152550002Y-80633333D01*
X152645240Y-80585714D01*
X152835717Y-80585714D01*
X152930955Y-80633333D01*
X153359526Y-81252381D02*
X153359526Y-80585714D01*
X153359526Y-80252381D02*
X153311907Y-80300000D01*
X153359526Y-80347619D01*
X153407145Y-80300000D01*
X153359526Y-80252381D01*
X153359526Y-80347619D01*
X153835716Y-81252381D02*
X153835716Y-80585714D01*
X153835716Y-80776190D02*
X153883335Y-80680952D01*
X153930954Y-80633333D01*
X154026192Y-80585714D01*
X154121431Y-80585714D01*
X154883336Y-81204762D02*
X154788098Y-81252381D01*
X154597621Y-81252381D01*
X154502383Y-81204762D01*
X154454764Y-81157143D01*
X154407145Y-81061905D01*
X154407145Y-80776190D01*
X154454764Y-80680952D01*
X154502383Y-80633333D01*
X154597621Y-80585714D01*
X154788098Y-80585714D01*
X154883336Y-80633333D01*
X155740479Y-80585714D02*
X155740479Y-81252381D01*
X155311907Y-80585714D02*
X155311907Y-81109524D01*
X155359526Y-81204762D01*
X155454764Y-81252381D01*
X155597622Y-81252381D01*
X155692860Y-81204762D01*
X155740479Y-81157143D01*
X156216669Y-81252381D02*
X156216669Y-80585714D01*
X156216669Y-80252381D02*
X156169050Y-80300000D01*
X156216669Y-80347619D01*
X156264288Y-80300000D01*
X156216669Y-80252381D01*
X156216669Y-80347619D01*
X156550002Y-80585714D02*
X156930954Y-80585714D01*
X156692859Y-80252381D02*
X156692859Y-81109524D01*
X156740478Y-81204762D01*
X156835716Y-81252381D01*
X156930954Y-81252381D01*
X158026193Y-81252381D02*
X158026193Y-80252381D01*
X158026193Y-80633333D02*
X158121431Y-80585714D01*
X158311908Y-80585714D01*
X158407146Y-80633333D01*
X158454765Y-80680952D01*
X158502384Y-80776190D01*
X158502384Y-81061905D01*
X158454765Y-81157143D01*
X158407146Y-81204762D01*
X158311908Y-81252381D01*
X158121431Y-81252381D01*
X158026193Y-81204762D01*
X158835717Y-80585714D02*
X159073812Y-81252381D01*
X159311908Y-80585714D02*
X159073812Y-81252381D01*
X158978574Y-81490476D01*
X158930955Y-81538095D01*
X158835717Y-81585714D01*
X160740480Y-80252381D02*
X160740480Y-80966667D01*
X160692860Y-81109524D01*
X160597622Y-81204762D01*
X160454765Y-81252381D01*
X160359527Y-81252381D01*
X161216670Y-81252381D02*
X161216670Y-80585714D01*
X161216670Y-80252381D02*
X161169051Y-80300000D01*
X161216670Y-80347619D01*
X161264289Y-80300000D01*
X161216670Y-80252381D01*
X161216670Y-80347619D01*
X161692860Y-81252381D02*
X161692860Y-80585714D01*
X161692860Y-80680952D02*
X161740479Y-80633333D01*
X161835717Y-80585714D01*
X161978575Y-80585714D01*
X162073813Y-80633333D01*
X162121432Y-80728571D01*
X162121432Y-81252381D01*
X162121432Y-80728571D02*
X162169051Y-80633333D01*
X162264289Y-80585714D01*
X162407146Y-80585714D01*
X162502384Y-80633333D01*
X162550003Y-80728571D01*
X162550003Y-81252381D01*
D11*
X198721429Y-67535714D02*
X198650000Y-67607143D01*
X198435714Y-67678571D01*
X198292857Y-67678571D01*
X198078572Y-67607143D01*
X197935714Y-67464286D01*
X197864286Y-67321429D01*
X197792857Y-67035714D01*
X197792857Y-66821429D01*
X197864286Y-66535714D01*
X197935714Y-66392857D01*
X198078572Y-66250000D01*
X198292857Y-66178571D01*
X198435714Y-66178571D01*
X198650000Y-66250000D01*
X198721429Y-66321429D01*
X199578572Y-66821429D02*
X199435714Y-66750000D01*
X199364286Y-66678571D01*
X199292857Y-66535714D01*
X199292857Y-66464286D01*
X199364286Y-66321429D01*
X199435714Y-66250000D01*
X199578572Y-66178571D01*
X199864286Y-66178571D01*
X200007143Y-66250000D01*
X200078572Y-66321429D01*
X200150000Y-66464286D01*
X200150000Y-66535714D01*
X200078572Y-66678571D01*
X200007143Y-66750000D01*
X199864286Y-66821429D01*
X199578572Y-66821429D01*
X199435714Y-66892857D01*
X199364286Y-66964286D01*
X199292857Y-67107143D01*
X199292857Y-67392857D01*
X199364286Y-67535714D01*
X199435714Y-67607143D01*
X199578572Y-67678571D01*
X199864286Y-67678571D01*
X200007143Y-67607143D01*
X200078572Y-67535714D01*
X200150000Y-67392857D01*
X200150000Y-67107143D01*
X200078572Y-66964286D01*
X200007143Y-66892857D01*
X199864286Y-66821429D01*
X200792857Y-66678571D02*
X201935714Y-67107143D01*
X200792857Y-67535714D01*
X141471429Y-67528571D02*
X140971429Y-66814286D01*
X140614286Y-67528571D02*
X140614286Y-66028571D01*
X141185714Y-66028571D01*
X141328572Y-66100000D01*
X141400000Y-66171429D01*
X141471429Y-66314286D01*
X141471429Y-66528571D01*
X141400000Y-66671429D01*
X141328572Y-66742857D01*
X141185714Y-66814286D01*
X140614286Y-66814286D01*
X142328572Y-66671429D02*
X142185714Y-66600000D01*
X142114286Y-66528571D01*
X142042857Y-66385714D01*
X142042857Y-66314286D01*
X142114286Y-66171429D01*
X142185714Y-66100000D01*
X142328572Y-66028571D01*
X142614286Y-66028571D01*
X142757143Y-66100000D01*
X142828572Y-66171429D01*
X142900000Y-66314286D01*
X142900000Y-66385714D01*
X142828572Y-66528571D01*
X142757143Y-66600000D01*
X142614286Y-66671429D01*
X142328572Y-66671429D01*
X142185714Y-66742857D01*
X142114286Y-66814286D01*
X142042857Y-66957143D01*
X142042857Y-67242857D01*
X142114286Y-67385714D01*
X142185714Y-67457143D01*
X142328572Y-67528571D01*
X142614286Y-67528571D01*
X142757143Y-67457143D01*
X142828572Y-67385714D01*
X142900000Y-67242857D01*
X142900000Y-66957143D01*
X142828572Y-66814286D01*
X142757143Y-66742857D01*
X142614286Y-66671429D01*
X143542857Y-66528571D02*
X144685714Y-66957143D01*
X143542857Y-67385714D01*
D12*
X139766667Y-122959524D02*
X139766667Y-122483333D01*
X140223810Y-123054762D02*
X138623810Y-122721429D01*
X140223810Y-122388095D01*
X139309524Y-121911905D02*
X139233333Y-122007143D01*
X139157143Y-122054762D01*
X139004762Y-122102381D01*
X138928571Y-122102381D01*
X138776190Y-122054762D01*
X138700000Y-122007143D01*
X138623810Y-121911905D01*
X138623810Y-121721428D01*
X138700000Y-121626190D01*
X138776190Y-121578571D01*
X138928571Y-121530952D01*
X139004762Y-121530952D01*
X139157143Y-121578571D01*
X139233333Y-121626190D01*
X139309524Y-121721428D01*
X139309524Y-121911905D01*
X139385714Y-122007143D01*
X139461905Y-122054762D01*
X139614286Y-122102381D01*
X139919048Y-122102381D01*
X140071429Y-122054762D01*
X140147619Y-122007143D01*
X140223810Y-121911905D01*
X140223810Y-121721428D01*
X140147619Y-121626190D01*
X140071429Y-121578571D01*
X139919048Y-121530952D01*
X139614286Y-121530952D01*
X139461905Y-121578571D01*
X139385714Y-121626190D01*
X139309524Y-121721428D01*
X142366667Y-122959524D02*
X142366667Y-122483333D01*
X142823810Y-123054762D02*
X141223810Y-122721429D01*
X142823810Y-122388095D01*
X142823810Y-122007143D02*
X142823810Y-121816667D01*
X142747619Y-121721428D01*
X142671429Y-121673809D01*
X142442857Y-121578571D01*
X142138095Y-121530952D01*
X141528571Y-121530952D01*
X141376190Y-121578571D01*
X141300000Y-121626190D01*
X141223810Y-121721428D01*
X141223810Y-121911905D01*
X141300000Y-122007143D01*
X141376190Y-122054762D01*
X141528571Y-122102381D01*
X141909524Y-122102381D01*
X142061905Y-122054762D01*
X142138095Y-122007143D01*
X142214286Y-121911905D01*
X142214286Y-121721428D01*
X142138095Y-121626190D01*
X142061905Y-121578571D01*
X141909524Y-121530952D01*
X144966667Y-122959524D02*
X144966667Y-122483333D01*
X145423810Y-123054762D02*
X143823810Y-122721429D01*
X145423810Y-122388095D01*
X145423810Y-121530952D02*
X145423810Y-122102381D01*
X145423810Y-121816667D02*
X143823810Y-121816667D01*
X144052381Y-121911905D01*
X144204762Y-122007143D01*
X144280952Y-122102381D01*
X143823810Y-120911905D02*
X143823810Y-120816666D01*
X143900000Y-120721428D01*
X143976190Y-120673809D01*
X144128571Y-120626190D01*
X144433333Y-120578571D01*
X144814286Y-120578571D01*
X145119048Y-120626190D01*
X145271429Y-120673809D01*
X145347619Y-120721428D01*
X145423810Y-120816666D01*
X145423810Y-120911905D01*
X145347619Y-121007143D01*
X145271429Y-121054762D01*
X145119048Y-121102381D01*
X144814286Y-121150000D01*
X144433333Y-121150000D01*
X144128571Y-121102381D01*
X143976190Y-121054762D01*
X143900000Y-121007143D01*
X143823810Y-120911905D01*
X147566667Y-122959524D02*
X147566667Y-122483333D01*
X148023810Y-123054762D02*
X146423810Y-122721429D01*
X148023810Y-122388095D01*
X148023810Y-121530952D02*
X148023810Y-122102381D01*
X148023810Y-121816667D02*
X146423810Y-121816667D01*
X146652381Y-121911905D01*
X146804762Y-122007143D01*
X146880952Y-122102381D01*
X148023810Y-120578571D02*
X148023810Y-121150000D01*
X148023810Y-120864286D02*
X146423810Y-120864286D01*
X146652381Y-120959524D01*
X146804762Y-121054762D01*
X146880952Y-121150000D01*
X150166667Y-122959524D02*
X150166667Y-122483333D01*
X150623810Y-123054762D02*
X149023810Y-122721429D01*
X150623810Y-122388095D01*
X150623810Y-121530952D02*
X150623810Y-122102381D01*
X150623810Y-121816667D02*
X149023810Y-121816667D01*
X149252381Y-121911905D01*
X149404762Y-122007143D01*
X149480952Y-122102381D01*
X149176190Y-121150000D02*
X149100000Y-121102381D01*
X149023810Y-121007143D01*
X149023810Y-120769047D01*
X149100000Y-120673809D01*
X149176190Y-120626190D01*
X149328571Y-120578571D01*
X149480952Y-120578571D01*
X149709524Y-120626190D01*
X150623810Y-121197619D01*
X150623810Y-120578571D01*
X152766667Y-122959524D02*
X152766667Y-122483333D01*
X153223810Y-123054762D02*
X151623810Y-122721429D01*
X153223810Y-122388095D01*
X153223810Y-121530952D02*
X153223810Y-122102381D01*
X153223810Y-121816667D02*
X151623810Y-121816667D01*
X151852381Y-121911905D01*
X152004762Y-122007143D01*
X152080952Y-122102381D01*
X151623810Y-121197619D02*
X151623810Y-120578571D01*
X152233333Y-120911905D01*
X152233333Y-120769047D01*
X152309524Y-120673809D01*
X152385714Y-120626190D01*
X152538095Y-120578571D01*
X152919048Y-120578571D01*
X153071429Y-120626190D01*
X153147619Y-120673809D01*
X153223810Y-120769047D01*
X153223810Y-121054762D01*
X153147619Y-121150000D01*
X153071429Y-121197619D01*
X155366667Y-122959524D02*
X155366667Y-122483333D01*
X155823810Y-123054762D02*
X154223810Y-122721429D01*
X155823810Y-122388095D01*
X155823810Y-121530952D02*
X155823810Y-122102381D01*
X155823810Y-121816667D02*
X154223810Y-121816667D01*
X154452381Y-121911905D01*
X154604762Y-122007143D01*
X154680952Y-122102381D01*
X154757143Y-120673809D02*
X155823810Y-120673809D01*
X154147619Y-120911905D02*
X155290476Y-121150000D01*
X155290476Y-120530952D01*
X157966667Y-122959524D02*
X157966667Y-122483333D01*
X158423810Y-123054762D02*
X156823810Y-122721429D01*
X158423810Y-122388095D01*
X158423810Y-121530952D02*
X158423810Y-122102381D01*
X158423810Y-121816667D02*
X156823810Y-121816667D01*
X157052381Y-121911905D01*
X157204762Y-122007143D01*
X157280952Y-122102381D01*
X156823810Y-120626190D02*
X156823810Y-121102381D01*
X157585714Y-121150000D01*
X157509524Y-121102381D01*
X157433333Y-121007143D01*
X157433333Y-120769047D01*
X157509524Y-120673809D01*
X157585714Y-120626190D01*
X157738095Y-120578571D01*
X158119048Y-120578571D01*
X158271429Y-120626190D01*
X158347619Y-120673809D01*
X158423810Y-120769047D01*
X158423810Y-121007143D01*
X158347619Y-121102381D01*
X158271429Y-121150000D01*
X138550000Y-112988095D02*
X138473810Y-113083333D01*
X138473810Y-113226190D01*
X138550000Y-113369048D01*
X138702381Y-113464286D01*
X138854762Y-113511905D01*
X139159524Y-113559524D01*
X139388095Y-113559524D01*
X139692857Y-113511905D01*
X139845238Y-113464286D01*
X139997619Y-113369048D01*
X140073810Y-113226190D01*
X140073810Y-113130952D01*
X139997619Y-112988095D01*
X139921429Y-112940476D01*
X139388095Y-112940476D01*
X139388095Y-113130952D01*
X140073810Y-112511905D02*
X138473810Y-112511905D01*
X140073810Y-111940476D01*
X138473810Y-111940476D01*
X140073810Y-111464286D02*
X138473810Y-111464286D01*
X138473810Y-111226191D01*
X138550000Y-111083333D01*
X138702381Y-110988095D01*
X138854762Y-110940476D01*
X139159524Y-110892857D01*
X139388095Y-110892857D01*
X139692857Y-110940476D01*
X139845238Y-110988095D01*
X139997619Y-111083333D01*
X140073810Y-111226191D01*
X140073810Y-111464286D01*
X141150000Y-112988095D02*
X141073810Y-113083333D01*
X141073810Y-113226190D01*
X141150000Y-113369048D01*
X141302381Y-113464286D01*
X141454762Y-113511905D01*
X141759524Y-113559524D01*
X141988095Y-113559524D01*
X142292857Y-113511905D01*
X142445238Y-113464286D01*
X142597619Y-113369048D01*
X142673810Y-113226190D01*
X142673810Y-113130952D01*
X142597619Y-112988095D01*
X142521429Y-112940476D01*
X141988095Y-112940476D01*
X141988095Y-113130952D01*
X142673810Y-112511905D02*
X141073810Y-112511905D01*
X142673810Y-111940476D01*
X141073810Y-111940476D01*
X142673810Y-111464286D02*
X141073810Y-111464286D01*
X141073810Y-111226191D01*
X141150000Y-111083333D01*
X141302381Y-110988095D01*
X141454762Y-110940476D01*
X141759524Y-110892857D01*
X141988095Y-110892857D01*
X142292857Y-110940476D01*
X142445238Y-110988095D01*
X142597619Y-111083333D01*
X142673810Y-111226191D01*
X142673810Y-111464286D01*
X145121429Y-112940476D02*
X145197619Y-112988095D01*
X145273810Y-113130952D01*
X145273810Y-113226190D01*
X145197619Y-113369048D01*
X145045238Y-113464286D01*
X144892857Y-113511905D01*
X144588095Y-113559524D01*
X144359524Y-113559524D01*
X144054762Y-113511905D01*
X143902381Y-113464286D01*
X143750000Y-113369048D01*
X143673810Y-113226190D01*
X143673810Y-113130952D01*
X143750000Y-112988095D01*
X143826190Y-112940476D01*
X143673810Y-112654762D02*
X143673810Y-112083333D01*
X145273810Y-112369048D02*
X143673810Y-112369048D01*
X145273810Y-111178571D02*
X144511905Y-111511905D01*
X145273810Y-111750000D02*
X143673810Y-111750000D01*
X143673810Y-111369047D01*
X143750000Y-111273809D01*
X143826190Y-111226190D01*
X143978571Y-111178571D01*
X144207143Y-111178571D01*
X144359524Y-111226190D01*
X144435714Y-111273809D01*
X144511905Y-111369047D01*
X144511905Y-111750000D01*
X145273810Y-110273809D02*
X145273810Y-110750000D01*
X143673810Y-110750000D01*
X145273810Y-109416666D02*
X145273810Y-109988095D01*
X145273810Y-109702381D02*
X143673810Y-109702381D01*
X143902381Y-109797619D01*
X144054762Y-109892857D01*
X144130952Y-109988095D01*
X147721429Y-112940476D02*
X147797619Y-112988095D01*
X147873810Y-113130952D01*
X147873810Y-113226190D01*
X147797619Y-113369048D01*
X147645238Y-113464286D01*
X147492857Y-113511905D01*
X147188095Y-113559524D01*
X146959524Y-113559524D01*
X146654762Y-113511905D01*
X146502381Y-113464286D01*
X146350000Y-113369048D01*
X146273810Y-113226190D01*
X146273810Y-113130952D01*
X146350000Y-112988095D01*
X146426190Y-112940476D01*
X146273810Y-112654762D02*
X146273810Y-112083333D01*
X147873810Y-112369048D02*
X146273810Y-112369048D01*
X147873810Y-111178571D02*
X147111905Y-111511905D01*
X147873810Y-111750000D02*
X146273810Y-111750000D01*
X146273810Y-111369047D01*
X146350000Y-111273809D01*
X146426190Y-111226190D01*
X146578571Y-111178571D01*
X146807143Y-111178571D01*
X146959524Y-111226190D01*
X147035714Y-111273809D01*
X147111905Y-111369047D01*
X147111905Y-111750000D01*
X147873810Y-110273809D02*
X147873810Y-110750000D01*
X146273810Y-110750000D01*
X146426190Y-109988095D02*
X146350000Y-109940476D01*
X146273810Y-109845238D01*
X146273810Y-109607142D01*
X146350000Y-109511904D01*
X146426190Y-109464285D01*
X146578571Y-109416666D01*
X146730952Y-109416666D01*
X146959524Y-109464285D01*
X147873810Y-110035714D01*
X147873810Y-109416666D01*
X150321429Y-112940476D02*
X150397619Y-112988095D01*
X150473810Y-113130952D01*
X150473810Y-113226190D01*
X150397619Y-113369048D01*
X150245238Y-113464286D01*
X150092857Y-113511905D01*
X149788095Y-113559524D01*
X149559524Y-113559524D01*
X149254762Y-113511905D01*
X149102381Y-113464286D01*
X148950000Y-113369048D01*
X148873810Y-113226190D01*
X148873810Y-113130952D01*
X148950000Y-112988095D01*
X149026190Y-112940476D01*
X148873810Y-112654762D02*
X148873810Y-112083333D01*
X150473810Y-112369048D02*
X148873810Y-112369048D01*
X150473810Y-111178571D02*
X149711905Y-111511905D01*
X150473810Y-111750000D02*
X148873810Y-111750000D01*
X148873810Y-111369047D01*
X148950000Y-111273809D01*
X149026190Y-111226190D01*
X149178571Y-111178571D01*
X149407143Y-111178571D01*
X149559524Y-111226190D01*
X149635714Y-111273809D01*
X149711905Y-111369047D01*
X149711905Y-111750000D01*
X150473810Y-110273809D02*
X150473810Y-110750000D01*
X148873810Y-110750000D01*
X148873810Y-110035714D02*
X148873810Y-109416666D01*
X149483333Y-109750000D01*
X149483333Y-109607142D01*
X149559524Y-109511904D01*
X149635714Y-109464285D01*
X149788095Y-109416666D01*
X150169048Y-109416666D01*
X150321429Y-109464285D01*
X150397619Y-109511904D01*
X150473810Y-109607142D01*
X150473810Y-109892857D01*
X150397619Y-109988095D01*
X150321429Y-110035714D01*
X152921429Y-112940476D02*
X152997619Y-112988095D01*
X153073810Y-113130952D01*
X153073810Y-113226190D01*
X152997619Y-113369048D01*
X152845238Y-113464286D01*
X152692857Y-113511905D01*
X152388095Y-113559524D01*
X152159524Y-113559524D01*
X151854762Y-113511905D01*
X151702381Y-113464286D01*
X151550000Y-113369048D01*
X151473810Y-113226190D01*
X151473810Y-113130952D01*
X151550000Y-112988095D01*
X151626190Y-112940476D01*
X151473810Y-112654762D02*
X151473810Y-112083333D01*
X153073810Y-112369048D02*
X151473810Y-112369048D01*
X153073810Y-111178571D02*
X152311905Y-111511905D01*
X153073810Y-111750000D02*
X151473810Y-111750000D01*
X151473810Y-111369047D01*
X151550000Y-111273809D01*
X151626190Y-111226190D01*
X151778571Y-111178571D01*
X152007143Y-111178571D01*
X152159524Y-111226190D01*
X152235714Y-111273809D01*
X152311905Y-111369047D01*
X152311905Y-111750000D01*
X153073810Y-110273809D02*
X153073810Y-110750000D01*
X151473810Y-110750000D01*
X152007143Y-109511904D02*
X153073810Y-109511904D01*
X151397619Y-109750000D02*
X152540476Y-109988095D01*
X152540476Y-109369047D01*
X155064286Y-113511905D02*
X155064286Y-112750000D01*
X155673810Y-113130952D02*
X154454762Y-113130952D01*
X154073810Y-111797619D02*
X154073810Y-112273810D01*
X154835714Y-112321429D01*
X154759524Y-112273810D01*
X154683333Y-112178572D01*
X154683333Y-111940476D01*
X154759524Y-111845238D01*
X154835714Y-111797619D01*
X154988095Y-111750000D01*
X155369048Y-111750000D01*
X155521429Y-111797619D01*
X155597619Y-111845238D01*
X155673810Y-111940476D01*
X155673810Y-112178572D01*
X155597619Y-112273810D01*
X155521429Y-112321429D01*
X154073810Y-111464286D02*
X155673810Y-111130953D01*
X154073810Y-110797619D01*
X157664286Y-113511905D02*
X157664286Y-112750000D01*
X158273810Y-113130952D02*
X157054762Y-113130952D01*
X156673810Y-111797619D02*
X156673810Y-112273810D01*
X157435714Y-112321429D01*
X157359524Y-112273810D01*
X157283333Y-112178572D01*
X157283333Y-111940476D01*
X157359524Y-111845238D01*
X157435714Y-111797619D01*
X157588095Y-111750000D01*
X157969048Y-111750000D01*
X158121429Y-111797619D01*
X158197619Y-111845238D01*
X158273810Y-111940476D01*
X158273810Y-112178572D01*
X158197619Y-112273810D01*
X158121429Y-112321429D01*
X156673810Y-111464286D02*
X158273810Y-111130953D01*
X156673810Y-110797619D01*
D11*
X120878572Y-74603571D02*
X121378572Y-76103571D01*
X121878572Y-74603571D01*
X122378572Y-76103571D02*
X122378572Y-74603571D01*
X122878572Y-75675000D01*
X123378572Y-74603571D01*
X123378572Y-76103571D01*
X124092858Y-76103571D02*
X124092858Y-74603571D01*
X124450001Y-74603571D01*
X124664286Y-74675000D01*
X124807144Y-74817857D01*
X124878572Y-74960714D01*
X124950001Y-75246429D01*
X124950001Y-75460714D01*
X124878572Y-75746429D01*
X124807144Y-75889286D01*
X124664286Y-76032143D01*
X124450001Y-76103571D01*
X124092858Y-76103571D01*
X126735715Y-75532143D02*
X127878572Y-75532143D01*
X129521429Y-74603571D02*
X130021429Y-76103571D01*
X130521429Y-74603571D01*
X131021429Y-76103571D02*
X131021429Y-75103571D01*
X131021429Y-74603571D02*
X130950000Y-74675000D01*
X131021429Y-74746429D01*
X131092857Y-74675000D01*
X131021429Y-74603571D01*
X131021429Y-74746429D01*
X131735715Y-76103571D02*
X131735715Y-75103571D01*
X131735715Y-75389286D02*
X131807143Y-75246429D01*
X131878572Y-75175000D01*
X132021429Y-75103571D01*
X132164286Y-75103571D01*
X132450000Y-75103571D02*
X133021429Y-75103571D01*
X132664286Y-74603571D02*
X132664286Y-75889286D01*
X132735714Y-76032143D01*
X132878572Y-76103571D01*
X133021429Y-76103571D01*
X134164286Y-75103571D02*
X134164286Y-76103571D01*
X133521429Y-75103571D02*
X133521429Y-75889286D01*
X133592857Y-76032143D01*
X133735715Y-76103571D01*
X133950000Y-76103571D01*
X134092857Y-76032143D01*
X134164286Y-75960714D01*
X135521429Y-76103571D02*
X135521429Y-75317857D01*
X135450000Y-75175000D01*
X135307143Y-75103571D01*
X135021429Y-75103571D01*
X134878572Y-75175000D01*
X135521429Y-76032143D02*
X135378572Y-76103571D01*
X135021429Y-76103571D01*
X134878572Y-76032143D01*
X134807143Y-75889286D01*
X134807143Y-75746429D01*
X134878572Y-75603571D01*
X135021429Y-75532143D01*
X135378572Y-75532143D01*
X135521429Y-75460714D01*
X136450001Y-76103571D02*
X136307143Y-76032143D01*
X136235715Y-75889286D01*
X136235715Y-74603571D01*
X138164286Y-76103571D02*
X138164286Y-74603571D01*
X138664286Y-75675000D01*
X139164286Y-74603571D01*
X139164286Y-76103571D01*
X140450000Y-76032143D02*
X140307143Y-76103571D01*
X140021429Y-76103571D01*
X139878572Y-76032143D01*
X139807143Y-75889286D01*
X139807143Y-75317857D01*
X139878572Y-75175000D01*
X140021429Y-75103571D01*
X140307143Y-75103571D01*
X140450000Y-75175000D01*
X140521429Y-75317857D01*
X140521429Y-75460714D01*
X139807143Y-75603571D01*
X141164286Y-76103571D02*
X141164286Y-75103571D01*
X141164286Y-75246429D02*
X141235714Y-75175000D01*
X141378572Y-75103571D01*
X141592857Y-75103571D01*
X141735714Y-75175000D01*
X141807143Y-75317857D01*
X141807143Y-76103571D01*
X141807143Y-75317857D02*
X141878572Y-75175000D01*
X142021429Y-75103571D01*
X142235714Y-75103571D01*
X142378572Y-75175000D01*
X142450000Y-75317857D01*
X142450000Y-76103571D01*
X143378572Y-76103571D02*
X143235714Y-76032143D01*
X143164286Y-75960714D01*
X143092857Y-75817857D01*
X143092857Y-75389286D01*
X143164286Y-75246429D01*
X143235714Y-75175000D01*
X143378572Y-75103571D01*
X143592857Y-75103571D01*
X143735714Y-75175000D01*
X143807143Y-75246429D01*
X143878572Y-75389286D01*
X143878572Y-75817857D01*
X143807143Y-75960714D01*
X143735714Y-76032143D01*
X143592857Y-76103571D01*
X143378572Y-76103571D01*
X144521429Y-76103571D02*
X144521429Y-75103571D01*
X144521429Y-75389286D02*
X144592857Y-75246429D01*
X144664286Y-75175000D01*
X144807143Y-75103571D01*
X144950000Y-75103571D01*
X145307143Y-75103571D02*
X145664286Y-76103571D01*
X146021428Y-75103571D02*
X145664286Y-76103571D01*
X145521428Y-76460714D01*
X145450000Y-76532143D01*
X145307143Y-76603571D01*
X147735714Y-76103571D02*
X147735714Y-74603571D01*
X148092857Y-74603571D01*
X148307142Y-74675000D01*
X148450000Y-74817857D01*
X148521428Y-74960714D01*
X148592857Y-75246429D01*
X148592857Y-75460714D01*
X148521428Y-75746429D01*
X148450000Y-75889286D01*
X148307142Y-76032143D01*
X148092857Y-76103571D01*
X147735714Y-76103571D01*
X149235714Y-76103571D02*
X149235714Y-75103571D01*
X149235714Y-74603571D02*
X149164285Y-74675000D01*
X149235714Y-74746429D01*
X149307142Y-74675000D01*
X149235714Y-74603571D01*
X149235714Y-74746429D01*
X149878571Y-76032143D02*
X150021428Y-76103571D01*
X150307143Y-76103571D01*
X150450000Y-76032143D01*
X150521428Y-75889286D01*
X150521428Y-75817857D01*
X150450000Y-75675000D01*
X150307143Y-75603571D01*
X150092857Y-75603571D01*
X149950000Y-75532143D01*
X149878571Y-75389286D01*
X149878571Y-75317857D01*
X149950000Y-75175000D01*
X150092857Y-75103571D01*
X150307143Y-75103571D01*
X150450000Y-75175000D01*
X151164286Y-75103571D02*
X151164286Y-76603571D01*
X151164286Y-75175000D02*
X151307143Y-75103571D01*
X151592857Y-75103571D01*
X151735714Y-75175000D01*
X151807143Y-75246429D01*
X151878572Y-75389286D01*
X151878572Y-75817857D01*
X151807143Y-75960714D01*
X151735714Y-76032143D01*
X151592857Y-76103571D01*
X151307143Y-76103571D01*
X151164286Y-76032143D01*
X152735715Y-76103571D02*
X152592857Y-76032143D01*
X152521429Y-75889286D01*
X152521429Y-74603571D01*
X153950000Y-76103571D02*
X153950000Y-75317857D01*
X153878571Y-75175000D01*
X153735714Y-75103571D01*
X153450000Y-75103571D01*
X153307143Y-75175000D01*
X153950000Y-76032143D02*
X153807143Y-76103571D01*
X153450000Y-76103571D01*
X153307143Y-76032143D01*
X153235714Y-75889286D01*
X153235714Y-75746429D01*
X153307143Y-75603571D01*
X153450000Y-75532143D01*
X153807143Y-75532143D01*
X153950000Y-75460714D01*
X154521429Y-75103571D02*
X154878572Y-76103571D01*
X155235714Y-75103571D02*
X154878572Y-76103571D01*
X154735714Y-76460714D01*
X154664286Y-76532143D01*
X154521429Y-76603571D01*
X155878571Y-76032143D02*
X155878571Y-76103571D01*
X155807143Y-76246429D01*
X155735714Y-76317857D01*
X157450000Y-74603571D02*
X157950000Y-76103571D01*
X158450000Y-74603571D01*
X159735714Y-76103571D02*
X158878571Y-76103571D01*
X159307143Y-76103571D02*
X159307143Y-74603571D01*
X159164286Y-74817857D01*
X159021428Y-74960714D01*
X158878571Y-75032143D01*
X160378571Y-75960714D02*
X160449999Y-76032143D01*
X160378571Y-76103571D01*
X160307142Y-76032143D01*
X160378571Y-75960714D01*
X160378571Y-76103571D01*
X161378571Y-74603571D02*
X161521428Y-74603571D01*
X161664285Y-74675000D01*
X161735714Y-74746429D01*
X161807143Y-74889286D01*
X161878571Y-75175000D01*
X161878571Y-75532143D01*
X161807143Y-75817857D01*
X161735714Y-75960714D01*
X161664285Y-76032143D01*
X161521428Y-76103571D01*
X161378571Y-76103571D01*
X161235714Y-76032143D01*
X161164285Y-75960714D01*
X161092857Y-75817857D01*
X161021428Y-75532143D01*
X161021428Y-75175000D01*
X161092857Y-74889286D01*
X161164285Y-74746429D01*
X161235714Y-74675000D01*
X161378571Y-74603571D01*
X119664289Y-79225000D02*
X119592861Y-79153571D01*
X119450004Y-78939286D01*
X119378575Y-78796429D01*
X119307146Y-78582143D01*
X119235718Y-78225000D01*
X119235718Y-77939286D01*
X119307146Y-77582143D01*
X119378575Y-77367857D01*
X119450004Y-77225000D01*
X119592861Y-77010714D01*
X119664289Y-76939286D01*
X121092861Y-78510714D02*
X121021432Y-78582143D01*
X120807146Y-78653571D01*
X120664289Y-78653571D01*
X120450004Y-78582143D01*
X120307146Y-78439286D01*
X120235718Y-78296429D01*
X120164289Y-78010714D01*
X120164289Y-77796429D01*
X120235718Y-77510714D01*
X120307146Y-77367857D01*
X120450004Y-77225000D01*
X120664289Y-77153571D01*
X120807146Y-77153571D01*
X121021432Y-77225000D01*
X121092861Y-77296429D01*
X121592861Y-79225000D02*
X121664289Y-79153571D01*
X121807146Y-78939286D01*
X121878575Y-78796429D01*
X121950004Y-78582143D01*
X122021432Y-78225000D01*
X122021432Y-77939286D01*
X121950004Y-77582143D01*
X121878575Y-77367857D01*
X121807146Y-77225000D01*
X121664289Y-77010714D01*
X121592861Y-76939286D01*
X122664289Y-77296429D02*
X122735718Y-77225000D01*
X122878575Y-77153571D01*
X123235718Y-77153571D01*
X123378575Y-77225000D01*
X123450004Y-77296429D01*
X123521432Y-77439286D01*
X123521432Y-77582143D01*
X123450004Y-77796429D01*
X122592861Y-78653571D01*
X123521432Y-78653571D01*
X124450003Y-77153571D02*
X124592860Y-77153571D01*
X124735717Y-77225000D01*
X124807146Y-77296429D01*
X124878575Y-77439286D01*
X124950003Y-77725000D01*
X124950003Y-78082143D01*
X124878575Y-78367857D01*
X124807146Y-78510714D01*
X124735717Y-78582143D01*
X124592860Y-78653571D01*
X124450003Y-78653571D01*
X124307146Y-78582143D01*
X124235717Y-78510714D01*
X124164289Y-78367857D01*
X124092860Y-78082143D01*
X124092860Y-77725000D01*
X124164289Y-77439286D01*
X124235717Y-77296429D01*
X124307146Y-77225000D01*
X124450003Y-77153571D01*
X126378574Y-78653571D02*
X125521431Y-78653571D01*
X125950003Y-78653571D02*
X125950003Y-77153571D01*
X125807146Y-77367857D01*
X125664288Y-77510714D01*
X125521431Y-77582143D01*
X127664288Y-77153571D02*
X127378574Y-77153571D01*
X127235717Y-77225000D01*
X127164288Y-77296429D01*
X127021431Y-77510714D01*
X126950002Y-77796429D01*
X126950002Y-78367857D01*
X127021431Y-78510714D01*
X127092859Y-78582143D01*
X127235717Y-78653571D01*
X127521431Y-78653571D01*
X127664288Y-78582143D01*
X127735717Y-78510714D01*
X127807145Y-78367857D01*
X127807145Y-78010714D01*
X127735717Y-77867857D01*
X127664288Y-77796429D01*
X127521431Y-77725000D01*
X127235717Y-77725000D01*
X127092859Y-77796429D01*
X127021431Y-77867857D01*
X126950002Y-78010714D01*
X129521430Y-78582143D02*
X129735716Y-78653571D01*
X130092859Y-78653571D01*
X130235716Y-78582143D01*
X130307145Y-78510714D01*
X130378573Y-78367857D01*
X130378573Y-78225000D01*
X130307145Y-78082143D01*
X130235716Y-78010714D01*
X130092859Y-77939286D01*
X129807145Y-77867857D01*
X129664287Y-77796429D01*
X129592859Y-77725000D01*
X129521430Y-77582143D01*
X129521430Y-77439286D01*
X129592859Y-77296429D01*
X129664287Y-77225000D01*
X129807145Y-77153571D01*
X130164287Y-77153571D01*
X130378573Y-77225000D01*
X130807144Y-77653571D02*
X131378573Y-77653571D01*
X131021430Y-77153571D02*
X131021430Y-78439286D01*
X131092858Y-78582143D01*
X131235716Y-78653571D01*
X131378573Y-78653571D01*
X132450001Y-78582143D02*
X132307144Y-78653571D01*
X132021430Y-78653571D01*
X131878573Y-78582143D01*
X131807144Y-78439286D01*
X131807144Y-77867857D01*
X131878573Y-77725000D01*
X132021430Y-77653571D01*
X132307144Y-77653571D01*
X132450001Y-77725000D01*
X132521430Y-77867857D01*
X132521430Y-78010714D01*
X131807144Y-78153571D01*
X133021430Y-77653571D02*
X133378573Y-78653571D01*
X133735715Y-77653571D01*
X134878572Y-78582143D02*
X134735715Y-78653571D01*
X134450001Y-78653571D01*
X134307144Y-78582143D01*
X134235715Y-78439286D01*
X134235715Y-77867857D01*
X134307144Y-77725000D01*
X134450001Y-77653571D01*
X134735715Y-77653571D01*
X134878572Y-77725000D01*
X134950001Y-77867857D01*
X134950001Y-78010714D01*
X134235715Y-78153571D01*
X137164286Y-77153571D02*
X137164286Y-78225000D01*
X137092858Y-78439286D01*
X136950001Y-78582143D01*
X136735715Y-78653571D01*
X136592858Y-78653571D01*
X137878572Y-78510714D02*
X137950000Y-78582143D01*
X137878572Y-78653571D01*
X137807143Y-78582143D01*
X137878572Y-78510714D01*
X137878572Y-78653571D01*
X140521429Y-77225000D02*
X140378572Y-77153571D01*
X140164286Y-77153571D01*
X139950001Y-77225000D01*
X139807143Y-77367857D01*
X139735715Y-77510714D01*
X139664286Y-77796429D01*
X139664286Y-78010714D01*
X139735715Y-78296429D01*
X139807143Y-78439286D01*
X139950001Y-78582143D01*
X140164286Y-78653571D01*
X140307143Y-78653571D01*
X140521429Y-78582143D01*
X140592858Y-78510714D01*
X140592858Y-78010714D01*
X140307143Y-78010714D01*
X141235715Y-78653571D02*
X141235715Y-77653571D01*
X141235715Y-77939286D02*
X141307143Y-77796429D01*
X141378572Y-77725000D01*
X141521429Y-77653571D01*
X141664286Y-77653571D01*
X142807143Y-78653571D02*
X142807143Y-77867857D01*
X142735714Y-77725000D01*
X142592857Y-77653571D01*
X142307143Y-77653571D01*
X142164286Y-77725000D01*
X142807143Y-78582143D02*
X142664286Y-78653571D01*
X142307143Y-78653571D01*
X142164286Y-78582143D01*
X142092857Y-78439286D01*
X142092857Y-78296429D01*
X142164286Y-78153571D01*
X142307143Y-78082143D01*
X142664286Y-78082143D01*
X142807143Y-78010714D01*
X143378572Y-77653571D02*
X143735715Y-78653571D01*
X144092857Y-77653571D02*
X143735715Y-78653571D01*
X143592857Y-79010714D01*
X143521429Y-79082143D01*
X143378572Y-79153571D01*
X149164285Y-77296429D02*
X149235714Y-77225000D01*
X149378571Y-77153571D01*
X149735714Y-77153571D01*
X149878571Y-77225000D01*
X149950000Y-77296429D01*
X150021428Y-77439286D01*
X150021428Y-77582143D01*
X149950000Y-77796429D01*
X149092857Y-78653571D01*
X150021428Y-78653571D01*
X150949999Y-77153571D02*
X151092856Y-77153571D01*
X151235713Y-77225000D01*
X151307142Y-77296429D01*
X151378571Y-77439286D01*
X151449999Y-77725000D01*
X151449999Y-78082143D01*
X151378571Y-78367857D01*
X151307142Y-78510714D01*
X151235713Y-78582143D01*
X151092856Y-78653571D01*
X150949999Y-78653571D01*
X150807142Y-78582143D01*
X150735713Y-78510714D01*
X150664285Y-78367857D01*
X150592856Y-78082143D01*
X150592856Y-77725000D01*
X150664285Y-77439286D01*
X150735713Y-77296429D01*
X150807142Y-77225000D01*
X150949999Y-77153571D01*
X152878570Y-78653571D02*
X152021427Y-78653571D01*
X152449999Y-78653571D02*
X152449999Y-77153571D01*
X152307142Y-77367857D01*
X152164284Y-77510714D01*
X152021427Y-77582143D01*
X154164284Y-77153571D02*
X153878570Y-77153571D01*
X153735713Y-77225000D01*
X153664284Y-77296429D01*
X153521427Y-77510714D01*
X153449998Y-77796429D01*
X153449998Y-78367857D01*
X153521427Y-78510714D01*
X153592855Y-78582143D01*
X153735713Y-78653571D01*
X154021427Y-78653571D01*
X154164284Y-78582143D01*
X154235713Y-78510714D01*
X154307141Y-78367857D01*
X154307141Y-78010714D01*
X154235713Y-77867857D01*
X154164284Y-77796429D01*
X154021427Y-77725000D01*
X153735713Y-77725000D01*
X153592855Y-77796429D01*
X153521427Y-77867857D01*
X153449998Y-78010714D01*
X154949998Y-78082143D02*
X156092855Y-78082143D01*
X157592855Y-78653571D02*
X156735712Y-78653571D01*
X157164284Y-78653571D02*
X157164284Y-77153571D01*
X157021427Y-77367857D01*
X156878569Y-77510714D01*
X156735712Y-77582143D01*
X158521426Y-77153571D02*
X158664283Y-77153571D01*
X158807140Y-77225000D01*
X158878569Y-77296429D01*
X158949998Y-77439286D01*
X159021426Y-77725000D01*
X159021426Y-78082143D01*
X158949998Y-78367857D01*
X158878569Y-78510714D01*
X158807140Y-78582143D01*
X158664283Y-78653571D01*
X158521426Y-78653571D01*
X158378569Y-78582143D01*
X158307140Y-78510714D01*
X158235712Y-78367857D01*
X158164283Y-78082143D01*
X158164283Y-77725000D01*
X158235712Y-77439286D01*
X158307140Y-77296429D01*
X158378569Y-77225000D01*
X158521426Y-77153571D01*
X159664283Y-78082143D02*
X160807140Y-78082143D01*
X162307140Y-78653571D02*
X161449997Y-78653571D01*
X161878569Y-78653571D02*
X161878569Y-77153571D01*
X161735712Y-77367857D01*
X161592854Y-77510714D01*
X161449997Y-77582143D01*
X162807140Y-77153571D02*
X163807140Y-77153571D01*
X163164283Y-78653571D01*
D13*
X137450000Y-105750000D02*
X134450000Y-105750000D01*
X134450000Y-103250000D02*
X137450000Y-103250000D01*
X137450000Y-98350000D02*
X134450000Y-98350000D01*
X134450000Y-95850000D02*
X137450000Y-95850000D01*
X166250000Y-105750000D02*
X163250000Y-105750000D01*
X163250000Y-103250000D02*
X166250000Y-103250000D01*
X166250000Y-98350000D02*
X163250000Y-98350000D01*
X163250000Y-95850000D02*
X166250000Y-95850000D01*
X195050000Y-105650000D02*
X192050000Y-105650000D01*
X192050000Y-103150000D02*
X195050000Y-103150000D01*
X195150000Y-98150000D02*
X192150000Y-98150000D01*
X192150000Y-95650000D02*
X195150000Y-95650000D01*
X223650000Y-102750000D02*
X220650000Y-102750000D01*
X220650000Y-100250000D02*
X223650000Y-100250000D01*
X223650000Y-98250000D02*
X220650000Y-98250000D01*
X220650000Y-95750000D02*
X223650000Y-95750000D01*
X118970000Y-69230000D02*
X136750000Y-69230000D01*
X136750000Y-69230000D02*
X136750000Y-71770000D01*
X136750000Y-71770000D02*
X118970000Y-71770000D01*
X116150000Y-68950000D02*
X117700000Y-68950000D01*
X118970000Y-69230000D02*
X118970000Y-71770000D01*
X117700000Y-72050000D02*
X116150000Y-72050000D01*
X116150000Y-72050000D02*
X116150000Y-68950000D01*
X118970000Y-65730000D02*
X136750000Y-65730000D01*
X136750000Y-65730000D02*
X136750000Y-68270000D01*
X136750000Y-68270000D02*
X118970000Y-68270000D01*
X116150000Y-65450000D02*
X117700000Y-65450000D01*
X118970000Y-65730000D02*
X118970000Y-68270000D01*
X117700000Y-68550000D02*
X116150000Y-68550000D01*
X116150000Y-68550000D02*
X116150000Y-65450000D01*
X147870000Y-69230000D02*
X165650000Y-69230000D01*
X165650000Y-69230000D02*
X165650000Y-71770000D01*
X165650000Y-71770000D02*
X147870000Y-71770000D01*
X145050000Y-68950000D02*
X146600000Y-68950000D01*
X147870000Y-69230000D02*
X147870000Y-71770000D01*
X146600000Y-72050000D02*
X145050000Y-72050000D01*
X145050000Y-72050000D02*
X145050000Y-68950000D01*
X147870000Y-65730000D02*
X165650000Y-65730000D01*
X165650000Y-65730000D02*
X165650000Y-68270000D01*
X165650000Y-68270000D02*
X147870000Y-68270000D01*
X145050000Y-65450000D02*
X146600000Y-65450000D01*
X147870000Y-65730000D02*
X147870000Y-68270000D01*
X146600000Y-68550000D02*
X145050000Y-68550000D01*
X145050000Y-68550000D02*
X145050000Y-65450000D01*
X173005000Y-81765000D02*
X174275000Y-81765000D01*
X173005000Y-74415000D02*
X174275000Y-74415000D01*
X195375000Y-74415000D02*
X194105000Y-74415000D01*
X195375000Y-81765000D02*
X194105000Y-81765000D01*
X173005000Y-81765000D02*
X173005000Y-74415000D01*
X195375000Y-81765000D02*
X195375000Y-74415000D01*
X174275000Y-81765000D02*
X174275000Y-83050000D01*
X201705000Y-81765000D02*
X202975000Y-81765000D01*
X201705000Y-74415000D02*
X202975000Y-74415000D01*
X224075000Y-74415000D02*
X222805000Y-74415000D01*
X224075000Y-81765000D02*
X222805000Y-81765000D01*
X201705000Y-81765000D02*
X201705000Y-74415000D01*
X224075000Y-81765000D02*
X224075000Y-74415000D01*
X202975000Y-81765000D02*
X202975000Y-83050000D01*
X110305000Y-104465000D02*
X111575000Y-104465000D01*
X110305000Y-97115000D02*
X111575000Y-97115000D01*
X132675000Y-97115000D02*
X131405000Y-97115000D01*
X132675000Y-104465000D02*
X131405000Y-104465000D01*
X110305000Y-104465000D02*
X110305000Y-97115000D01*
X132675000Y-104465000D02*
X132675000Y-97115000D01*
X111575000Y-104465000D02*
X111575000Y-105750000D01*
X110305000Y-92865000D02*
X111575000Y-92865000D01*
X110305000Y-85515000D02*
X111575000Y-85515000D01*
X137755000Y-85515000D02*
X136485000Y-85515000D01*
X137755000Y-92865000D02*
X136485000Y-92865000D01*
X110305000Y-92865000D02*
X110305000Y-85515000D01*
X137755000Y-92865000D02*
X137755000Y-85515000D01*
X111575000Y-92865000D02*
X111575000Y-94150000D01*
X139205000Y-104465000D02*
X140475000Y-104465000D01*
X139205000Y-97115000D02*
X140475000Y-97115000D01*
X161575000Y-97115000D02*
X160305000Y-97115000D01*
X161575000Y-104465000D02*
X160305000Y-104465000D01*
X139205000Y-104465000D02*
X139205000Y-97115000D01*
X161575000Y-104465000D02*
X161575000Y-97115000D01*
X140475000Y-104465000D02*
X140475000Y-105750000D01*
X139205000Y-92865000D02*
X140475000Y-92865000D01*
X139205000Y-85515000D02*
X140475000Y-85515000D01*
X166655000Y-85515000D02*
X165385000Y-85515000D01*
X166655000Y-92865000D02*
X165385000Y-92865000D01*
X139205000Y-92865000D02*
X139205000Y-85515000D01*
X166655000Y-92865000D02*
X166655000Y-85515000D01*
X140475000Y-92865000D02*
X140475000Y-94150000D01*
X167805000Y-104465000D02*
X169075000Y-104465000D01*
X167805000Y-97115000D02*
X169075000Y-97115000D01*
X190175000Y-97115000D02*
X188905000Y-97115000D01*
X190175000Y-104465000D02*
X188905000Y-104465000D01*
X167805000Y-104465000D02*
X167805000Y-97115000D01*
X190175000Y-104465000D02*
X190175000Y-97115000D01*
X169075000Y-104465000D02*
X169075000Y-105750000D01*
X167905000Y-92865000D02*
X169175000Y-92865000D01*
X167905000Y-85515000D02*
X169175000Y-85515000D01*
X195355000Y-85515000D02*
X194085000Y-85515000D01*
X195355000Y-92865000D02*
X194085000Y-92865000D01*
X167905000Y-92865000D02*
X167905000Y-85515000D01*
X195355000Y-92865000D02*
X195355000Y-85515000D01*
X169175000Y-92865000D02*
X169175000Y-94150000D01*
X196605000Y-104365000D02*
X197875000Y-104365000D01*
X196605000Y-97015000D02*
X197875000Y-97015000D01*
X218975000Y-97015000D02*
X217705000Y-97015000D01*
X218975000Y-104365000D02*
X217705000Y-104365000D01*
X196605000Y-104365000D02*
X196605000Y-97015000D01*
X218975000Y-104365000D02*
X218975000Y-97015000D01*
X197875000Y-104365000D02*
X197875000Y-105650000D01*
X196605000Y-92865000D02*
X197875000Y-92865000D01*
X196605000Y-85515000D02*
X197875000Y-85515000D01*
X224055000Y-85515000D02*
X222785000Y-85515000D01*
X224055000Y-92865000D02*
X222785000Y-92865000D01*
X196605000Y-92865000D02*
X196605000Y-85515000D01*
X224055000Y-92865000D02*
X224055000Y-85515000D01*
X197875000Y-92865000D02*
X197875000Y-94150000D01*
X176570000Y-69330000D02*
X194350000Y-69330000D01*
X194350000Y-69330000D02*
X194350000Y-71870000D01*
X194350000Y-71870000D02*
X176570000Y-71870000D01*
X173750000Y-69050000D02*
X175300000Y-69050000D01*
X176570000Y-69330000D02*
X176570000Y-71870000D01*
X175300000Y-72150000D02*
X173750000Y-72150000D01*
X173750000Y-72150000D02*
X173750000Y-69050000D01*
X176570000Y-65830000D02*
X194350000Y-65830000D01*
X194350000Y-65830000D02*
X194350000Y-68370000D01*
X194350000Y-68370000D02*
X176570000Y-68370000D01*
X173750000Y-65550000D02*
X175300000Y-65550000D01*
X176570000Y-65830000D02*
X176570000Y-68370000D01*
X175300000Y-68650000D02*
X173750000Y-68650000D01*
X173750000Y-68650000D02*
X173750000Y-65550000D01*
X205270000Y-65830000D02*
X223050000Y-65830000D01*
X223050000Y-65830000D02*
X223050000Y-68370000D01*
X223050000Y-68370000D02*
X205270000Y-68370000D01*
X202450000Y-65550000D02*
X204000000Y-65550000D01*
X205270000Y-65830000D02*
X205270000Y-68370000D01*
X204000000Y-68650000D02*
X202450000Y-68650000D01*
X202450000Y-68650000D02*
X202450000Y-65550000D01*
X205270000Y-69330000D02*
X223050000Y-69330000D01*
X223050000Y-69330000D02*
X223050000Y-71870000D01*
X223050000Y-71870000D02*
X205270000Y-71870000D01*
X202450000Y-69050000D02*
X204000000Y-69050000D01*
X205270000Y-69330000D02*
X205270000Y-71870000D01*
X204000000Y-72150000D02*
X202450000Y-72150000D01*
X202450000Y-72150000D02*
X202450000Y-69050000D01*
X167100000Y-111900000D02*
X167100000Y-114900000D01*
X164600000Y-114900000D02*
X164600000Y-111900000D01*
X158750000Y-114540000D02*
X138430000Y-114540000D01*
X140970000Y-119620000D02*
X158750000Y-119620000D01*
X158750000Y-114540000D02*
X158750000Y-119620000D01*
X138430000Y-114540000D02*
X138430000Y-117080000D01*
X138150000Y-118350000D02*
X138150000Y-119900000D01*
X138430000Y-117080000D02*
X140970000Y-117080000D01*
X140970000Y-117080000D02*
X140970000Y-119620000D01*
X138150000Y-119900000D02*
X139700000Y-119900000D01*
X204630000Y-117080000D02*
X204630000Y-112000000D01*
X204630000Y-112000000D02*
X207170000Y-112000000D01*
X207170000Y-112000000D02*
X207170000Y-117080000D01*
X207170000Y-117080000D02*
X204630000Y-117080000D01*
X208480000Y-117080000D02*
X208480000Y-112000000D01*
X208480000Y-112000000D02*
X211020000Y-112000000D01*
X211020000Y-112000000D02*
X211020000Y-117080000D01*
X211020000Y-117080000D02*
X208480000Y-117080000D01*
X212430000Y-117080000D02*
X212430000Y-112000000D01*
X212430000Y-112000000D02*
X214970000Y-112000000D01*
X214970000Y-112000000D02*
X214970000Y-117080000D01*
X214970000Y-117080000D02*
X212430000Y-117080000D01*
X216330000Y-117080000D02*
X216330000Y-112000000D01*
X216330000Y-112000000D02*
X218870000Y-112000000D01*
X218870000Y-112000000D02*
X218870000Y-117080000D01*
X218870000Y-117080000D02*
X216330000Y-117080000D01*
X167505000Y-119415000D02*
X168775000Y-119415000D01*
X167505000Y-112065000D02*
X168775000Y-112065000D01*
X187335000Y-112065000D02*
X186065000Y-112065000D01*
X187335000Y-119415000D02*
X186065000Y-119415000D01*
X167505000Y-119415000D02*
X167505000Y-112065000D01*
X187335000Y-119415000D02*
X187335000Y-112065000D01*
X168775000Y-119415000D02*
X168775000Y-120700000D01*
X190860000Y-112410000D02*
X190860000Y-116470000D01*
X190860000Y-114440000D02*
X192140000Y-114440000D01*
X190860000Y-116470000D02*
X192140000Y-116470000D01*
X192140000Y-116470000D02*
X192140000Y-112410000D01*
X192140000Y-112410000D02*
X190860000Y-112410000D01*
X193400000Y-112410000D02*
X193400000Y-116470000D01*
X193400000Y-114440000D02*
X194680000Y-114440000D01*
X193400000Y-116470000D02*
X194680000Y-116470000D01*
X194680000Y-116470000D02*
X194680000Y-112410000D01*
X194680000Y-112410000D02*
X193400000Y-112410000D01*
X195940000Y-112410000D02*
X195940000Y-116470000D01*
X195940000Y-114440000D02*
X197220000Y-114440000D01*
X195940000Y-116470000D02*
X197220000Y-116470000D01*
X197220000Y-116470000D02*
X197220000Y-112410000D01*
X197220000Y-112410000D02*
X195940000Y-112410000D01*
X198480000Y-112410000D02*
X198480000Y-116470000D01*
X198480000Y-114440000D02*
X199760000Y-114440000D01*
X198480000Y-116470000D02*
X199760000Y-116470000D01*
X199760000Y-116470000D02*
X199760000Y-112410000D01*
X199760000Y-112410000D02*
X198480000Y-112410000D01*
X189020000Y-119460000D02*
X189020000Y-109420000D01*
X189020000Y-109420000D02*
X201600000Y-109420000D01*
X201600000Y-109420000D02*
X201600000Y-119460000D01*
X201600000Y-119460000D02*
X191500000Y-119460000D01*
X125930000Y-111720000D02*
X125930000Y-119340000D01*
X125930000Y-119340000D02*
X131010000Y-119340000D01*
X131010000Y-119340000D02*
X131010000Y-109180000D01*
X131010000Y-109180000D02*
X128470000Y-109180000D01*
X127200000Y-108900000D02*
X125650000Y-108900000D01*
X128470000Y-109180000D02*
X128470000Y-111720000D01*
X128470000Y-111720000D02*
X125930000Y-111720000D01*
X125650000Y-108900000D02*
X125650000Y-110450000D01*
X114220000Y-112820000D02*
X114220000Y-115360000D01*
X114500000Y-110000000D02*
X114500000Y-111550000D01*
X114220000Y-112820000D02*
X111680000Y-112820000D01*
X111400000Y-111550000D02*
X111400000Y-110000000D01*
X111400000Y-110000000D02*
X114500000Y-110000000D01*
X111680000Y-112820000D02*
X111680000Y-115360000D01*
X111680000Y-115360000D02*
X114220000Y-115360000D01*
X136933334Y-102557143D02*
X136885715Y-102604762D01*
X136742858Y-102652381D01*
X136647620Y-102652381D01*
X136504762Y-102604762D01*
X136409524Y-102509524D01*
X136361905Y-102414286D01*
X136314286Y-102223810D01*
X136314286Y-102080952D01*
X136361905Y-101890476D01*
X136409524Y-101795238D01*
X136504762Y-101700000D01*
X136647620Y-101652381D01*
X136742858Y-101652381D01*
X136885715Y-101700000D01*
X136933334Y-101747619D01*
X137885715Y-102652381D02*
X137314286Y-102652381D01*
X137600000Y-102652381D02*
X137600000Y-101652381D01*
X137504762Y-101795238D01*
X137409524Y-101890476D01*
X137314286Y-101938095D01*
X136833334Y-99857143D02*
X136785715Y-99904762D01*
X136642858Y-99952381D01*
X136547620Y-99952381D01*
X136404762Y-99904762D01*
X136309524Y-99809524D01*
X136261905Y-99714286D01*
X136214286Y-99523810D01*
X136214286Y-99380952D01*
X136261905Y-99190476D01*
X136309524Y-99095238D01*
X136404762Y-99000000D01*
X136547620Y-98952381D01*
X136642858Y-98952381D01*
X136785715Y-99000000D01*
X136833334Y-99047619D01*
X137214286Y-99047619D02*
X137261905Y-99000000D01*
X137357143Y-98952381D01*
X137595239Y-98952381D01*
X137690477Y-99000000D01*
X137738096Y-99047619D01*
X137785715Y-99142857D01*
X137785715Y-99238095D01*
X137738096Y-99380952D01*
X137166667Y-99952381D01*
X137785715Y-99952381D01*
X165633334Y-102457143D02*
X165585715Y-102504762D01*
X165442858Y-102552381D01*
X165347620Y-102552381D01*
X165204762Y-102504762D01*
X165109524Y-102409524D01*
X165061905Y-102314286D01*
X165014286Y-102123810D01*
X165014286Y-101980952D01*
X165061905Y-101790476D01*
X165109524Y-101695238D01*
X165204762Y-101600000D01*
X165347620Y-101552381D01*
X165442858Y-101552381D01*
X165585715Y-101600000D01*
X165633334Y-101647619D01*
X165966667Y-101552381D02*
X166585715Y-101552381D01*
X166252381Y-101933333D01*
X166395239Y-101933333D01*
X166490477Y-101980952D01*
X166538096Y-102028571D01*
X166585715Y-102123810D01*
X166585715Y-102361905D01*
X166538096Y-102457143D01*
X166490477Y-102504762D01*
X166395239Y-102552381D01*
X166109524Y-102552381D01*
X166014286Y-102504762D01*
X165966667Y-102457143D01*
X165733334Y-99857143D02*
X165685715Y-99904762D01*
X165542858Y-99952381D01*
X165447620Y-99952381D01*
X165304762Y-99904762D01*
X165209524Y-99809524D01*
X165161905Y-99714286D01*
X165114286Y-99523810D01*
X165114286Y-99380952D01*
X165161905Y-99190476D01*
X165209524Y-99095238D01*
X165304762Y-99000000D01*
X165447620Y-98952381D01*
X165542858Y-98952381D01*
X165685715Y-99000000D01*
X165733334Y-99047619D01*
X166590477Y-99285714D02*
X166590477Y-99952381D01*
X166352381Y-98904762D02*
X166114286Y-99619048D01*
X166733334Y-99619048D01*
X194733334Y-102457143D02*
X194685715Y-102504762D01*
X194542858Y-102552381D01*
X194447620Y-102552381D01*
X194304762Y-102504762D01*
X194209524Y-102409524D01*
X194161905Y-102314286D01*
X194114286Y-102123810D01*
X194114286Y-101980952D01*
X194161905Y-101790476D01*
X194209524Y-101695238D01*
X194304762Y-101600000D01*
X194447620Y-101552381D01*
X194542858Y-101552381D01*
X194685715Y-101600000D01*
X194733334Y-101647619D01*
X195638096Y-101552381D02*
X195161905Y-101552381D01*
X195114286Y-102028571D01*
X195161905Y-101980952D01*
X195257143Y-101933333D01*
X195495239Y-101933333D01*
X195590477Y-101980952D01*
X195638096Y-102028571D01*
X195685715Y-102123810D01*
X195685715Y-102361905D01*
X195638096Y-102457143D01*
X195590477Y-102504762D01*
X195495239Y-102552381D01*
X195257143Y-102552381D01*
X195161905Y-102504762D01*
X195114286Y-102457143D01*
X194633334Y-99557143D02*
X194585715Y-99604762D01*
X194442858Y-99652381D01*
X194347620Y-99652381D01*
X194204762Y-99604762D01*
X194109524Y-99509524D01*
X194061905Y-99414286D01*
X194014286Y-99223810D01*
X194014286Y-99080952D01*
X194061905Y-98890476D01*
X194109524Y-98795238D01*
X194204762Y-98700000D01*
X194347620Y-98652381D01*
X194442858Y-98652381D01*
X194585715Y-98700000D01*
X194633334Y-98747619D01*
X195490477Y-98652381D02*
X195300000Y-98652381D01*
X195204762Y-98700000D01*
X195157143Y-98747619D01*
X195061905Y-98890476D01*
X195014286Y-99080952D01*
X195014286Y-99461905D01*
X195061905Y-99557143D01*
X195109524Y-99604762D01*
X195204762Y-99652381D01*
X195395239Y-99652381D01*
X195490477Y-99604762D01*
X195538096Y-99557143D01*
X195585715Y-99461905D01*
X195585715Y-99223810D01*
X195538096Y-99128571D01*
X195490477Y-99080952D01*
X195395239Y-99033333D01*
X195204762Y-99033333D01*
X195109524Y-99080952D01*
X195061905Y-99128571D01*
X195014286Y-99223810D01*
X221983334Y-104357143D02*
X221935715Y-104404762D01*
X221792858Y-104452381D01*
X221697620Y-104452381D01*
X221554762Y-104404762D01*
X221459524Y-104309524D01*
X221411905Y-104214286D01*
X221364286Y-104023810D01*
X221364286Y-103880952D01*
X221411905Y-103690476D01*
X221459524Y-103595238D01*
X221554762Y-103500000D01*
X221697620Y-103452381D01*
X221792858Y-103452381D01*
X221935715Y-103500000D01*
X221983334Y-103547619D01*
X222316667Y-103452381D02*
X222983334Y-103452381D01*
X222554762Y-104452381D01*
X221983334Y-99857143D02*
X221935715Y-99904762D01*
X221792858Y-99952381D01*
X221697620Y-99952381D01*
X221554762Y-99904762D01*
X221459524Y-99809524D01*
X221411905Y-99714286D01*
X221364286Y-99523810D01*
X221364286Y-99380952D01*
X221411905Y-99190476D01*
X221459524Y-99095238D01*
X221554762Y-99000000D01*
X221697620Y-98952381D01*
X221792858Y-98952381D01*
X221935715Y-99000000D01*
X221983334Y-99047619D01*
X222554762Y-99380952D02*
X222459524Y-99333333D01*
X222411905Y-99285714D01*
X222364286Y-99190476D01*
X222364286Y-99142857D01*
X222411905Y-99047619D01*
X222459524Y-99000000D01*
X222554762Y-98952381D01*
X222745239Y-98952381D01*
X222840477Y-99000000D01*
X222888096Y-99047619D01*
X222935715Y-99142857D01*
X222935715Y-99190476D01*
X222888096Y-99285714D01*
X222840477Y-99333333D01*
X222745239Y-99380952D01*
X222554762Y-99380952D01*
X222459524Y-99428571D01*
X222411905Y-99476190D01*
X222364286Y-99571429D01*
X222364286Y-99761905D01*
X222411905Y-99857143D01*
X222459524Y-99904762D01*
X222554762Y-99952381D01*
X222745239Y-99952381D01*
X222840477Y-99904762D01*
X222888096Y-99857143D01*
X222935715Y-99761905D01*
X222935715Y-99571429D01*
X222888096Y-99476190D01*
X222840477Y-99428571D01*
X222745239Y-99380952D01*
X116552381Y-61338095D02*
X115552381Y-61338095D01*
X115552381Y-60957142D01*
X115600000Y-60861904D01*
X115647619Y-60814285D01*
X115742857Y-60766666D01*
X115885714Y-60766666D01*
X115980952Y-60814285D01*
X116028571Y-60861904D01*
X116076190Y-60957142D01*
X116076190Y-61338095D01*
X115552381Y-60433333D02*
X115552381Y-59814285D01*
X115933333Y-60147619D01*
X115933333Y-60004761D01*
X115980952Y-59909523D01*
X116028571Y-59861904D01*
X116123810Y-59814285D01*
X116361905Y-59814285D01*
X116457143Y-59861904D01*
X116504762Y-59909523D01*
X116552381Y-60004761D01*
X116552381Y-60290476D01*
X116504762Y-60385714D01*
X116457143Y-60433333D01*
X115452381Y-61238095D02*
X114452381Y-61238095D01*
X114452381Y-60857142D01*
X114500000Y-60761904D01*
X114547619Y-60714285D01*
X114642857Y-60666666D01*
X114785714Y-60666666D01*
X114880952Y-60714285D01*
X114928571Y-60761904D01*
X114976190Y-60857142D01*
X114976190Y-61238095D01*
X114785714Y-59809523D02*
X115452381Y-59809523D01*
X114404762Y-60047619D02*
X115119048Y-60285714D01*
X115119048Y-59666666D01*
X146952381Y-61138095D02*
X145952381Y-61138095D01*
X145952381Y-60757142D01*
X146000000Y-60661904D01*
X146047619Y-60614285D01*
X146142857Y-60566666D01*
X146285714Y-60566666D01*
X146380952Y-60614285D01*
X146428571Y-60661904D01*
X146476190Y-60757142D01*
X146476190Y-61138095D01*
X145952381Y-59661904D02*
X145952381Y-60138095D01*
X146428571Y-60185714D01*
X146380952Y-60138095D01*
X146333333Y-60042857D01*
X146333333Y-59804761D01*
X146380952Y-59709523D01*
X146428571Y-59661904D01*
X146523810Y-59614285D01*
X146761905Y-59614285D01*
X146857143Y-59661904D01*
X146904762Y-59709523D01*
X146952381Y-59804761D01*
X146952381Y-60042857D01*
X146904762Y-60138095D01*
X146857143Y-60185714D01*
X146602381Y-61188095D02*
X145602381Y-61188095D01*
X145602381Y-60807142D01*
X145650000Y-60711904D01*
X145697619Y-60664285D01*
X145792857Y-60616666D01*
X145935714Y-60616666D01*
X146030952Y-60664285D01*
X146078571Y-60711904D01*
X146126190Y-60807142D01*
X146126190Y-61188095D01*
X145602381Y-59759523D02*
X145602381Y-59950000D01*
X145650000Y-60045238D01*
X145697619Y-60092857D01*
X145840476Y-60188095D01*
X146030952Y-60235714D01*
X146411905Y-60235714D01*
X146507143Y-60188095D01*
X146554762Y-60140476D01*
X146602381Y-60045238D01*
X146602381Y-59854761D01*
X146554762Y-59759523D01*
X146507143Y-59711904D01*
X146411905Y-59664285D01*
X146173810Y-59664285D01*
X146078571Y-59711904D01*
X146030952Y-59759523D01*
X145983333Y-59854761D01*
X145983333Y-60045238D01*
X146030952Y-60140476D01*
X146078571Y-60188095D01*
X146173810Y-60235714D01*
X172452381Y-78666666D02*
X171976190Y-79000000D01*
X172452381Y-79238095D02*
X171452381Y-79238095D01*
X171452381Y-78857142D01*
X171500000Y-78761904D01*
X171547619Y-78714285D01*
X171642857Y-78666666D01*
X171785714Y-78666666D01*
X171880952Y-78714285D01*
X171928571Y-78761904D01*
X171976190Y-78857142D01*
X171976190Y-79238095D01*
X172452381Y-78238095D02*
X171452381Y-78238095D01*
X171452381Y-77857142D01*
X171500000Y-77761904D01*
X171547619Y-77714285D01*
X171642857Y-77666666D01*
X171785714Y-77666666D01*
X171880952Y-77714285D01*
X171928571Y-77761904D01*
X171976190Y-77857142D01*
X171976190Y-78238095D01*
X172452381Y-76714285D02*
X172452381Y-77285714D01*
X172452381Y-77000000D02*
X171452381Y-77000000D01*
X171595238Y-77095238D01*
X171690476Y-77190476D01*
X171738095Y-77285714D01*
X201112381Y-79406666D02*
X200636190Y-79740000D01*
X201112381Y-79978095D02*
X200112381Y-79978095D01*
X200112381Y-79597142D01*
X200160000Y-79501904D01*
X200207619Y-79454285D01*
X200302857Y-79406666D01*
X200445714Y-79406666D01*
X200540952Y-79454285D01*
X200588571Y-79501904D01*
X200636190Y-79597142D01*
X200636190Y-79978095D01*
X201112381Y-78978095D02*
X200112381Y-78978095D01*
X200112381Y-78597142D01*
X200160000Y-78501904D01*
X200207619Y-78454285D01*
X200302857Y-78406666D01*
X200445714Y-78406666D01*
X200540952Y-78454285D01*
X200588571Y-78501904D01*
X200636190Y-78597142D01*
X200636190Y-78978095D01*
X200207619Y-78025714D02*
X200160000Y-77978095D01*
X200112381Y-77882857D01*
X200112381Y-77644761D01*
X200160000Y-77549523D01*
X200207619Y-77501904D01*
X200302857Y-77454285D01*
X200398095Y-77454285D01*
X200540952Y-77501904D01*
X201112381Y-78073333D01*
X201112381Y-77454285D01*
X110152381Y-106361905D02*
X110961905Y-106361905D01*
X111057143Y-106314286D01*
X111104762Y-106266667D01*
X111152381Y-106171429D01*
X111152381Y-105980952D01*
X111104762Y-105885714D01*
X111057143Y-105838095D01*
X110961905Y-105790476D01*
X110152381Y-105790476D01*
X111152381Y-104790476D02*
X111152381Y-105361905D01*
X111152381Y-105076191D02*
X110152381Y-105076191D01*
X110295238Y-105171429D01*
X110390476Y-105266667D01*
X110438095Y-105361905D01*
X110152381Y-94861905D02*
X110961905Y-94861905D01*
X111057143Y-94814286D01*
X111104762Y-94766667D01*
X111152381Y-94671429D01*
X111152381Y-94480952D01*
X111104762Y-94385714D01*
X111057143Y-94338095D01*
X110961905Y-94290476D01*
X110152381Y-94290476D01*
X110247619Y-93861905D02*
X110200000Y-93814286D01*
X110152381Y-93719048D01*
X110152381Y-93480952D01*
X110200000Y-93385714D01*
X110247619Y-93338095D01*
X110342857Y-93290476D01*
X110438095Y-93290476D01*
X110580952Y-93338095D01*
X111152381Y-93909524D01*
X111152381Y-93290476D01*
X139252381Y-106461905D02*
X140061905Y-106461905D01*
X140157143Y-106414286D01*
X140204762Y-106366667D01*
X140252381Y-106271429D01*
X140252381Y-106080952D01*
X140204762Y-105985714D01*
X140157143Y-105938095D01*
X140061905Y-105890476D01*
X139252381Y-105890476D01*
X139252381Y-105509524D02*
X139252381Y-104890476D01*
X139633333Y-105223810D01*
X139633333Y-105080952D01*
X139680952Y-104985714D01*
X139728571Y-104938095D01*
X139823810Y-104890476D01*
X140061905Y-104890476D01*
X140157143Y-104938095D01*
X140204762Y-104985714D01*
X140252381Y-105080952D01*
X140252381Y-105366667D01*
X140204762Y-105461905D01*
X140157143Y-105509524D01*
X138952381Y-94761905D02*
X139761905Y-94761905D01*
X139857143Y-94714286D01*
X139904762Y-94666667D01*
X139952381Y-94571429D01*
X139952381Y-94380952D01*
X139904762Y-94285714D01*
X139857143Y-94238095D01*
X139761905Y-94190476D01*
X138952381Y-94190476D01*
X139285714Y-93285714D02*
X139952381Y-93285714D01*
X138904762Y-93523810D02*
X139619048Y-93761905D01*
X139619048Y-93142857D01*
X167852381Y-106461905D02*
X168661905Y-106461905D01*
X168757143Y-106414286D01*
X168804762Y-106366667D01*
X168852381Y-106271429D01*
X168852381Y-106080952D01*
X168804762Y-105985714D01*
X168757143Y-105938095D01*
X168661905Y-105890476D01*
X167852381Y-105890476D01*
X167852381Y-104938095D02*
X167852381Y-105414286D01*
X168328571Y-105461905D01*
X168280952Y-105414286D01*
X168233333Y-105319048D01*
X168233333Y-105080952D01*
X168280952Y-104985714D01*
X168328571Y-104938095D01*
X168423810Y-104890476D01*
X168661905Y-104890476D01*
X168757143Y-104938095D01*
X168804762Y-104985714D01*
X168852381Y-105080952D01*
X168852381Y-105319048D01*
X168804762Y-105414286D01*
X168757143Y-105461905D01*
X167852381Y-94761905D02*
X168661905Y-94761905D01*
X168757143Y-94714286D01*
X168804762Y-94666667D01*
X168852381Y-94571429D01*
X168852381Y-94380952D01*
X168804762Y-94285714D01*
X168757143Y-94238095D01*
X168661905Y-94190476D01*
X167852381Y-94190476D01*
X167852381Y-93285714D02*
X167852381Y-93476191D01*
X167900000Y-93571429D01*
X167947619Y-93619048D01*
X168090476Y-93714286D01*
X168280952Y-93761905D01*
X168661905Y-93761905D01*
X168757143Y-93714286D01*
X168804762Y-93666667D01*
X168852381Y-93571429D01*
X168852381Y-93380952D01*
X168804762Y-93285714D01*
X168757143Y-93238095D01*
X168661905Y-93190476D01*
X168423810Y-93190476D01*
X168328571Y-93238095D01*
X168280952Y-93285714D01*
X168233333Y-93380952D01*
X168233333Y-93571429D01*
X168280952Y-93666667D01*
X168328571Y-93714286D01*
X168423810Y-93761905D01*
X196302381Y-106511905D02*
X197111905Y-106511905D01*
X197207143Y-106464286D01*
X197254762Y-106416667D01*
X197302381Y-106321429D01*
X197302381Y-106130952D01*
X197254762Y-106035714D01*
X197207143Y-105988095D01*
X197111905Y-105940476D01*
X196302381Y-105940476D01*
X196302381Y-105559524D02*
X196302381Y-104892857D01*
X197302381Y-105321429D01*
X196552381Y-94861905D02*
X197361905Y-94861905D01*
X197457143Y-94814286D01*
X197504762Y-94766667D01*
X197552381Y-94671429D01*
X197552381Y-94480952D01*
X197504762Y-94385714D01*
X197457143Y-94338095D01*
X197361905Y-94290476D01*
X196552381Y-94290476D01*
X196980952Y-93671429D02*
X196933333Y-93766667D01*
X196885714Y-93814286D01*
X196790476Y-93861905D01*
X196742857Y-93861905D01*
X196647619Y-93814286D01*
X196600000Y-93766667D01*
X196552381Y-93671429D01*
X196552381Y-93480952D01*
X196600000Y-93385714D01*
X196647619Y-93338095D01*
X196742857Y-93290476D01*
X196790476Y-93290476D01*
X196885714Y-93338095D01*
X196933333Y-93385714D01*
X196980952Y-93480952D01*
X196980952Y-93671429D01*
X197028571Y-93766667D01*
X197076190Y-93814286D01*
X197171429Y-93861905D01*
X197361905Y-93861905D01*
X197457143Y-93814286D01*
X197504762Y-93766667D01*
X197552381Y-93671429D01*
X197552381Y-93480952D01*
X197504762Y-93385714D01*
X197457143Y-93338095D01*
X197361905Y-93290476D01*
X197171429Y-93290476D01*
X197076190Y-93338095D01*
X197028571Y-93385714D01*
X196980952Y-93480952D01*
X170632381Y-61398095D02*
X169632381Y-61398095D01*
X169632381Y-61017142D01*
X169680000Y-60921904D01*
X169727619Y-60874285D01*
X169822857Y-60826666D01*
X169965714Y-60826666D01*
X170060952Y-60874285D01*
X170108571Y-60921904D01*
X170156190Y-61017142D01*
X170156190Y-61398095D01*
X169632381Y-60493333D02*
X169632381Y-59826666D01*
X170632381Y-60255238D01*
X170632381Y-61398095D02*
X169632381Y-61398095D01*
X169632381Y-61017142D01*
X169680000Y-60921904D01*
X169727619Y-60874285D01*
X169822857Y-60826666D01*
X169965714Y-60826666D01*
X170060952Y-60874285D01*
X170108571Y-60921904D01*
X170156190Y-61017142D01*
X170156190Y-61398095D01*
X170060952Y-60255238D02*
X170013333Y-60350476D01*
X169965714Y-60398095D01*
X169870476Y-60445714D01*
X169822857Y-60445714D01*
X169727619Y-60398095D01*
X169680000Y-60350476D01*
X169632381Y-60255238D01*
X169632381Y-60064761D01*
X169680000Y-59969523D01*
X169727619Y-59921904D01*
X169822857Y-59874285D01*
X169870476Y-59874285D01*
X169965714Y-59921904D01*
X170013333Y-59969523D01*
X170060952Y-60064761D01*
X170060952Y-60255238D01*
X170108571Y-60350476D01*
X170156190Y-60398095D01*
X170251429Y-60445714D01*
X170441905Y-60445714D01*
X170537143Y-60398095D01*
X170584762Y-60350476D01*
X170632381Y-60255238D01*
X170632381Y-60064761D01*
X170584762Y-59969523D01*
X170537143Y-59921904D01*
X170441905Y-59874285D01*
X170251429Y-59874285D01*
X170156190Y-59921904D01*
X170108571Y-59969523D01*
X170060952Y-60064761D01*
X198572381Y-61698095D02*
X197572381Y-61698095D01*
X197572381Y-61317142D01*
X197620000Y-61221904D01*
X197667619Y-61174285D01*
X197762857Y-61126666D01*
X197905714Y-61126666D01*
X198000952Y-61174285D01*
X198048571Y-61221904D01*
X198096190Y-61317142D01*
X198096190Y-61698095D01*
X198572381Y-60650476D02*
X198572381Y-60460000D01*
X198524762Y-60364761D01*
X198477143Y-60317142D01*
X198334286Y-60221904D01*
X198143810Y-60174285D01*
X197762857Y-60174285D01*
X197667619Y-60221904D01*
X197620000Y-60269523D01*
X197572381Y-60364761D01*
X197572381Y-60555238D01*
X197620000Y-60650476D01*
X197667619Y-60698095D01*
X197762857Y-60745714D01*
X198000952Y-60745714D01*
X198096190Y-60698095D01*
X198143810Y-60650476D01*
X198191429Y-60555238D01*
X198191429Y-60364761D01*
X198143810Y-60269523D01*
X198096190Y-60221904D01*
X198000952Y-60174285D01*
X198572381Y-62174286D02*
X197572381Y-62174286D01*
X197572381Y-61793333D01*
X197620000Y-61698095D01*
X197667619Y-61650476D01*
X197762857Y-61602857D01*
X197905714Y-61602857D01*
X198000952Y-61650476D01*
X198048571Y-61698095D01*
X198096190Y-61793333D01*
X198096190Y-62174286D01*
X198572381Y-60650476D02*
X198572381Y-61221905D01*
X198572381Y-60936191D02*
X197572381Y-60936191D01*
X197715238Y-61031429D01*
X197810476Y-61126667D01*
X197858095Y-61221905D01*
X197572381Y-60031429D02*
X197572381Y-59936190D01*
X197620000Y-59840952D01*
X197667619Y-59793333D01*
X197762857Y-59745714D01*
X197953333Y-59698095D01*
X198191429Y-59698095D01*
X198381905Y-59745714D01*
X198477143Y-59793333D01*
X198524762Y-59840952D01*
X198572381Y-59936190D01*
X198572381Y-60031429D01*
X198524762Y-60126667D01*
X198477143Y-60174286D01*
X198381905Y-60221905D01*
X198191429Y-60269524D01*
X197953333Y-60269524D01*
X197762857Y-60221905D01*
X197667619Y-60174286D01*
X197620000Y-60126667D01*
X197572381Y-60031429D01*
X165733334Y-116757143D02*
X165685715Y-116804762D01*
X165542858Y-116852381D01*
X165447620Y-116852381D01*
X165304762Y-116804762D01*
X165209524Y-116709524D01*
X165161905Y-116614286D01*
X165114286Y-116423810D01*
X165114286Y-116280952D01*
X165161905Y-116090476D01*
X165209524Y-115995238D01*
X165304762Y-115900000D01*
X165447620Y-115852381D01*
X165542858Y-115852381D01*
X165685715Y-115900000D01*
X165733334Y-115947619D01*
X166209524Y-116852381D02*
X166400000Y-116852381D01*
X166495239Y-116804762D01*
X166542858Y-116757143D01*
X166638096Y-116614286D01*
X166685715Y-116423810D01*
X166685715Y-116042857D01*
X166638096Y-115947619D01*
X166590477Y-115900000D01*
X166495239Y-115852381D01*
X166304762Y-115852381D01*
X166209524Y-115900000D01*
X166161905Y-115947619D01*
X166114286Y-116042857D01*
X166114286Y-116280952D01*
X166161905Y-116376190D01*
X166209524Y-116423810D01*
X166304762Y-116471429D01*
X166495239Y-116471429D01*
X166590477Y-116423810D01*
X166638096Y-116376190D01*
X166685715Y-116280952D01*
X137852381Y-120638095D02*
X136852381Y-120638095D01*
X136852381Y-120257142D01*
X136900000Y-120161904D01*
X136947619Y-120114285D01*
X137042857Y-120066666D01*
X137185714Y-120066666D01*
X137280952Y-120114285D01*
X137328571Y-120161904D01*
X137376190Y-120257142D01*
X137376190Y-120638095D01*
X137852381Y-119114285D02*
X137852381Y-119685714D01*
X137852381Y-119400000D02*
X136852381Y-119400000D01*
X136995238Y-119495238D01*
X137090476Y-119590476D01*
X137138095Y-119685714D01*
X205733334Y-120802381D02*
X205400000Y-120326190D01*
X205161905Y-120802381D02*
X205161905Y-119802381D01*
X205542858Y-119802381D01*
X205638096Y-119850000D01*
X205685715Y-119897619D01*
X205733334Y-119992857D01*
X205733334Y-120135714D01*
X205685715Y-120230952D01*
X205638096Y-120278571D01*
X205542858Y-120326190D01*
X205161905Y-120326190D01*
X206685715Y-120802381D02*
X206114286Y-120802381D01*
X206400000Y-120802381D02*
X206400000Y-119802381D01*
X206304762Y-119945238D01*
X206209524Y-120040476D01*
X206114286Y-120088095D01*
X209733334Y-120902381D02*
X209400000Y-120426190D01*
X209161905Y-120902381D02*
X209161905Y-119902381D01*
X209542858Y-119902381D01*
X209638096Y-119950000D01*
X209685715Y-119997619D01*
X209733334Y-120092857D01*
X209733334Y-120235714D01*
X209685715Y-120330952D01*
X209638096Y-120378571D01*
X209542858Y-120426190D01*
X209161905Y-120426190D01*
X210114286Y-119997619D02*
X210161905Y-119950000D01*
X210257143Y-119902381D01*
X210495239Y-119902381D01*
X210590477Y-119950000D01*
X210638096Y-119997619D01*
X210685715Y-120092857D01*
X210685715Y-120188095D01*
X210638096Y-120330952D01*
X210066667Y-120902381D01*
X210685715Y-120902381D01*
X213583334Y-120952381D02*
X213250000Y-120476190D01*
X213011905Y-120952381D02*
X213011905Y-119952381D01*
X213392858Y-119952381D01*
X213488096Y-120000000D01*
X213535715Y-120047619D01*
X213583334Y-120142857D01*
X213583334Y-120285714D01*
X213535715Y-120380952D01*
X213488096Y-120428571D01*
X213392858Y-120476190D01*
X213011905Y-120476190D01*
X213916667Y-119952381D02*
X214535715Y-119952381D01*
X214202381Y-120333333D01*
X214345239Y-120333333D01*
X214440477Y-120380952D01*
X214488096Y-120428571D01*
X214535715Y-120523810D01*
X214535715Y-120761905D01*
X214488096Y-120857143D01*
X214440477Y-120904762D01*
X214345239Y-120952381D01*
X214059524Y-120952381D01*
X213964286Y-120904762D01*
X213916667Y-120857143D01*
X217383334Y-120902381D02*
X217050000Y-120426190D01*
X216811905Y-120902381D02*
X216811905Y-119902381D01*
X217192858Y-119902381D01*
X217288096Y-119950000D01*
X217335715Y-119997619D01*
X217383334Y-120092857D01*
X217383334Y-120235714D01*
X217335715Y-120330952D01*
X217288096Y-120378571D01*
X217192858Y-120426190D01*
X216811905Y-120426190D01*
X218240477Y-120235714D02*
X218240477Y-120902381D01*
X218002381Y-119854762D02*
X217764286Y-120569048D01*
X218383334Y-120569048D01*
X167052381Y-121411905D02*
X167861905Y-121411905D01*
X167957143Y-121364286D01*
X168004762Y-121316667D01*
X168052381Y-121221429D01*
X168052381Y-121030952D01*
X168004762Y-120935714D01*
X167957143Y-120888095D01*
X167861905Y-120840476D01*
X167052381Y-120840476D01*
X168052381Y-120316667D02*
X168052381Y-120126191D01*
X168004762Y-120030952D01*
X167957143Y-119983333D01*
X167814286Y-119888095D01*
X167623810Y-119840476D01*
X167242857Y-119840476D01*
X167147619Y-119888095D01*
X167100000Y-119935714D01*
X167052381Y-120030952D01*
X167052381Y-120221429D01*
X167100000Y-120316667D01*
X167147619Y-120364286D01*
X167242857Y-120411905D01*
X167480952Y-120411905D01*
X167576190Y-120364286D01*
X167623810Y-120316667D01*
X167671429Y-120221429D01*
X167671429Y-120030952D01*
X167623810Y-119935714D01*
X167576190Y-119888095D01*
X167480952Y-119840476D01*
X188688095Y-120904762D02*
X188830952Y-120952381D01*
X189069048Y-120952381D01*
X189164286Y-120904762D01*
X189211905Y-120857143D01*
X189259524Y-120761905D01*
X189259524Y-120666667D01*
X189211905Y-120571429D01*
X189164286Y-120523810D01*
X189069048Y-120476190D01*
X188878571Y-120428571D01*
X188783333Y-120380952D01*
X188735714Y-120333333D01*
X188688095Y-120238095D01*
X188688095Y-120142857D01*
X188735714Y-120047619D01*
X188783333Y-120000000D01*
X188878571Y-119952381D01*
X189116667Y-119952381D01*
X189259524Y-120000000D01*
X190211905Y-120952381D02*
X189640476Y-120952381D01*
X189926190Y-120952381D02*
X189926190Y-119952381D01*
X189830952Y-120095238D01*
X189735714Y-120190476D01*
X189640476Y-120238095D01*
X126461905Y-105802381D02*
X126461905Y-104802381D01*
X126842858Y-104802381D01*
X126938096Y-104850000D01*
X126985715Y-104897619D01*
X127033334Y-104992857D01*
X127033334Y-105135714D01*
X126985715Y-105230952D01*
X126938096Y-105278571D01*
X126842858Y-105326190D01*
X126461905Y-105326190D01*
X127414286Y-104897619D02*
X127461905Y-104850000D01*
X127557143Y-104802381D01*
X127795239Y-104802381D01*
X127890477Y-104850000D01*
X127938096Y-104897619D01*
X127985715Y-104992857D01*
X127985715Y-105088095D01*
X127938096Y-105230952D01*
X127366667Y-105802381D01*
X127985715Y-105802381D01*
X111785714Y-109452381D02*
X111785714Y-108452381D01*
X112166667Y-108452381D01*
X112261905Y-108500000D01*
X112309524Y-108547619D01*
X112357143Y-108642857D01*
X112357143Y-108785714D01*
X112309524Y-108880952D01*
X112261905Y-108928571D01*
X112166667Y-108976190D01*
X111785714Y-108976190D01*
X113309524Y-109452381D02*
X112738095Y-109452381D01*
X113023809Y-109452381D02*
X113023809Y-108452381D01*
X112928571Y-108595238D01*
X112833333Y-108690476D01*
X112738095Y-108738095D01*
X114261905Y-109452381D02*
X113690476Y-109452381D01*
X113976190Y-109452381D02*
X113976190Y-108452381D01*
X113880952Y-108595238D01*
X113785714Y-108690476D01*
X113690476Y-108738095D01*
M02*
