M48
;DRILL file {KiCad 4.0.3-stable} date 10/17/16 14:30:58
;FORMAT={-:-/ absolute / inch / decimal}
FMAT,2
INCH,TZ
T1C0.016
T2C0.030
T3C0.031
T4C0.032
T5C0.039
T6C0.040
%
G90
G05
M72
T1
X5.5709Y-3.9134
X5.6496Y-4.7106
X5.6732Y-3.9488
X5.75Y-4.7264
X5.7717Y-3.9882
X5.9941Y-4.7618
X6.0817Y-4.7313
X6.8012Y-3.5472
X6.9094Y-3.9232
X7.0315Y-3.9272
X7.0945Y-3.4547
X7.1024Y-3.9626
X7.6752Y-4.0177
X7.8799Y-3.5906
X7.9291Y-3.9685
X8.0315Y-4.0039
T2
X7.5394Y-4.3555
X7.5394Y-4.6555
X7.6394Y-4.3555
X7.6394Y-4.6555
X7.7394Y-4.3555
X7.7394Y-4.6555
X7.8394Y-4.3555
X7.8394Y-4.6555
T3
X4.4331Y-3.3614
X4.4331Y-3.6614
X4.4331Y-3.8181
X4.4331Y-4.1181
X4.5331Y-3.3614
X4.5331Y-3.6614
X4.5331Y-3.8181
X4.5331Y-4.1181
X4.6331Y-3.3614
X4.6331Y-3.6614
X4.6331Y-3.8181
X4.6331Y-4.1181
X4.7331Y-3.3614
X4.7331Y-3.6614
X4.7331Y-3.8181
X4.7331Y-4.1181
X4.8331Y-3.3614
X4.8331Y-3.6614
X4.8331Y-3.8181
X4.8331Y-4.1181
X4.9331Y-3.3614
X4.9331Y-3.6614
X4.9331Y-3.8181
X4.9331Y-4.1181
X5.0331Y-3.3614
X5.0331Y-3.6614
X5.0331Y-3.8181
X5.0331Y-4.1181
X5.1331Y-3.3614
X5.1331Y-3.6614
X5.1331Y-3.8181
X5.1331Y-4.1181
X5.2331Y-3.3614
X5.2331Y-3.6614
X5.3331Y-3.3614
X5.3331Y-3.6614
X5.4016Y-3.8228
X5.4016Y-4.1142
X5.5709Y-3.3614
X5.5709Y-3.6614
X5.5709Y-3.8181
X5.5709Y-4.1181
X5.6709Y-3.3614
X5.6709Y-3.6614
X5.6709Y-3.8181
X5.6709Y-4.1181
X5.7709Y-3.3614
X5.7709Y-3.6614
X5.7709Y-3.8181
X5.7709Y-4.1181
X5.8709Y-3.3614
X5.8709Y-3.6614
X5.8709Y-3.8181
X5.8709Y-4.1181
X5.9709Y-3.3614
X5.9709Y-3.6614
X5.9709Y-3.8181
X5.9709Y-4.1181
X6.0709Y-3.3614
X6.0709Y-3.6614
X6.0709Y-3.8181
X6.0709Y-4.1181
X6.1709Y-3.3614
X6.1709Y-3.6614
X6.1709Y-3.8181
X6.1709Y-4.1181
X6.2709Y-3.3614
X6.2709Y-3.6614
X6.2709Y-3.8181
X6.2709Y-4.1181
X6.3709Y-3.3614
X6.3709Y-3.6614
X6.4709Y-3.3614
X6.4709Y-3.6614
X6.5295Y-4.4154
X6.5354Y-3.8228
X6.5354Y-4.1142
X6.685Y-4.4067
X6.685Y-4.7067
X6.6969Y-3.8181
X6.6969Y-4.1181
X6.7008Y-3.3614
X6.7008Y-3.6614
X6.785Y-4.4067
X6.785Y-4.7067
X6.7969Y-3.8181
X6.7969Y-4.1181
X6.8008Y-3.3614
X6.8008Y-3.6614
X6.885Y-4.4067
X6.885Y-4.7067
X6.8969Y-3.8181
X6.8969Y-4.1181
X6.9008Y-3.3614
X6.9008Y-3.6614
X6.9016Y-2.9244
X6.9016Y-3.2244
X6.985Y-4.4067
X6.985Y-4.7067
X6.9969Y-3.8181
X6.9969Y-4.1181
X7.0008Y-3.3614
X7.0008Y-3.6614
X7.0016Y-2.9244
X7.0016Y-3.2244
X7.085Y-4.4067
X7.085Y-4.7067
X7.0969Y-3.8181
X7.0969Y-4.1181
X7.1008Y-3.3614
X7.1008Y-3.6614
X7.1016Y-2.9244
X7.1016Y-3.2244
X7.185Y-4.4067
X7.185Y-4.7067
X7.1969Y-3.8181
X7.1969Y-4.1181
X7.2008Y-3.3614
X7.2008Y-3.6614
X7.2016Y-2.9244
X7.2016Y-3.2244
X7.285Y-4.4067
X7.285Y-4.7067
X7.2969Y-3.8181
X7.2969Y-4.1181
X7.3008Y-3.3614
X7.3008Y-3.6614
X7.3016Y-2.9244
X7.3016Y-3.2244
X7.3969Y-3.8181
X7.3969Y-4.1181
X7.4008Y-3.3614
X7.4008Y-3.6614
X7.4016Y-2.9244
X7.4016Y-3.2244
X7.5008Y-3.3614
X7.5008Y-3.6614
X7.5016Y-2.9244
X7.5016Y-3.2244
X7.6008Y-3.3614
X7.6008Y-3.6614
X7.6016Y-2.9244
X7.6016Y-3.2244
X7.6693Y-4.1102
X7.6732Y-3.815
X7.8307Y-3.3614
X7.8307Y-3.6614
X7.8307Y-3.8142
X7.8307Y-4.1142
X7.9307Y-3.3614
X7.9307Y-3.6614
X7.9307Y-3.8142
X7.9307Y-4.1142
X8.0307Y-3.3614
X8.0307Y-3.6614
X8.0307Y-3.8142
X8.0307Y-4.1142
X8.0315Y-2.9244
X8.0315Y-3.2244
X8.1307Y-3.3614
X8.1307Y-3.6614
X8.1307Y-3.8142
X8.1307Y-4.1142
X8.1315Y-2.9244
X8.1315Y-3.2244
X8.2307Y-3.3614
X8.2307Y-3.6614
X8.2307Y-3.8142
X8.2307Y-4.1142
X8.2315Y-2.9244
X8.2315Y-3.2244
X8.3307Y-3.3614
X8.3307Y-3.6614
X8.3307Y-3.8142
X8.3307Y-4.1142
X8.3315Y-2.9244
X8.3315Y-3.2244
X8.4307Y-3.3614
X8.4307Y-3.6614
X8.4307Y-3.8142
X8.4307Y-4.1142
X8.4315Y-2.9244
X8.4315Y-3.2244
X8.5307Y-3.3614
X8.5307Y-3.6614
X8.5307Y-3.8142
X8.5307Y-4.1142
X8.5315Y-2.9244
X8.5315Y-3.2244
X8.6307Y-3.3614
X8.6307Y-3.6614
X8.6315Y-2.9244
X8.6315Y-3.2244
X8.7307Y-3.3614
X8.7307Y-3.6614
X8.7315Y-2.9244
X8.7315Y-3.2244
X8.7953Y-3.8189
X8.7953Y-3.9961
T4
X5.3031Y-3.8228
X5.3031Y-4.1142
X6.437Y-3.8228
X6.437Y-4.1142
X6.5295Y-4.5138
X7.5709Y-4.1102
X7.5748Y-3.815
X8.6969Y-3.8189
X8.6969Y-3.9961
T5
X8.1063Y-4.3594
X8.1063Y-4.6594
X8.2579Y-4.3594
X8.2579Y-4.6594
X8.4134Y-4.3594
X8.4134Y-4.6594
X8.5669Y-4.3594
X8.5669Y-4.6594
T6
X4.4469Y-4.3917
X4.4469Y-4.4917
X4.6339Y-2.6378
X4.6339Y-2.7756
X4.7339Y-2.6378
X4.7339Y-2.7756
X4.8339Y-2.6378
X4.8339Y-2.7756
X4.9339Y-2.6378
X4.9339Y-2.7756
X5.0079Y-4.3484
X5.0079Y-4.4484
X5.0079Y-4.5484
X5.0079Y-4.6484
X5.0339Y-2.6378
X5.0339Y-2.7756
X5.1079Y-4.3484
X5.1079Y-4.4484
X5.1079Y-4.5484
X5.1079Y-4.6484
X5.1339Y-2.6378
X5.1339Y-2.7756
X5.2339Y-2.6378
X5.2339Y-2.7756
X5.3339Y-2.6378
X5.3339Y-2.7756
X5.5Y-4.5594
X5.5Y-4.6594
X5.6Y-4.5594
X5.6Y-4.6594
X5.7Y-4.5594
X5.7Y-4.6594
X5.7717Y-2.6378
X5.7717Y-2.7756
X5.8Y-4.5594
X5.8Y-4.6594
X5.8717Y-2.6378
X5.8717Y-2.7756
X5.9Y-4.5594
X5.9Y-4.6594
X5.9717Y-2.6378
X5.9717Y-2.7756
X6.Y-4.5594
X6.Y-4.6594
X6.0717Y-2.6378
X6.0717Y-2.7756
X6.1Y-4.5594
X6.1Y-4.6594
X6.1717Y-2.6378
X6.1717Y-2.7756
X6.2Y-4.5594
X6.2Y-4.6594
X6.2717Y-2.6378
X6.2717Y-2.7756
X6.3717Y-2.6378
X6.3717Y-2.7756
X6.4717Y-2.6378
X6.4717Y-2.7756
X6.9016Y-2.6417
X6.9016Y-2.7795
X7.0016Y-2.6417
X7.0016Y-2.7795
X7.1016Y-2.6417
X7.1016Y-2.7795
X7.2016Y-2.6417
X7.2016Y-2.7795
X7.3016Y-2.6417
X7.3016Y-2.7795
X7.4016Y-2.6417
X7.4016Y-2.7795
X7.5016Y-2.6417
X7.5016Y-2.7795
X7.6016Y-2.6417
X7.6016Y-2.7795
X8.0315Y-2.6417
X8.0315Y-2.7795
X8.1315Y-2.6417
X8.1315Y-2.7795
X8.2315Y-2.6417
X8.2315Y-2.7795
X8.3315Y-2.6417
X8.3315Y-2.7795
X8.4315Y-2.6417
X8.4315Y-2.7795
X8.5315Y-2.6417
X8.5315Y-2.7795
X8.6315Y-2.6417
X8.6315Y-2.7795
X8.7315Y-2.6417
X8.7315Y-2.7795
T0
M30
