G04 #@! TF.FileFunction,Copper,L1,Top,Signal*
%FSLAX46Y46*%
G04 Gerber Fmt 4.6, Leading zero omitted, Abs format (unit mm)*
G04 Created by KiCad (PCBNEW 4.0.3-stable) date 10/17/16 14:31:28*
%MOMM*%
%LPD*%
G01*
G04 APERTURE LIST*
%ADD10C,0.100000*%
%ADD11R,1.300000X1.300000*%
%ADD12C,1.300000*%
%ADD13R,1.727200X2.032000*%
%ADD14O,1.727200X2.032000*%
%ADD15O,1.600000X2.300000*%
%ADD16R,1.727200X1.727200*%
%ADD17O,1.727200X1.727200*%
%ADD18C,1.998980*%
%ADD19R,1.524000X1.824000*%
%ADD20O,1.524000X1.824000*%
%ADD21R,2.032000X2.032000*%
%ADD22O,2.032000X2.032000*%
%ADD23C,0.600000*%
%ADD24C,1.000000*%
%ADD25C,0.400000*%
%ADD26C,0.350000*%
%ADD27C,0.250000*%
G04 APERTURE END LIST*
D10*
D11*
X137200000Y-104500000D03*
D12*
X134700000Y-104500000D03*
D11*
X137200000Y-97100000D03*
D12*
X134700000Y-97100000D03*
D11*
X166000000Y-104500000D03*
D12*
X163500000Y-104500000D03*
D11*
X166000000Y-97100000D03*
D12*
X163500000Y-97100000D03*
D11*
X194800000Y-104400000D03*
D12*
X192300000Y-104400000D03*
D11*
X194900000Y-96900000D03*
D12*
X192400000Y-96900000D03*
D11*
X223400000Y-101500000D03*
D12*
X220900000Y-101500000D03*
D11*
X223400000Y-97000000D03*
D12*
X220900000Y-97000000D03*
D13*
X117700000Y-70500000D03*
D14*
X120240000Y-70500000D03*
X122780000Y-70500000D03*
X125320000Y-70500000D03*
X127860000Y-70500000D03*
X130400000Y-70500000D03*
X132940000Y-70500000D03*
X135480000Y-70500000D03*
D13*
X117700000Y-67000000D03*
D14*
X120240000Y-67000000D03*
X122780000Y-67000000D03*
X125320000Y-67000000D03*
X127860000Y-67000000D03*
X130400000Y-67000000D03*
X132940000Y-67000000D03*
X135480000Y-67000000D03*
D13*
X146600000Y-70500000D03*
D14*
X149140000Y-70500000D03*
X151680000Y-70500000D03*
X154220000Y-70500000D03*
X156760000Y-70500000D03*
X159300000Y-70500000D03*
X161840000Y-70500000D03*
X164380000Y-70500000D03*
D13*
X146600000Y-67000000D03*
D14*
X149140000Y-67000000D03*
X151680000Y-67000000D03*
X154220000Y-67000000D03*
X156760000Y-67000000D03*
X159300000Y-67000000D03*
X161840000Y-67000000D03*
X164380000Y-67000000D03*
D15*
X175300000Y-81900000D03*
X177840000Y-81900000D03*
X180380000Y-81900000D03*
X182920000Y-81900000D03*
X185460000Y-81900000D03*
X188000000Y-81900000D03*
X190540000Y-81900000D03*
X193080000Y-81900000D03*
X193080000Y-74280000D03*
X190540000Y-74280000D03*
X188000000Y-74280000D03*
X185460000Y-74280000D03*
X182920000Y-74280000D03*
X180380000Y-74280000D03*
X177840000Y-74280000D03*
X175300000Y-74280000D03*
X204000000Y-81900000D03*
X206540000Y-81900000D03*
X209080000Y-81900000D03*
X211620000Y-81900000D03*
X214160000Y-81900000D03*
X216700000Y-81900000D03*
X219240000Y-81900000D03*
X221780000Y-81900000D03*
X221780000Y-74280000D03*
X219240000Y-74280000D03*
X216700000Y-74280000D03*
X214160000Y-74280000D03*
X211620000Y-74280000D03*
X209080000Y-74280000D03*
X206540000Y-74280000D03*
X204000000Y-74280000D03*
X112600000Y-104600000D03*
X115140000Y-104600000D03*
X117680000Y-104600000D03*
X120220000Y-104600000D03*
X122760000Y-104600000D03*
X125300000Y-104600000D03*
X127840000Y-104600000D03*
X130380000Y-104600000D03*
X130380000Y-96980000D03*
X127840000Y-96980000D03*
X125300000Y-96980000D03*
X122760000Y-96980000D03*
X120220000Y-96980000D03*
X117680000Y-96980000D03*
X115140000Y-96980000D03*
X112600000Y-96980000D03*
X112600000Y-93000000D03*
X115140000Y-93000000D03*
X117680000Y-93000000D03*
X120220000Y-93000000D03*
X122760000Y-93000000D03*
X125300000Y-93000000D03*
X127840000Y-93000000D03*
X130380000Y-93000000D03*
X132920000Y-93000000D03*
X135460000Y-93000000D03*
X135460000Y-85380000D03*
X132920000Y-85380000D03*
X130380000Y-85380000D03*
X127840000Y-85380000D03*
X125300000Y-85380000D03*
X122760000Y-85380000D03*
X120220000Y-85380000D03*
X117680000Y-85380000D03*
X115140000Y-85380000D03*
X112600000Y-85380000D03*
X141500000Y-104600000D03*
X144040000Y-104600000D03*
X146580000Y-104600000D03*
X149120000Y-104600000D03*
X151660000Y-104600000D03*
X154200000Y-104600000D03*
X156740000Y-104600000D03*
X159280000Y-104600000D03*
X159280000Y-96980000D03*
X156740000Y-96980000D03*
X154200000Y-96980000D03*
X151660000Y-96980000D03*
X149120000Y-96980000D03*
X146580000Y-96980000D03*
X144040000Y-96980000D03*
X141500000Y-96980000D03*
X141500000Y-93000000D03*
X144040000Y-93000000D03*
X146580000Y-93000000D03*
X149120000Y-93000000D03*
X151660000Y-93000000D03*
X154200000Y-93000000D03*
X156740000Y-93000000D03*
X159280000Y-93000000D03*
X161820000Y-93000000D03*
X164360000Y-93000000D03*
X164360000Y-85380000D03*
X161820000Y-85380000D03*
X159280000Y-85380000D03*
X156740000Y-85380000D03*
X154200000Y-85380000D03*
X151660000Y-85380000D03*
X149120000Y-85380000D03*
X146580000Y-85380000D03*
X144040000Y-85380000D03*
X141500000Y-85380000D03*
X170100000Y-104600000D03*
X172640000Y-104600000D03*
X175180000Y-104600000D03*
X177720000Y-104600000D03*
X180260000Y-104600000D03*
X182800000Y-104600000D03*
X185340000Y-104600000D03*
X187880000Y-104600000D03*
X187880000Y-96980000D03*
X185340000Y-96980000D03*
X182800000Y-96980000D03*
X180260000Y-96980000D03*
X177720000Y-96980000D03*
X175180000Y-96980000D03*
X172640000Y-96980000D03*
X170100000Y-96980000D03*
X170200000Y-93000000D03*
X172740000Y-93000000D03*
X175280000Y-93000000D03*
X177820000Y-93000000D03*
X180360000Y-93000000D03*
X182900000Y-93000000D03*
X185440000Y-93000000D03*
X187980000Y-93000000D03*
X190520000Y-93000000D03*
X193060000Y-93000000D03*
X193060000Y-85380000D03*
X190520000Y-85380000D03*
X187980000Y-85380000D03*
X185440000Y-85380000D03*
X182900000Y-85380000D03*
X180360000Y-85380000D03*
X177820000Y-85380000D03*
X175280000Y-85380000D03*
X172740000Y-85380000D03*
X170200000Y-85380000D03*
X198900000Y-104500000D03*
X201440000Y-104500000D03*
X203980000Y-104500000D03*
X206520000Y-104500000D03*
X209060000Y-104500000D03*
X211600000Y-104500000D03*
X214140000Y-104500000D03*
X216680000Y-104500000D03*
X216680000Y-96880000D03*
X214140000Y-96880000D03*
X211600000Y-96880000D03*
X209060000Y-96880000D03*
X206520000Y-96880000D03*
X203980000Y-96880000D03*
X201440000Y-96880000D03*
X198900000Y-96880000D03*
X198900000Y-93000000D03*
X201440000Y-93000000D03*
X203980000Y-93000000D03*
X206520000Y-93000000D03*
X209060000Y-93000000D03*
X211600000Y-93000000D03*
X214140000Y-93000000D03*
X216680000Y-93000000D03*
X219220000Y-93000000D03*
X221760000Y-93000000D03*
X221760000Y-85380000D03*
X219220000Y-85380000D03*
X216680000Y-85380000D03*
X214140000Y-85380000D03*
X211600000Y-85380000D03*
X209060000Y-85380000D03*
X206520000Y-85380000D03*
X203980000Y-85380000D03*
X201440000Y-85380000D03*
X198900000Y-85380000D03*
D13*
X175300000Y-70600000D03*
D14*
X177840000Y-70600000D03*
X180380000Y-70600000D03*
X182920000Y-70600000D03*
X185460000Y-70600000D03*
X188000000Y-70600000D03*
X190540000Y-70600000D03*
X193080000Y-70600000D03*
D13*
X175300000Y-67100000D03*
D14*
X177840000Y-67100000D03*
X180380000Y-67100000D03*
X182920000Y-67100000D03*
X185460000Y-67100000D03*
X188000000Y-67100000D03*
X190540000Y-67100000D03*
X193080000Y-67100000D03*
D13*
X204000000Y-67100000D03*
D14*
X206540000Y-67100000D03*
X209080000Y-67100000D03*
X211620000Y-67100000D03*
X214160000Y-67100000D03*
X216700000Y-67100000D03*
X219240000Y-67100000D03*
X221780000Y-67100000D03*
D13*
X204000000Y-70600000D03*
D14*
X206540000Y-70600000D03*
X209080000Y-70600000D03*
X211620000Y-70600000D03*
X214160000Y-70600000D03*
X216700000Y-70600000D03*
X219240000Y-70600000D03*
X221780000Y-70600000D03*
D11*
X165850000Y-112150000D03*
D12*
X165850000Y-114650000D03*
D16*
X139700000Y-118350000D03*
D17*
X139700000Y-115810000D03*
X142240000Y-118350000D03*
X142240000Y-115810000D03*
X144780000Y-118350000D03*
X144780000Y-115810000D03*
X147320000Y-118350000D03*
X147320000Y-115810000D03*
X149860000Y-118350000D03*
X149860000Y-115810000D03*
X152400000Y-118350000D03*
X152400000Y-115810000D03*
X154940000Y-118350000D03*
X154940000Y-115810000D03*
X157480000Y-118350000D03*
X157480000Y-115810000D03*
D18*
X205900000Y-118350000D03*
X205900000Y-110730000D03*
X209750000Y-118350000D03*
X209750000Y-110730000D03*
X213700000Y-118350000D03*
X213700000Y-110730000D03*
X217600000Y-118350000D03*
X217600000Y-110730000D03*
D15*
X169800000Y-119550000D03*
X172340000Y-119550000D03*
X174880000Y-119550000D03*
X177420000Y-119550000D03*
X179960000Y-119550000D03*
X182500000Y-119550000D03*
X185040000Y-119550000D03*
X185040000Y-111930000D03*
X182500000Y-111930000D03*
X179960000Y-111930000D03*
X177420000Y-111930000D03*
X174880000Y-111930000D03*
X172340000Y-111930000D03*
X169800000Y-111930000D03*
D19*
X191500000Y-118250000D03*
D20*
X191500000Y-110630000D03*
X194040000Y-118250000D03*
X194040000Y-110630000D03*
X196580000Y-118250000D03*
X196580000Y-110630000D03*
X199120000Y-118250000D03*
X199120000Y-110630000D03*
D16*
X127200000Y-110450000D03*
D17*
X129740000Y-110450000D03*
X127200000Y-112990000D03*
X129740000Y-112990000D03*
X127200000Y-115530000D03*
X129740000Y-115530000D03*
X127200000Y-118070000D03*
X129740000Y-118070000D03*
D21*
X112950000Y-111550000D03*
D22*
X112950000Y-114090000D03*
D23*
X194950000Y-102050000D03*
X200150000Y-91200000D03*
X172750000Y-90100000D03*
X201400000Y-100800000D03*
X175500000Y-99650000D03*
X204000000Y-101700000D03*
X178600000Y-99750000D03*
X180400000Y-100650000D03*
X141500000Y-99400000D03*
X144100000Y-100300000D03*
X146600000Y-101300000D03*
X143500000Y-119650000D03*
X146050000Y-120050000D03*
X152250000Y-120950000D03*
X154475000Y-120175000D03*
X180200000Y-87750000D03*
D24*
X165850000Y-112150000D02*
X165850000Y-104650000D01*
X165850000Y-104650000D02*
X166000000Y-104500000D01*
X223400000Y-101500000D02*
X223350000Y-101550000D01*
X223350000Y-101550000D02*
X223350000Y-114200000D01*
X223350000Y-114200000D02*
X219200000Y-118350000D01*
X219200000Y-118350000D02*
X217600000Y-118350000D01*
X198900000Y-85380000D02*
X198900000Y-78350000D01*
X170200000Y-85380000D02*
X170200000Y-81650000D01*
X173500000Y-78350000D02*
X198900000Y-78350000D01*
X170200000Y-81650000D02*
X173500000Y-78350000D01*
X224050000Y-79500000D02*
X224050000Y-96350000D01*
X198900000Y-78350000D02*
X222900000Y-78350000D01*
X222900000Y-78350000D02*
X224050000Y-79500000D01*
X224050000Y-96350000D02*
X223400000Y-97000000D01*
X141500000Y-85380000D02*
X141500000Y-82250000D01*
X141500000Y-82250000D02*
X140900000Y-81650000D01*
X112600000Y-85380000D02*
X112600000Y-84000000D01*
X112600000Y-84000000D02*
X114950000Y-81650000D01*
X114950000Y-81650000D02*
X140900000Y-81650000D01*
X170200000Y-83200000D02*
X170200000Y-85380000D01*
X168650000Y-81650000D02*
X170200000Y-83200000D01*
X140900000Y-81650000D02*
X168650000Y-81650000D01*
X166000000Y-104500000D02*
X166000000Y-97100000D01*
X166000000Y-97100000D02*
X166120000Y-96980000D01*
X166120000Y-96980000D02*
X170100000Y-96980000D01*
X198900000Y-96880000D02*
X194920000Y-96880000D01*
X194920000Y-96880000D02*
X194900000Y-96900000D01*
X182800000Y-104600000D02*
X182800000Y-102650000D01*
X182800000Y-102650000D02*
X183400000Y-102050000D01*
X166000000Y-104500000D02*
X166000000Y-103600000D01*
X166000000Y-103600000D02*
X167550000Y-102050000D01*
X167550000Y-102050000D02*
X183400000Y-102050000D01*
X183400000Y-102050000D02*
X194950000Y-102050000D01*
X185040000Y-119550000D02*
X185040000Y-117140000D01*
X185040000Y-117140000D02*
X182550000Y-114650000D01*
X165850000Y-114650000D02*
X165250000Y-114650000D01*
X165250000Y-114650000D02*
X163500000Y-112900000D01*
X163500000Y-112900000D02*
X163500000Y-104500000D01*
X182550000Y-114650000D02*
X165850000Y-114650000D01*
X184700000Y-116800000D02*
X182550000Y-114650000D01*
X163500000Y-97100000D02*
X163500000Y-95450000D01*
X164360000Y-94590000D02*
X164360000Y-93000000D01*
X163500000Y-95450000D02*
X164360000Y-94590000D01*
X163500000Y-104500000D02*
X163500000Y-97100000D01*
X187880000Y-104600000D02*
X187880000Y-107100000D01*
X206520000Y-104500000D02*
X206520000Y-107020000D01*
X206520000Y-107020000D02*
X206600000Y-107100000D01*
X209200000Y-107100000D02*
X209200000Y-104640000D01*
X209200000Y-104640000D02*
X209060000Y-104500000D01*
X178500000Y-107100000D02*
X178300000Y-107100000D01*
X178300000Y-107100000D02*
X177720000Y-106520000D01*
X177720000Y-106520000D02*
X177720000Y-104600000D01*
X187880000Y-107100000D02*
X178500000Y-107100000D01*
X215950000Y-107100000D02*
X209200000Y-107100000D01*
X209200000Y-107100000D02*
X206600000Y-107100000D01*
X206600000Y-107100000D02*
X187880000Y-107100000D01*
X215950000Y-107100000D02*
X220250000Y-107100000D01*
X220250000Y-107100000D02*
X220900000Y-107750000D01*
X215950000Y-107100000D02*
X216680000Y-106370000D01*
X216680000Y-106370000D02*
X216680000Y-104500000D01*
X187880000Y-104600000D02*
X192100000Y-104600000D01*
X192100000Y-104600000D02*
X192300000Y-104400000D01*
X199120000Y-118250000D02*
X200150000Y-118250000D01*
X200150000Y-118250000D02*
X202250000Y-116150000D01*
X202250000Y-116150000D02*
X216150000Y-116150000D01*
X216150000Y-116150000D02*
X220900000Y-111400000D01*
X220900000Y-111400000D02*
X220900000Y-107750000D01*
X220900000Y-107750000D02*
X220900000Y-101500000D01*
X199120000Y-118250000D02*
X196580000Y-118250000D01*
X196580000Y-118250000D02*
X194040000Y-118250000D01*
X194040000Y-118250000D02*
X191500000Y-118250000D01*
X191500000Y-118250000D02*
X190200000Y-119550000D01*
X190200000Y-119550000D02*
X185040000Y-119550000D01*
X142240000Y-115810000D02*
X139700000Y-115810000D01*
D25*
X200150000Y-91100000D02*
X200150000Y-91200000D01*
X199150000Y-90100000D02*
X200150000Y-91100000D01*
X172750000Y-90100000D02*
X199150000Y-90100000D01*
X197700000Y-99000000D02*
X197800000Y-99000000D01*
X199600000Y-100800000D02*
X201400000Y-100800000D01*
X197800000Y-99000000D02*
X199600000Y-100800000D01*
X177150000Y-99000000D02*
X176150000Y-99000000D01*
X176150000Y-99000000D02*
X175500000Y-99650000D01*
X177150000Y-99000000D02*
X197700000Y-99000000D01*
X197000000Y-99850000D02*
X197150000Y-99850000D01*
X199000000Y-101700000D02*
X204000000Y-101700000D01*
X197150000Y-99850000D02*
X199000000Y-101700000D01*
X178700000Y-99850000D02*
X197000000Y-99850000D01*
X178600000Y-99750000D02*
X178700000Y-99850000D01*
X196100000Y-100650000D02*
X196600000Y-100650000D01*
X211400000Y-102600000D02*
X211600000Y-102800000D01*
X211600000Y-102800000D02*
X211600000Y-104500000D01*
X180400000Y-100650000D02*
X196100000Y-100650000D01*
X196600000Y-100650000D02*
X198550000Y-102600000D01*
X198550000Y-102600000D02*
X211400000Y-102600000D01*
D26*
X148600000Y-114400000D02*
X148600000Y-117090000D01*
D25*
X141500000Y-104600000D02*
X141500000Y-107350000D01*
X148550000Y-114400000D02*
X145200000Y-111050000D01*
D27*
X148600000Y-114400000D02*
X148550000Y-114400000D01*
D25*
X145200000Y-111050000D02*
X141500000Y-107350000D01*
D26*
X148600000Y-117090000D02*
X149860000Y-118350000D01*
D25*
X116650000Y-99400000D02*
X116050000Y-99400000D01*
X112600000Y-102850000D02*
X112600000Y-104600000D01*
X116050000Y-99400000D02*
X112600000Y-102850000D01*
X116650000Y-99400000D02*
X141500000Y-99400000D01*
X119100000Y-100300000D02*
X117900000Y-100300000D01*
X115140000Y-103060000D02*
X115140000Y-104600000D01*
X117900000Y-100300000D02*
X115140000Y-103060000D01*
D27*
X147100000Y-110150000D02*
X147100000Y-110100000D01*
D25*
X144040000Y-107040000D02*
X144040000Y-104600000D01*
X147100000Y-110100000D02*
X144040000Y-107040000D01*
D27*
X151150000Y-114350000D02*
X151150000Y-114200000D01*
D25*
X151150000Y-114200000D02*
X147100000Y-110150000D01*
D27*
X152400000Y-118350000D02*
X152400000Y-118250000D01*
D26*
X152400000Y-118250000D02*
X151150000Y-117000000D01*
X151150000Y-117000000D02*
X151150000Y-114350000D01*
D25*
X119100000Y-100300000D02*
X144100000Y-100300000D01*
X121150000Y-101279998D02*
X119820002Y-101279998D01*
X117680000Y-103420000D02*
X117680000Y-104600000D01*
X119820002Y-101279998D02*
X117680000Y-103420000D01*
D26*
X154940000Y-118350000D02*
X154940000Y-118140000D01*
X154940000Y-118140000D02*
X153650000Y-116850000D01*
X153650000Y-116850000D02*
X153650000Y-114500000D01*
D25*
X153650000Y-114500000D02*
X148050000Y-108900000D01*
D27*
X148050000Y-108900000D02*
X148000000Y-108900000D01*
D25*
X148000000Y-108900000D02*
X146580000Y-107480000D01*
X146580000Y-107480000D02*
X146580000Y-104600000D01*
X146600000Y-101279998D02*
X121150000Y-101279998D01*
X146600000Y-101300000D02*
X146600000Y-101279998D01*
X122760000Y-104600000D02*
X122760000Y-103340000D01*
X122760000Y-103340000D02*
X123650000Y-102450000D01*
D26*
X157480000Y-118350000D02*
X157480000Y-118130000D01*
X157480000Y-118130000D02*
X156200000Y-116850000D01*
X156200000Y-116850000D02*
X156200000Y-108700000D01*
D25*
X156200000Y-108700000D02*
X154200000Y-106700000D01*
X154200000Y-106700000D02*
X154200000Y-104600000D01*
X139350000Y-102450000D02*
X123650000Y-102450000D01*
X154050000Y-102450000D02*
X139350000Y-102450000D01*
X154200000Y-102600000D02*
X154200000Y-104600000D01*
X154050000Y-102450000D02*
X154200000Y-102600000D01*
X164400000Y-117000000D02*
X173650000Y-117000000D01*
X174880000Y-118230000D02*
X174880000Y-119550000D01*
X173650000Y-117000000D02*
X174880000Y-118230000D01*
X160950000Y-113200000D02*
X160950000Y-113550000D01*
X160950000Y-113550000D02*
X164400000Y-117000000D01*
X174880000Y-119550000D02*
X174880000Y-118630000D01*
X140350000Y-90800000D02*
X157150000Y-90800000D01*
X157150000Y-90800000D02*
X158050000Y-91700000D01*
X158050000Y-91700000D02*
X158050000Y-99400000D01*
X158050000Y-99400000D02*
X160950000Y-102300000D01*
X160950000Y-102300000D02*
X160950000Y-113200000D01*
X141500000Y-93000000D02*
X141500000Y-91700000D01*
X141500000Y-91700000D02*
X140600000Y-90800000D01*
X112600000Y-93000000D02*
X112600000Y-91200000D01*
X113000000Y-90800000D02*
X113100000Y-90800000D01*
X113100000Y-90800000D02*
X113900000Y-90800000D01*
X113900000Y-90800000D02*
X140350000Y-90800000D01*
X140350000Y-90800000D02*
X140600000Y-90800000D01*
X112600000Y-91200000D02*
X113000000Y-90800000D01*
X161850000Y-113000000D02*
X165050000Y-116200000D01*
X168275000Y-116200000D02*
X165050000Y-116200000D01*
X168275000Y-116200000D02*
X181400000Y-116200000D01*
X181400000Y-116200000D02*
X182500000Y-117300000D01*
X182500000Y-117300000D02*
X182500000Y-119550000D01*
X142500000Y-89700000D02*
X158850000Y-89700000D01*
X158850000Y-89700000D02*
X160600000Y-91450000D01*
X160600000Y-91450000D02*
X160600000Y-100200000D01*
X160600000Y-100200000D02*
X161850000Y-101450000D01*
X161850000Y-101450000D02*
X161850000Y-113000000D01*
X115140000Y-85380000D02*
X115140000Y-87690000D01*
X144040000Y-88160000D02*
X144040000Y-85380000D01*
X142500000Y-89700000D02*
X144040000Y-88160000D01*
X117150000Y-89700000D02*
X142500000Y-89700000D01*
X115140000Y-87690000D02*
X117150000Y-89700000D01*
X115140000Y-85380000D02*
X115140000Y-84310000D01*
X129740000Y-110450000D02*
X131450000Y-110450000D01*
X135350000Y-114350000D02*
X131450000Y-110450000D01*
X135350000Y-118600000D02*
X135350000Y-114350000D01*
X137000000Y-120250000D02*
X135350000Y-118600000D01*
X142900000Y-120250000D02*
X137000000Y-120250000D01*
X142900000Y-120250000D02*
X143500000Y-119650000D01*
X144900000Y-121200000D02*
X146050000Y-120050000D01*
X144900000Y-121200000D02*
X136150000Y-121200000D01*
X136150000Y-121200000D02*
X134000000Y-119050000D01*
X134000000Y-119050000D02*
X134000000Y-115650000D01*
X134000000Y-115650000D02*
X131340000Y-112990000D01*
X129740000Y-112990000D02*
X131340000Y-112990000D01*
X129740000Y-115530000D02*
X131080000Y-115530000D01*
X132850000Y-117300000D02*
X131080000Y-115530000D01*
X132850000Y-119550000D02*
X132850000Y-117300000D01*
X135450000Y-122150000D02*
X132850000Y-119550000D01*
X151050000Y-122150000D02*
X135450000Y-122150000D01*
X151050000Y-122150000D02*
X152250000Y-120950000D01*
X129740000Y-118070000D02*
X131020000Y-118070000D01*
X131950000Y-119000000D02*
X131020000Y-118070000D01*
X131950000Y-120300000D02*
X131950000Y-119000000D01*
X134600000Y-122950000D02*
X131950000Y-120300000D01*
X151700000Y-122950000D02*
X134600000Y-122950000D01*
X151700000Y-122950000D02*
X154475000Y-120175000D01*
D26*
X174880000Y-111930000D02*
X174880000Y-110870000D01*
X174880000Y-110870000D02*
X177400000Y-108350000D01*
D25*
X177400000Y-108350000D02*
X198100000Y-108350000D01*
X198100000Y-108350000D02*
X199120000Y-109370000D01*
X199120000Y-109370000D02*
X199120000Y-110630000D01*
X199120000Y-110630000D02*
X205800000Y-110630000D01*
X205800000Y-110630000D02*
X205900000Y-110730000D01*
X195925000Y-109025000D02*
X183725000Y-109025000D01*
X182500000Y-110250000D02*
X182500000Y-111930000D01*
X183725000Y-109025000D02*
X182500000Y-110250000D01*
X196580000Y-109680000D02*
X196580000Y-110630000D01*
X195925000Y-109025000D02*
X196580000Y-109680000D01*
X196580000Y-110630000D02*
X196580000Y-111030000D01*
X196580000Y-111030000D02*
X197900000Y-112350000D01*
X197900000Y-112350000D02*
X208130000Y-112350000D01*
X208130000Y-112350000D02*
X209750000Y-110730000D01*
X194040000Y-110630000D02*
X194040000Y-111590000D01*
X211380000Y-113050000D02*
X213700000Y-110730000D01*
X195500000Y-113050000D02*
X211380000Y-113050000D01*
X194040000Y-111590000D02*
X195500000Y-113050000D01*
X191500000Y-110630000D02*
X191500000Y-111350000D01*
X191500000Y-111350000D02*
X193900000Y-113750000D01*
X193900000Y-113750000D02*
X214580000Y-113750000D01*
X214580000Y-113750000D02*
X217600000Y-110730000D01*
X170525000Y-91325000D02*
X170700000Y-91150000D01*
X198900000Y-91700000D02*
X198900000Y-93000000D01*
X198350000Y-91150000D02*
X198900000Y-91700000D01*
X170700000Y-91150000D02*
X198350000Y-91150000D01*
D26*
X198900000Y-93000000D02*
X198900000Y-92350000D01*
D25*
X170200000Y-91650000D02*
X170200000Y-93000000D01*
X170525000Y-91325000D02*
X170200000Y-91650000D01*
X180200000Y-87750000D02*
X180200000Y-87700000D01*
X201100002Y-86999998D02*
X200400000Y-87700000D01*
X201440000Y-86660000D02*
X201440000Y-85380000D01*
X201100002Y-86999998D02*
X201440000Y-86660000D01*
X200400000Y-87700000D02*
X180200000Y-87700000D01*
X172740000Y-86690000D02*
X172740000Y-85380000D01*
X180200000Y-87700000D02*
X173750000Y-87700000D01*
X173750000Y-87700000D02*
X172740000Y-86690000D01*
X172740000Y-85380000D02*
X172740000Y-86090000D01*
M02*
