G04 #@! TF.FileFunction,Soldermask,Bot*
%FSLAX46Y46*%
G04 Gerber Fmt 4.6, Leading zero omitted, Abs format (unit mm)*
G04 Created by KiCad (PCBNEW 4.0.3-stable) date 10/17/16 14:31:28*
%MOMM*%
%LPD*%
G01*
G04 APERTURE LIST*
%ADD10C,0.100000*%
%ADD11R,1.300000X1.300000*%
%ADD12C,1.300000*%
%ADD13R,1.727200X2.032000*%
%ADD14O,1.727200X2.032000*%
%ADD15O,1.600000X2.300000*%
%ADD16R,1.727200X1.727200*%
%ADD17O,1.727200X1.727200*%
%ADD18C,1.998980*%
%ADD19R,1.524000X1.824000*%
%ADD20O,1.524000X1.824000*%
%ADD21R,2.032000X2.032000*%
%ADD22O,2.032000X2.032000*%
G04 APERTURE END LIST*
D10*
D11*
X137200000Y-104500000D03*
D12*
X134700000Y-104500000D03*
D11*
X137200000Y-97100000D03*
D12*
X134700000Y-97100000D03*
D11*
X166000000Y-104500000D03*
D12*
X163500000Y-104500000D03*
D11*
X166000000Y-97100000D03*
D12*
X163500000Y-97100000D03*
D11*
X194800000Y-104400000D03*
D12*
X192300000Y-104400000D03*
D11*
X194900000Y-96900000D03*
D12*
X192400000Y-96900000D03*
D11*
X223400000Y-101500000D03*
D12*
X220900000Y-101500000D03*
D11*
X223400000Y-97000000D03*
D12*
X220900000Y-97000000D03*
D13*
X117700000Y-70500000D03*
D14*
X120240000Y-70500000D03*
X122780000Y-70500000D03*
X125320000Y-70500000D03*
X127860000Y-70500000D03*
X130400000Y-70500000D03*
X132940000Y-70500000D03*
X135480000Y-70500000D03*
D13*
X117700000Y-67000000D03*
D14*
X120240000Y-67000000D03*
X122780000Y-67000000D03*
X125320000Y-67000000D03*
X127860000Y-67000000D03*
X130400000Y-67000000D03*
X132940000Y-67000000D03*
X135480000Y-67000000D03*
D13*
X146600000Y-70500000D03*
D14*
X149140000Y-70500000D03*
X151680000Y-70500000D03*
X154220000Y-70500000D03*
X156760000Y-70500000D03*
X159300000Y-70500000D03*
X161840000Y-70500000D03*
X164380000Y-70500000D03*
D13*
X146600000Y-67000000D03*
D14*
X149140000Y-67000000D03*
X151680000Y-67000000D03*
X154220000Y-67000000D03*
X156760000Y-67000000D03*
X159300000Y-67000000D03*
X161840000Y-67000000D03*
X164380000Y-67000000D03*
D15*
X175300000Y-81900000D03*
X177840000Y-81900000D03*
X180380000Y-81900000D03*
X182920000Y-81900000D03*
X185460000Y-81900000D03*
X188000000Y-81900000D03*
X190540000Y-81900000D03*
X193080000Y-81900000D03*
X193080000Y-74280000D03*
X190540000Y-74280000D03*
X188000000Y-74280000D03*
X185460000Y-74280000D03*
X182920000Y-74280000D03*
X180380000Y-74280000D03*
X177840000Y-74280000D03*
X175300000Y-74280000D03*
X204000000Y-81900000D03*
X206540000Y-81900000D03*
X209080000Y-81900000D03*
X211620000Y-81900000D03*
X214160000Y-81900000D03*
X216700000Y-81900000D03*
X219240000Y-81900000D03*
X221780000Y-81900000D03*
X221780000Y-74280000D03*
X219240000Y-74280000D03*
X216700000Y-74280000D03*
X214160000Y-74280000D03*
X211620000Y-74280000D03*
X209080000Y-74280000D03*
X206540000Y-74280000D03*
X204000000Y-74280000D03*
X112600000Y-104600000D03*
X115140000Y-104600000D03*
X117680000Y-104600000D03*
X120220000Y-104600000D03*
X122760000Y-104600000D03*
X125300000Y-104600000D03*
X127840000Y-104600000D03*
X130380000Y-104600000D03*
X130380000Y-96980000D03*
X127840000Y-96980000D03*
X125300000Y-96980000D03*
X122760000Y-96980000D03*
X120220000Y-96980000D03*
X117680000Y-96980000D03*
X115140000Y-96980000D03*
X112600000Y-96980000D03*
X112600000Y-93000000D03*
X115140000Y-93000000D03*
X117680000Y-93000000D03*
X120220000Y-93000000D03*
X122760000Y-93000000D03*
X125300000Y-93000000D03*
X127840000Y-93000000D03*
X130380000Y-93000000D03*
X132920000Y-93000000D03*
X135460000Y-93000000D03*
X135460000Y-85380000D03*
X132920000Y-85380000D03*
X130380000Y-85380000D03*
X127840000Y-85380000D03*
X125300000Y-85380000D03*
X122760000Y-85380000D03*
X120220000Y-85380000D03*
X117680000Y-85380000D03*
X115140000Y-85380000D03*
X112600000Y-85380000D03*
X141500000Y-104600000D03*
X144040000Y-104600000D03*
X146580000Y-104600000D03*
X149120000Y-104600000D03*
X151660000Y-104600000D03*
X154200000Y-104600000D03*
X156740000Y-104600000D03*
X159280000Y-104600000D03*
X159280000Y-96980000D03*
X156740000Y-96980000D03*
X154200000Y-96980000D03*
X151660000Y-96980000D03*
X149120000Y-96980000D03*
X146580000Y-96980000D03*
X144040000Y-96980000D03*
X141500000Y-96980000D03*
X141500000Y-93000000D03*
X144040000Y-93000000D03*
X146580000Y-93000000D03*
X149120000Y-93000000D03*
X151660000Y-93000000D03*
X154200000Y-93000000D03*
X156740000Y-93000000D03*
X159280000Y-93000000D03*
X161820000Y-93000000D03*
X164360000Y-93000000D03*
X164360000Y-85380000D03*
X161820000Y-85380000D03*
X159280000Y-85380000D03*
X156740000Y-85380000D03*
X154200000Y-85380000D03*
X151660000Y-85380000D03*
X149120000Y-85380000D03*
X146580000Y-85380000D03*
X144040000Y-85380000D03*
X141500000Y-85380000D03*
X170100000Y-104600000D03*
X172640000Y-104600000D03*
X175180000Y-104600000D03*
X177720000Y-104600000D03*
X180260000Y-104600000D03*
X182800000Y-104600000D03*
X185340000Y-104600000D03*
X187880000Y-104600000D03*
X187880000Y-96980000D03*
X185340000Y-96980000D03*
X182800000Y-96980000D03*
X180260000Y-96980000D03*
X177720000Y-96980000D03*
X175180000Y-96980000D03*
X172640000Y-96980000D03*
X170100000Y-96980000D03*
X170200000Y-93000000D03*
X172740000Y-93000000D03*
X175280000Y-93000000D03*
X177820000Y-93000000D03*
X180360000Y-93000000D03*
X182900000Y-93000000D03*
X185440000Y-93000000D03*
X187980000Y-93000000D03*
X190520000Y-93000000D03*
X193060000Y-93000000D03*
X193060000Y-85380000D03*
X190520000Y-85380000D03*
X187980000Y-85380000D03*
X185440000Y-85380000D03*
X182900000Y-85380000D03*
X180360000Y-85380000D03*
X177820000Y-85380000D03*
X175280000Y-85380000D03*
X172740000Y-85380000D03*
X170200000Y-85380000D03*
X198900000Y-104500000D03*
X201440000Y-104500000D03*
X203980000Y-104500000D03*
X206520000Y-104500000D03*
X209060000Y-104500000D03*
X211600000Y-104500000D03*
X214140000Y-104500000D03*
X216680000Y-104500000D03*
X216680000Y-96880000D03*
X214140000Y-96880000D03*
X211600000Y-96880000D03*
X209060000Y-96880000D03*
X206520000Y-96880000D03*
X203980000Y-96880000D03*
X201440000Y-96880000D03*
X198900000Y-96880000D03*
X198900000Y-93000000D03*
X201440000Y-93000000D03*
X203980000Y-93000000D03*
X206520000Y-93000000D03*
X209060000Y-93000000D03*
X211600000Y-93000000D03*
X214140000Y-93000000D03*
X216680000Y-93000000D03*
X219220000Y-93000000D03*
X221760000Y-93000000D03*
X221760000Y-85380000D03*
X219220000Y-85380000D03*
X216680000Y-85380000D03*
X214140000Y-85380000D03*
X211600000Y-85380000D03*
X209060000Y-85380000D03*
X206520000Y-85380000D03*
X203980000Y-85380000D03*
X201440000Y-85380000D03*
X198900000Y-85380000D03*
D13*
X175300000Y-70600000D03*
D14*
X177840000Y-70600000D03*
X180380000Y-70600000D03*
X182920000Y-70600000D03*
X185460000Y-70600000D03*
X188000000Y-70600000D03*
X190540000Y-70600000D03*
X193080000Y-70600000D03*
D13*
X175300000Y-67100000D03*
D14*
X177840000Y-67100000D03*
X180380000Y-67100000D03*
X182920000Y-67100000D03*
X185460000Y-67100000D03*
X188000000Y-67100000D03*
X190540000Y-67100000D03*
X193080000Y-67100000D03*
D13*
X204000000Y-67100000D03*
D14*
X206540000Y-67100000D03*
X209080000Y-67100000D03*
X211620000Y-67100000D03*
X214160000Y-67100000D03*
X216700000Y-67100000D03*
X219240000Y-67100000D03*
X221780000Y-67100000D03*
D13*
X204000000Y-70600000D03*
D14*
X206540000Y-70600000D03*
X209080000Y-70600000D03*
X211620000Y-70600000D03*
X214160000Y-70600000D03*
X216700000Y-70600000D03*
X219240000Y-70600000D03*
X221780000Y-70600000D03*
D11*
X165850000Y-112150000D03*
D12*
X165850000Y-114650000D03*
D16*
X139700000Y-118350000D03*
D17*
X139700000Y-115810000D03*
X142240000Y-118350000D03*
X142240000Y-115810000D03*
X144780000Y-118350000D03*
X144780000Y-115810000D03*
X147320000Y-118350000D03*
X147320000Y-115810000D03*
X149860000Y-118350000D03*
X149860000Y-115810000D03*
X152400000Y-118350000D03*
X152400000Y-115810000D03*
X154940000Y-118350000D03*
X154940000Y-115810000D03*
X157480000Y-118350000D03*
X157480000Y-115810000D03*
D18*
X205900000Y-118350000D03*
X205900000Y-110730000D03*
X209750000Y-118350000D03*
X209750000Y-110730000D03*
X213700000Y-118350000D03*
X213700000Y-110730000D03*
X217600000Y-118350000D03*
X217600000Y-110730000D03*
D15*
X169800000Y-119550000D03*
X172340000Y-119550000D03*
X174880000Y-119550000D03*
X177420000Y-119550000D03*
X179960000Y-119550000D03*
X182500000Y-119550000D03*
X185040000Y-119550000D03*
X185040000Y-111930000D03*
X182500000Y-111930000D03*
X179960000Y-111930000D03*
X177420000Y-111930000D03*
X174880000Y-111930000D03*
X172340000Y-111930000D03*
X169800000Y-111930000D03*
D19*
X191500000Y-118250000D03*
D20*
X191500000Y-110630000D03*
X194040000Y-118250000D03*
X194040000Y-110630000D03*
X196580000Y-118250000D03*
X196580000Y-110630000D03*
X199120000Y-118250000D03*
X199120000Y-110630000D03*
D16*
X127200000Y-110450000D03*
D17*
X129740000Y-110450000D03*
X127200000Y-112990000D03*
X129740000Y-112990000D03*
X127200000Y-115530000D03*
X129740000Y-115530000D03*
X127200000Y-118070000D03*
X129740000Y-118070000D03*
D21*
X112950000Y-111550000D03*
D22*
X112950000Y-114090000D03*
M02*
